<svg id="Layer_1" xmlns="http://www.w3.org/2000/svg" viewBox="0 0 600 202"><style>.st0{fill:url(#SVGID_1_)}.st1{fill:#808184}.st2{fill:url(#SVGID_2_)}</style><linearGradient id="SVGID_1_" gradientUnits="userSpaceOnUse" x1="467.773" y1="-24.65" x2="567.694" y2="75.272"><stop offset="0" stop-color="#005a7e"/><stop offset="1" stop-color="#00a498"/></linearGradient><path class="st0" d="M556.5 5.8l-24.5 21 6.9 5.9 20-17.2c1.3-1.1 3-1.4 4.6-.9l19.3 6.3c2 .6 3.3 2.5 3.3 4.6v19.4c0 2.1-1.3 3.9-3.3 4.6l-21.3 6.9c-1.6.5-3.3.2-4.6-.9l-29.3-24.9-28.9-24.8c-1.3-1.1-3-1.4-4.6-.9l-30.6 10c-2 .6-3.3 2.5-3.3 4.6v31.4c0 2.1 1.3 3.9 3.3 4.6L496.1 66c1.6.5 3.3.2 4.6-.9l22.5-19.2-6.9-5.9-18 15.4c-1.3 1.1-3 1.4-4.6.9l-21.3-6.9c-2-.6-3.3-2.5-3.3-4.6V25.5c0-2.1 1.3-3.9 3.3-4.6l19.3-6.3c1.6-.5 3.3-.2 4.6.9l31.3 26.7 26.9 22.9c1.3 1.1 3 1.4 4.6.9l32.6-10.6c2-.6 3.3-2.5 3.3-4.6V19.5c0-2.1-1.3-3.9-3.3-4.6l-30.6-10c-1.6-.5-3.3-.1-4.6.9z"/><g><path class="st1" d="M54.4 197.3h-4.2c-1.7 0-2.2-.9-2.2-2.5v-30.3c-4.6 3.7-13.2 5.5-21.6 5.5C11.7 170 5 160.9 5 138.4c0-27 10-33.2 29.5-33.2 6.7 0 12.9 1 17.3 2.6 1.8.6 3.2 1.6 4.1 3.1.6 1.1 1 2.7 1 5.4v78.4c-.2 1.7-1 2.6-2.5 2.6zM48 119.4c0-1.4-.2-2.7-.7-3.5-.5-.6-1.6-1.1-2.8-1.5-2.8-.7-6.9-1.2-10.2-1.2-16.9 0-20.3 6.7-20.3 24.4 0 16 1.8 24.3 15.5 24.3 5.1 0 12.7-.9 16.3-3.2 1-.7 1.6-1.1 2-1.8.2-.6.4-1.6.4-2.6v-34.9zM70.2 109.4c0-1.5.4-2.6 2.3-2.6h4.1c1.7 0 2.3 1 2.3 2.6v38.2c0 4.1.4 7.9 1.1 9.5 1.4 3.3 4.8 5.1 12.6 5.1 8.1 0 12.4-.9 15.3-2 .7-.2 1.7-.9 2.3-1.7.4-.6.7-2.1.7-3.9v-45.1c0-1.5.5-2.6 2.3-2.6h4.1c1.7 0 2.3.9 2.3 2.6v49.3c0 4.3-1.5 6.3-3.8 7.4-7.4 3.3-17.7 3.9-25.1 3.9-12.2 0-17.3-3.3-19.1-8-1.1-3.1-1.5-7.9-1.5-13.4v-39.3zM139.9 92.9c-3.2 0-5.7-1.2-5.7-5.9 0-4.4 2.2-6.3 5.7-6.3 3.6 0 5.8 1.4 5.8 6.2 0 4.4-2.1 6-5.8 6zm2.2 75.8H138c-1.7 0-2.3-.7-2.3-2.5v-56.7c0-1.6.4-2.7 2.3-2.7h4.1c1.8 0 2.3 1 2.3 2.6v56.8c.1 1.5-.4 2.5-2.3 2.5zM166.9 168.7h-4.1c-1.7 0-2.3-.9-2.3-2.5V118c0-4.3 1.6-6.2 3.8-7.1 7.6-3.7 19.7-5.3 27.5-5.3 11.2 0 15.3 2.7 17.1 7.5 1 2.8 1.1 7.1 1.1 12.1v41c0 1.5-.4 2.5-2.3 2.5h-4.1c-1.7 0-2.3-.9-2.3-2.5v-39.4c0-3.3-.4-6.9-.9-8.5-1.1-3.1-3.6-4.7-11.1-4.7-9 0-14.4 1.7-17 2.8-.7.4-1.7 1-2.3 1.8-.4.6-.7 1.8-.7 3.7v44.2c0 1.6-.5 2.6-2.4 2.6zM239.9 156.9c2 3.2 6 4.4 13.8 4.8 1.5.1 2.1.7 2.1 2.2 0 1-.1 2.6-.2 3.7-.1 1.4-.9 1.8-2.6 1.8-10.1 0-15.9-1.2-20-6-3-3.7-3.9-8.9-3.9-18.2V115h-8c-1.1 0-2.1-.6-2.1-2.2v-3.2c0-1.4.7-2.5 2.3-2.5h7.9s0-3.8.4-14.1c.1-1.6.7-2.7 2.1-2.7h4.2c1.5 0 2.1.9 2.1 2.7v14.1h13.8c1.6 0 2.6.7 2.6 2.3v3.2c0 1.7-1.1 2.3-2.6 2.3H238v30.7c-.1 6.2.7 9.3 1.9 11.3zM291.9 162.2c6.3 0 10.5-.7 14.4-1.8 1.2-.4 2.3-.6 3.2-.6.9 0 1.4.5 1.7 1.2.4 1 1 2.8 1 3.8s-.5 1.6-2 2.2c-5.5 2.2-12.4 3.1-19.4 3.1-20.7 0-28.1-9.7-28.1-32.2 0-23.3 9.7-32.5 27.9-32.5 21 0 23 12.4 23 30.4 0 2.1-.1 3.1-.9 3.7-.6.5-1.4.7-2.5.7h-38.5c.4 18.2 7.5 22 20.2 22zM305 133c.1-1 .1-1.8.1-3.1 0-10.2-2.5-16.8-15-16.8-13.8 0-17.7 7.9-18.1 19.8h33zM367.3 109.5c.7-1.8 1.4-2.8 2.8-2.8 1.1 0 3.5.1 4.9.4 1.2.2 1.7.9 1.7 1.8 0 .5-.2 1.6-.7 3l-20.6 52.5c-1.1 2.8-2.5 4.4-5.8 4.4h-2.2c-3.7 0-4.7-1.7-5.8-4.6l-20-52.3c-.5-1.2-.9-2.3-.9-3 0-.9.4-1.7 1.7-2 1.5-.4 4.2-.4 5.3-.4 1.6 0 2.1.9 2.7 2.7 12.9 34.9 15.3 41.2 18.2 50.2 3.1-8.7 5.4-14.6 18.7-49.9zM413.2 162.2c6.3 0 10.5-.7 14.4-1.8 1.2-.4 2.3-.6 3.2-.6s1.4.5 1.7 1.2c.4 1 1 2.8 1 3.8s-.5 1.6-2 2.2c-5.5 2.2-12.4 3.1-19.4 3.1-20.7 0-28.1-9.7-28.1-32.2 0-23.3 9.7-32.5 27.9-32.5 21 0 23 12.4 23 30.4 0 2.1-.1 3.1-.9 3.7-.6.5-1.4.7-2.5.7H393c.4 18.2 7.5 22 20.2 22zm13.1-29.2c.1-1 .1-1.8.1-3.1 0-10.2-2.5-16.8-15-16.8-13.8 0-17.7 7.9-18.1 19.8h33zM453.1 168.7H449c-1.7 0-2.3-.9-2.3-2.5V118c0-4.3 1.6-6.2 3.8-7.1 7.6-3.7 19.7-5.3 27.5-5.3 11.2 0 15.3 2.7 17.1 7.5 1 2.8 1.1 7.1 1.1 12.1v41c0 1.5-.4 2.5-2.3 2.5h-4.1c-1.7 0-2.3-.9-2.3-2.5v-39.4c0-3.3-.4-6.9-.9-8.5-1.1-3.1-3.6-4.7-11.1-4.7-9 0-14.4 1.7-17 2.8-.7.4-1.7 1-2.3 1.8-.4.6-.7 1.8-.7 3.7v44.2c0 1.6-.5 2.6-2.4 2.6zM526.1 156.9c2 3.2 6 4.4 13.8 4.8 1.5.1 2.1.7 2.1 2.2 0 1-.1 2.6-.2 3.7-.1 1.4-.9 1.8-2.6 1.8-10.1 0-15.9-1.2-20-6-3-3.7-3.9-8.9-3.9-18.2V115h-8c-1.1 0-2.1-.6-2.1-2.2v-3.2c0-1.4.7-2.5 2.3-2.5h7.9s0-3.8.4-14.1c.1-1.6.7-2.7 2.1-2.7h4.2c1.5 0 2.1.9 2.1 2.7v14.1H538c1.6 0 2.6.7 2.6 2.3v3.2c0 1.7-1.1 2.3-2.6 2.3h-13.8v30.7c-.1 6.2.7 9.3 1.9 11.3zM565.5 139.9c-8.9-2.6-13.7-7.8-13.7-16.4 0-11.3 6.7-18 22.4-18 4.9 0 11.3.5 16 1.7 1.8.5 2.2 1.4 2.2 2.5 0 .7-.5 2.3-1.1 4.2-.2.9-1 1.4-1.7 1.4-.5 0-1.5-.2-2.2-.4-4.8-1.2-9.9-1.6-13.3-1.6-11.7 0-13.6 4.6-13.6 9.6 0 3.7 1.4 6.9 10.7 9.7l8.6 2.7c10 3.1 14.9 6.9 14.9 16.6 0 10.7-6.5 18.1-23.2 18.1-6.8 0-14.9-1-19.2-3-1.2-.5-1.7-1.2-1.7-2.2 0-.9.5-2.3 1.1-3.8.5-1.2 1.2-1.7 2.1-1.7.6 0 1.8.5 2.6.7 4.4 1.5 9.5 2.1 15.4 2.1 12.8 0 14.3-5.4 14.3-10 0-4.1-1.4-6.4-11-9.4l-9.6-2.8z"/></g></svg>