<svg xmlns="http://www.w3.org/2000/svg" xmlns:xlink="http://www.w3.org/1999/xlink" viewBox="0 0 613.9823 94.60866"><defs><style>.cls-1{fill:url(#New_Gradient_Swatch_1);}</style><linearGradient id="New_Gradient_Swatch_1" x1="3.68523" y1="44.80422" x2="609.98077" y2="44.80422" gradientUnits="userSpaceOnUse"><stop offset="0.1146" stop-color="#48a7a5"/><stop offset="0.45138" stop-color="#75d99c"/><stop offset="0.58456" stop-color="#ffd258"/><stop offset="0.89679" stop-color="#dc614a"/></linearGradient></defs><title>seahearnowAsset 1</title><g id="Layer_2" data-name="Layer 2"><g id="Layer_1-2" data-name="Layer 1"><path class="cls-1" d="M295.73164,21.265c-.00586-.847-.0127-1.69342-.01123-2.53936l.00683-1.62134c.01172-1.98291.02344-3.99317-.08056-5.90283A5.16761,5.16761,0,0,0,294.467,7.973l.00049.00013-.00147-.00135a5.10579,5.10579,0,0,0-.519-.52582c-.01807-.01629-.03565-.03332-.0542-.04949a6.3764,6.3764,0,0,0-.647-.49042l-.00147-.00116a10.12127,10.12127,0,0,0-5.78125-1.39063h-.00049q-12.79174-.02938-25.584.00782-.42919.00163-.82568.01879a13.09342,13.09342,0,0,0-2.10987.24549A11.55538,11.55538,0,0,0,257.4499,6.2a9.91892,9.91892,0,0,0-1.16016.50232c-.05029.02533-.1084.04328-.15771.06934a7.84821,7.84821,0,0,0-4.32324,6.80267c-.25391,4.4104-.42627,8.896-.57569,13.31714-.00683.2019-.01318.40045-.02.60205-.04248,1.27838-.084,2.55408-.125,3.8172l-.00537.1637q-.082,2.54269-.16748,5.086l.01172.61683s.00342,3.00531-.00049,3.34832c-.09521,9.12665-.0918,26.81946.52,35.22974a26.50271,26.50271,0,0,0,.5708,4.32727,5.47309,5.47309,0,0,0,2.6958,3.70538,10.68433,10.68433,0,0,0,5.46045,1.09064q13.8999.03516,27.79395-.00391a3.99625,3.99625,0,0,0,1.1123-.11621,7.01916,7.01916,0,0,0,4.87061-5.31787A40.74814,40.74814,0,0,0,295.093,66.30184a32.96936,32.96936,0,0,0-.98876-5.63519,2.7124,2.7124,0,0,0-.16016-.46082v.00006l-.00049-.00055a2.177,2.177,0,0,0-.1543-.27789c-.03125-.05109-.063-.10272-.09814-.15051a2.01425,2.01425,0,0,0-.17725-.20526,2.11439,2.11439,0,0,0-.19531-.17365c-.05664-.045-.11084-.09259-.17383-.13367a2.92794,2.92794,0,0,0-.4751-.25634l-.00146-.00074c-.16162-.06842-.334-.11267-.501-.169a7.73681,7.73681,0,0,0-2.65966-.40814,9.01667,9.01667,0,0,0-1.13086.09887,9.22886,9.22886,0,0,0-1.31006.29029,5.36064,5.36064,0,0,0-1.03565.42431l-.00049.00031a.55691.55691,0,0,0-.16894.18176,1.01535,1.01535,0,0,0-.06152.09613,2.13648,2.13648,0,0,0-.10987.25574,7.08684,7.08684,0,0,0-.32959,1.53161c-.16552,1.30463-.27246,2.67511-.375,4.00043-.08642,1.10791-.17675,2.25214-.29834,3.38861a8.35808,8.35808,0,0,1-5.728,7.3454l-.062.02032c-.24755.08014-.50146.147-.75976.20514-.04639.01032-.0918.0224-.13867.032-.23682.04925-.479.08526-.72364.11523-.0625.00751-.124.01917-.187.02539a9.08279,9.08279,0,0,1-.91406.04779c-.15576,0-.31348-.01617-.4707-.02423a9.5463,9.5463,0,0,1-1.416-.16852,6.77585,6.77585,0,0,1-1.04346-.31408c-.05761-.02216-.11718-.03974-.17431-.06324v.00013a8.062,8.062,0,0,1-4.772-6.79114c-.24316-2.74219-.2832-11.65869-.1499-13.755a11.73117,11.73117,0,0,1,5.82959-9.84619,36.26144,36.26144,0,0,1,4.41309-2.03821l.708-.28772c1.3374-.55035,2.69189-1.08166,4.04638-1.613l.22315-.08716c2.60156-1.01795,5.28906-2.06946,7.82324-3.24671,1.27734-.59393,2.37012-2.22631,3.15576-4.194.07178-.18017.1416-.36169.2085-.547a18.94326,18.94326,0,0,0,1.06347-5.01069c.15186-2.31921.13233-4.73791.11426-7.07611Zm-11.93213,1.35492-.001.00165a9.25569,9.25569,0,0,1-1.20654,2.55835,22.43269,22.43269,0,0,1-4.44238,4.78723q-.31128.25059-.63233.49024c-.50488.37756-1.02246.74078-1.56152,1.079a6.1968,6.1968,0,0,1-2.34619.90008,5.26133,5.26133,0,0,1-.79395.06037,4.973,4.973,0,0,1-.561-.03821c-.187-.02411-.37647-.05878-.5669-.10285a5.09716,5.09716,0,0,1-3.67871-3.3222c-.07324-.19733-.13769-.40643-.1958-.62354-.0459-.1712-.08887-.34552-.12451-.52929-.09619-.51178-.30664-2.57569-.39258-3.43946l-.0293-.28778.0542-.28436c.08252-.43414.15332-.87329.22315-1.31128a28.98217,28.98217,0,0,1,.74121-3.58136c1.15722-3.97754,4.9917-5.75928,8.27783-5.75928a8.39159,8.39159,0,0,1,3.68066.80567A7.09719,7.09719,0,0,1,283.79951,22.61989Z"/><path class="cls-1" d="M179.32929,72.92592l-.001-.001a7.18862,7.18862,0,0,0-4.64356-1.60633c-.23291,0-.46533.01215-.69726.03162-.06543.00555-.13038.01495-.1958.02209-.17041.0185-.34034.04114-.50928.07044-.0669.01172-.1333.02515-.2002.03863q-.26294.05265-.52.12354c-.05078.014-.10156.02722-.15185.04224-.2168.06451-.43067.13757-.63916.22186l-.00537.002a6.20752,6.20752,0,0,0-1.86133,1.1612l-.00537.005a6.04707,6.04707,0,0,0-1.89405,4.65015c0,4.39764,3.35694,6.366,6.6836,6.366a7.18251,7.18251,0,0,0,4.64111-1.60516,6.65737,6.65737,0,0,0-.00049-9.52222Z"/><path class="cls-1" d="M351.76533,78.4349c-.061-.635-.10108-1.27295-.12842-1.91162v-.00379c-.08594-2.01306-.02979-4.03473.02686-6.006.03369-1.18842.06933-2.417.06982-3.59308q.00074-3.26267-.00244-6.52582l-.00147-3.39789v-.22815l-.00048-.42193-.00049-.70111.00049-6.90979.00048-2.03229v-.59991l.00049-10.83875c0-1.62921.07959-3.36963.16406-5.21228.3628-7.93652.76221-16.868-4.86718-21.17456a9.41106,9.41106,0,0,0-1.01075-.69629c-2.73046-1.621-7.25-2.86719-12.23584-3.56519-1.24658-.17449-2.52246-.31469-3.80615-.418-.85644-.06885-1.71631-.12134-2.57373-.1565-5.57373-.22876-11.04785.27045-14.7417,1.71784a12.60132,12.60132,0,0,0-1.57177.73614c-.11866.06653-.23633.13263-.35157.19788-.1831.10321-.35742.20324-.52441.30066q-.12818.07488-.24658.14648c-.22657.13641-.42383.26288-.57715.37506a2.20761,2.20761,0,0,0-.2168.1745.59664.59664,0,0,0-.09668.11225.61133.61133,0,0,0-.0542.1239,12.92844,12.92844,0,0,0-.29345,2.40094c-.31055,4.38757.01513,7.88958.52685,9.08581a57.12153,57.12153,0,0,0,6.46777-3.03491c3.70752-1.91138,6.06983-3.08917,7.60743-3.3277a23.55889,23.55889,0,0,1,3.646-.35089c3.22022,0,6.9209,1.09,8.20557,6.43915,1.25732,5.23688-1.356,8.4519-5.09815,10.66186V29.8008a36.03913,36.03913,0,0,1-6.63623,2.86591l-.03076.0105c-.7417.25213-1.47217.48986-2.17578.7185l-.01269.004c-1.50489.4892-2.95752.96118-4.20606,1.45587a16.35521,16.35521,0,0,0-1.99365.92365,16.05484,16.05484,0,0,0-1.39649.89752c-.07421.053-.14648.10742-.21972.16144a15.52711,15.52711,0,0,0-2.28711,2.0426c-.14307.15735-.28174.31811-.41748.48035-4.50049,5.3645-5.10156,13.34161-5.68311,21.11163l-.0625.83862c-.62451,8.283-.895,16.73572,3.16406,21.11267,1.99415,2.15052,4.9502,3.19586,9.03614,3.19586a63.68746,63.68746,0,0,0,8.05469-.6632,45.03325,45.03325,0,0,1,12.32666-.371c9.03515,1.27185,12.89355.82189,14.519.30242a2.69628,2.69628,0,0,0,1.05322-.53711,26.31346,26.31346,0,0,0-.75049-3.29473A18.22584,18.22584,0,0,1,351.76533,78.4349Zm-21.04492-2.22535v-.00006a5.257,5.257,0,0,1-.66065.16877c-.02978.00543-.05859.01239-.08887.01733a4.92113,4.92113,0,0,1-.72119.07373c-.07129.00171-.14355.00281-.21435.00281l-.0044-.00019c-.23925-.00012-.47363-.01184-.70459-.032-.18164-.01629-.3584-.04254-.53466-.07129-.04346-.00689-.0879-.0108-.13086-.01843a7.12886,7.12886,0,0,1-1.25245-.34637A6.53964,6.53964,0,0,1,323.945,74.363c-3.67823-3.9043-2.98047-12.1532-2.51856-17.61127.08936-1.05652.1665-1.96948.19043-2.64044l.03516-1.05152c.11377-3.60095.248-7.75732,2.75781-10.32269a6.86609,6.86609,0,0,1,.53613-.49109c1.45264-1.19958,3.56592-1.94671,6.66553-1.94671,2.06348,0,3.42139,1.65112,4.31543,3.92932q.12231.31128.2334.63653a37.84511,37.84511,0,0,1,1.45215,10.65741C337.72187,64.30648,335.94062,74.4836,330.72041,76.20955Z"/><path class="cls-1" d="M241.83027,5.19082a.46047.46047,0,0,0-.01807-.05811l-.00049-.00006c-.01318-.00055-.05566-.01562-.12451-.0307-.09179-.01929-.1958-.04028-.29638-.0564a1.82617,1.82617,0,0,0-.27393-.0274l-2.1001-.00672-1.0498-.00335c-1.75635-.007-3.54248-.01367-5.335-.01367-1.792.00006-3.59082.00671-5.373.02655l-.00049.00006c-.13525.00146-.2583.00811-.37256.01941-.04443.00433-.08252.01263-.124.01861-.06494.00946-.13086.01892-.189.03278-.0459.01086-.08692.026-.12891.03979a1.32551,1.32551,0,0,0-.13086.04871,1.09629,1.09629,0,0,0-.11621.064,1.00654,1.00654,0,0,0-.09619.06641.94216.94216,0,0,0-.16992.1767,1.14041,1.14041,0,0,0-.084.12475c-.01807.03156-.03369.06708-.0498.10175a1.75356,1.75356,0,0,0-.06983.16333c-.01172.03369-.02148.07275-.03222.10888-.02051.06965-.042.13892-.05909.21821l-.00048.00079c-.02442.11236-.04688.23059-.06592.36346a20.23955,20.23955,0,0,0-.18848,2.69525c-.01367,1.4007-.01318,3.85791-.01318,6.45594.001,3.48022.00146,7.07947-.03076,8.93438a10.47339,10.47339,0,0,1-.21241,1.95942c-.04345.20825-.08886.414-.144.60742a6.29467,6.29467,0,0,1-4.0293,4.34173,9.28384,9.28384,0,0,1-1.70605.45142,17.95071,17.95071,0,0,1-6.72412-.12463l-.00293-.0008a7.89046,7.89046,0,0,1-.98194-.28039,5.92115,5.92115,0,0,1-3.67431-3.42054c-.07666-.18957-.1499-.38122-.21-.58288a7.01657,7.01657,0,0,1-.19434-.77008,14.05792,14.05792,0,0,1-.26709-2.35834c-.01611-1.69122-.01953-4.85577-.02344-7.989-.00341-2.9942-.00683-5.95984-.02148-7.57453a19.99449,19.99449,0,0,0-.17041-2.47009c-.01318-.09924-.02979-.18451-.04639-.27136V6.17013c-.019-.10053-.042-.19208-.06689-.277L206.8498,5.85a1.78566,1.78566,0,0,0-.08057-.20893l-.0249-.05139a1.12937,1.12937,0,0,0-.09814-.15716c-.0127-.01691-.02637-.03266-.04-.04834a.88831.88831,0,0,0-.11719-.11475c-.019-.015-.04053-.02789-.06055-.04144a.999.999,0,0,0-.1372-.079c-.02784-.01264-.06006-.02191-.09034-.03266a1.353,1.353,0,0,0-.15283-.0484c-.04541-.01056-.09765-.01672-.14746-.02441-.04834-.00733-.09375-.017-.14648-.02185-.10254-.00946-.21436-.01416-.335-.015l-.01856-.00085c-5.33349-.01843-9.43652-.01508-13.30322.01514a4.67063,4.67063,0,0,0-1.23193.21118l.00146.02343c.01221.25556.02832.49854.04346.74347.00244.0351.0039.072.00635.10706a10.78517,10.78517,0,0,0,.14062,1.23907c.66455,3.54.96973,12.71521.94824,15.68592-.01513,2.02044-.02246,4.05237-.02734,6.0849q-.00073.3001-.001.6c-.0083,3.88867-.0039,7.775.00147,11.57837q.00439,3.59784.00634,7.19568l-.00048,6.31519c-.001,8.474-.00293,18.6214.01074,25.88354a10.923,10.923,0,0,0,.20508,2.17731c.38476,1.87,1.38379,2.13428,2.31054,2.14545,4.3667.05535,8.71387.03521,12.792.009.80957-.00507.853-.4671.87646-.7146a10.01626,10.01626,0,0,0-.14453-2.79749c-.08252-.42907-.17676-.85486-.27-1.28A19.698,19.698,0,0,1,207.155,75.89c.00293-2.82434.00293-6.45147.00293-10.21221-.001-5.26362-.001-10.78821.00781-14.74109a21.04449,21.04449,0,0,1,.21045-3.13276c.60791-4.03784,3.00732-5.5307,4.9126-6.07153a14.5654,14.5654,0,0,1,7.7915-.07434,6.31828,6.31828,0,0,1,4.69482,4.5647,14.28212,14.28212,0,0,1,.561,3.5473c.04492,7.34876.04394,19.212.01953,26.644a15.86073,15.86073,0,0,1-.334,2.81092l-.05323.29162c-.13232.742-.28222,1.4823-.43261,2.2226-.18555.91735-.36084,1.78338-.50684,2.66278-.03857.23242-.00781.31628.25879.39056a5.38541,5.38541,0,0,0,1.36963.21118c3.81982.02906,7.77148.05866,11.73584.01117,1.89648-.02179,2.49267-.83471,2.80517-2.04822a9.36188,9.36188,0,0,0,.23389-2.32147c.01514-17.57336.01465-38.34277.01465-53.55206v-.6026l-.00147-12.47089a6.3053,6.3053,0,0,1,.10743-1.45215c.24707-1.14367.51464-2.284.78222-3.42431l.31787-1.35773a6.89674,6.89674,0,0,0,.24707-2.14038A2.50719,2.50719,0,0,0,241.83027,5.19082Z"/><path class="cls-1" d="M101.24043,17.10366c.01171-1.95545.02343-3.97412-.08106-5.90277a5.16891,5.16891,0,0,0-1.1792-3.2276v.00006l-.00049-.00043a5.12938,5.12938,0,0,0-.52-.52685c-.01806-.01636-.03564-.03327-.0542-.0495a6.39589,6.39589,0,0,0-.64843-.49164c-.18262-.11957-.36963-.2309-.563-.33417a8.022,8.022,0,0,0-1.92236-.718q-.3545-.08523-.73536-.14849a15.85309,15.85309,0,0,0-2.56005-.19h-.00049Q80.1811,5.48492,67.3913,5.52212q-.42919.00163-.82519.01879-.39624.01713-.76123.05a11.78722,11.78722,0,0,0-1.34961.19544c-.01025.00213-.019.006-.0293.00818a11.54711,11.54711,0,0,0-1.46338.40527,9.89146,9.89146,0,0,0-1.16943.50653c-.04736.02387-.102.04059-.14844.065A7.84784,7.84784,0,0,0,57.322,13.5743c-.3418,5.933-.53662,11.99951-.72559,17.86658l-.00244.07373q-.0813,2.51925-.16553,5.03961l.01172.62354s.00244,3.00476-.00146,3.34777c-.01807,1.78943-.03272,3.91059-.04,6.22327l-.00147.59662c-.02343,9.42419.08106,21.80084.562,28.40985a26.50271,26.50271,0,0,0,.5708,4.32727,5.472,5.472,0,0,0,2.69629,3.70538,10.675,10.675,0,0,0,5.46044,1.09064q13.89845.03516,27.79346-.00391a3.99943,3.99943,0,0,0,1.11231-.11621,7.01915,7.01915,0,0,0,4.8706-5.31787,40.76136,40.76136,0,0,0,1.14307-13.13928,33.014,33.014,0,0,0-.98926-5.63464,2.67058,2.67058,0,0,0-.16064-.46088l.00048.00006-.00048-.00085a2.16808,2.16808,0,0,0-.15381-.27735c-.03174-.05127-.06348-.103-.09912-.15094a1.94554,1.94554,0,0,0-.17676-.2052,2.18162,2.18162,0,0,0-.19531-.17364c-.05664-.04492-.11084-.09241-.17383-.13349a2.92117,2.92117,0,0,0-.47656-.25708,7.11971,7.11971,0,0,0-1.00293-.33831,7.90307,7.90307,0,0,0-2.15772-.23938,8.98635,8.98635,0,0,0-1.13135.09942,7.21415,7.21415,0,0,0-2.34521.7146l-.001.00061a.55624.55624,0,0,0-.16846.18134,1.009,1.009,0,0,0-.061.09649,2.06087,2.06087,0,0,0-.11035.2555c-.03321.0885-.06446.18988-.09473.2995v.0003a8.80508,8.80508,0,0,0-.23535,1.23181c-.165,1.30463-.272,2.67511-.37451,4.00043-.08106,1.03809-.17285,2.21362-.29834,3.38861a8.35793,8.35793,0,0,1-5.72656,7.34491l-.064.02118c-.24707.07983-.5.14636-.75732.20441-.04737.01043-.09375.02276-.14112.03247-.23584.04919-.47754.08508-.72168.115-.063.00757-.12451.01922-.188.02551a9.10085,9.10085,0,0,1-.91407.04779,9.41168,9.41168,0,0,1-1.41455-.1206c-.15771-.02405-.31543-.04016-.47265-.07215l-.00049-.00012a6.78216,6.78216,0,0,1-1.04444-.31445c-.05712-.02191-.11572-.03925-.17236-.0625v.00006a8.06,8.06,0,0,1-4.772-6.79187c-.24317-2.73773-.2832-11.65534-.1499-13.75446a11.75956,11.75956,0,0,1,5.502-9.64593c.10889-.06684.21533-.13654.32715-.20026.33056-.1886.66211-.362.99365-.52948,1.146-.57916,2.29346-1.04986,3.41113-1.50537l.71631-.29108c1.35742-.55816,2.731-1.09674,4.105-1.63592l.16553-.06482c2.60205-1.01795,5.291-2.07,7.82226-3.24616,2.4126-1.12133,4.17676-5.93518,4.42774-9.75177.06445-.98083.09375-1.98559.10986-2.99511v-.00611c.02149-1.36.01465-2.7301.00391-4.07544-.00684-.90069-.01367-1.80078-.01221-2.70031ZM89.31171,22.61989v.00055a9.231,9.231,0,0,1-1.20751,2.56061,22.49739,22.49739,0,0,1-6.56543,6.30579l.001-.00055c-.0249.01568-.04687.03454-.07178.05011a6.18438,6.18438,0,0,1-2.34472.90008,5.27893,5.27893,0,0,1-.79492.06037l-.001-.00006a5.03749,5.03749,0,0,1-.584-.04535q-.26953-.038-.54395-.10132a5.27759,5.27759,0,0,1-3.99756-4.47,64.37427,64.37427,0,0,1,.59619-8.90363c1.15723-3.97754,4.9917-5.75928,8.27783-5.75928a8.39253,8.39253,0,0,1,3.68018.80567A7.09535,7.09535,0,0,1,89.31171,22.61989Z"/><path class="cls-1" d="M42.86836,49.96114a21.679,21.679,0,0,0-1.519-2.34015c-.15185-.20514-.30957-.40106-.46582-.59924a36.02482,36.02482,0,0,0-5.22656-5.21393c-1.42041-1.19006-2.65625-2.37067-3.85156-3.51263-1.2583-1.20179-2.44727-2.3371-3.83789-3.48639a13.67734,13.67734,0,0,1-4.94385-9.53668l-.01318-.13526a10.64784,10.64784,0,0,1,.30615-4.85132A4.24041,4.24041,0,0,1,27.238,17.08748a5.50409,5.50409,0,0,1,4.86377,2.40863,12.40309,12.40309,0,0,1,1.9126,5.20221,12.311,12.311,0,0,0,3.41211,6.91852,2.49168,2.49168,0,0,0,2.21387.90851c2.75879-.36713,4.70361-3.22272,5.1333-5.72351a50.38181,50.38181,0,0,0,.51367-7.03479l.00293-.11224a27.58055,27.58055,0,0,0-.48779-7.27283A14.0462,14.0462,0,0,0,42.28681,6.182v.00006l-.001-.00092c-.07618-.09192-.15528-.17749-.23438-.26294-.042-.045-.0835-.09-.126-.13311q-.11205-.113-.22753-.21705c-.05469-.04949-.11133-.09539-.16749-.14172-.07177-.05878-.14257-.1192-.21679-.17248a3.98492,3.98492,0,0,0-.38037-.24482c-.05274-.02978-.1084-.0531-.16211-.08-.09571-.04785-.19239-.09278-.291-.13129-.0581-.02246-.1167-.042-.17578-.06109a3.18625,3.18625,0,0,0-.32031-.08515c-.05274-.01117-.105-.02405-.15821-.03259a3.13812,3.13812,0,0,0-.49853-.04334l-.05322.00055c-2.54492.04077-5.10889.0578-7.66065.063q-1.91382.00395-3.81543.00037-1.8999-.00283-3.77539-.00861c-2.8374-.00726-5.67627-.01391-8.51367-.00555-.34082.0011-.66406.0072-.97217.01849a16.698,16.698,0,0,0-2.4331.24744l-.00586.00195a2.82363,2.82363,0,0,0-.62891.2038,4.46035,4.46035,0,0,0-.48437.26861c-.05323.03266-.105.05524-.1587.09082a6.68677,6.68677,0,0,0-.64208.48865l-.00782.00623A15.40391,15.40391,0,0,0,6.56855,11.0176a10.91361,10.91361,0,0,0-1.293,5.39,57.00868,57.00868,0,0,0,.25879,10.00263,22.2014,22.2014,0,0,0,2.08545,7.78009,36.36953,36.36953,0,0,0,2.8418,4.48034c1.84814,2.5116,3.76367,4.86139,5.72509,7.03437.20069.22253.40235.44207.604.66082C17.906,47.57461,19.03437,48.72957,20.175,49.817c.73681.70288,1.51269,1.40515,2.26367,2.08343,1.25293,1.13306,2.54834,2.30469,3.77246,3.57526A13.784,13.784,0,0,1,30.05927,66.5823a6.90412,6.90412,0,0,1-3.60937,5.85705,6.28947,6.28947,0,0,1-.78516.32623,5.50515,5.50515,0,0,1-4.06592-.16961,7.75789,7.75789,0,0,1-2.19677-1.43555,10.7279,10.7279,0,0,1-2.93994-6.00671c-.22461-1.08167-.40674-2.1723-.583-3.22718-.18408-1.10229-.3584-2.14318-.57715-3.18188a5.6778,5.6778,0,0,0-.97656-2.25977V56.485l-.00147-.002a4.19043,4.19043,0,0,0-.51806-.59045,3.726,3.726,0,0,0-.644-.499,4.38058,4.38058,0,0,0-1.23-.50683,5.78386,5.78386,0,0,0-.71972-.13013,7.92035,7.92035,0,0,0-.80616-.05194,4.44,4.44,0,0,0-3.77,1.60516,11.65234,11.65234,0,0,0-2.36328,5.94532,33.9849,33.9849,0,0,0,.78028,15.86914c.82226,3.21319,2.80908,6.53753,4.71044,6.53808H25.38252l3.58691.00055q5.8938,0,11.78174-.00555a7.911,7.911,0,0,0,1.333-.09c.68847-.30505,1.73632-3.1098,2.13037-4.16577.1372-.36706.26709-.7146.39111-1.02917a13.00749,13.00749,0,0,0,.75488-3.22211c.13233-1.11408.24658-1.96332.34619-2.70862.22266-1.66724.36963-2.76843.50928-5.23517a59.69034,59.69034,0,0,0-.11133-8.24328A24.50434,24.50434,0,0,0,42.86836,49.96114Z"/><path class="cls-1" d="M157.25849,78.43435a64.04053,64.04053,0,0,1-.102-7.92316c.03418-1.18726.06934-2.41528.06983-3.59082q.00219-3.33051-.002-6.661l-.00244-4.61389.00147-20.38074c0-.25757.00488-.52283.0083-.786.00293-.19959.00488-.39807.00927-.60089.02784-1.22028.08545-2.49524.14649-3.82538.34277-7.50629.71142-15.89667-4.01074-20.42914v.00012l-.002-.00189a10.07735,10.07735,0,0,0-.855-.74371A9.37144,9.37144,0,0,0,151.509,8.1816a23.02507,23.02507,0,0,0-5.272-2.129c-.69824-.2005-1.42774-.38818-2.18262-.56219-.75439-.17407-1.53467-.33447-2.3335-.48047q-.59911-.1095-1.21191-.20807c-.81641-.13135-1.64893-.24792-2.49121-.34882-.84277-.10089-1.69482-.18621-2.55078-.25506-1.7124-.1377-3.43945-.20972-5.13281-.20953q-.635,0-1.2627.01373a45.55527,45.55527,0,0,0-5.96289.49548c-.74072.11548-1.45459.25147-2.13525.40863a16.77016,16.77016,0,0,0-4.39258,1.5896c-.47412.26624-.93457.52509-1.29834.75128a2.62241,2.62241,0,0,0-.71533.55555l-.00245.00476a.67085.67085,0,0,0-.05175.11889,12.97129,12.97129,0,0,0-.29346,2.40119c-.31055,4.38812.01514,7.89019.52686,9.08636a57.27545,57.27545,0,0,0,6.46826-3.03546c3.70752-1.91138,6.06933-3.08917,7.60693-3.3277a23.559,23.559,0,0,1,3.646-.35089c3.22021,0,6.92089,1.09,8.20556,6.43915,1.25733,5.23736-1.35644,8.45251-5.09912,10.66254a36.03377,36.03377,0,0,1-6.63623,2.86547l-.02832.00971c-.74609.25366-1.48144.493-2.18945.723-.60205.19556-1.19531.38843-1.771.58112a26.86932,26.86932,0,0,0-4.42871,1.7984c-.05713.03228-.105.07086-.16162.10363-.45654.26593-.89746.54279-1.30811.84009a15.55844,15.55844,0,0,0-3.72216,3.77411q-.22853.32739-.44141.6651c-3.31738,5.26288-3.85205,12.37134-4.37061,19.314l-.0625.83526c-.62548,8.28235-.89648,16.73517,3.16358,21.11267,1.99414,2.15052,4.95019,3.19586,9.03662,3.19586a63.67945,63.67945,0,0,0,8.0542-.6632,45.01582,45.01582,0,0,1,12.32715-.371c12.51953,1.7622,15.10058.2196,15.57177-.23469a26.25847,26.25847,0,0,0-.75-3.293A18.34437,18.34437,0,0,1,157.25849,78.43435Zm-21.04541-2.22473a5.2696,5.2696,0,0,1-.66015.16857c-.02979.0055-.0586.01246-.08887.0174a4.92127,4.92127,0,0,1-.72119.07373c-.07178.00171-.14356.00281-.21485.00281l-.00146-.00006c-.23975-.00006-.4751-.01184-.707-.032-.18408-.0166-.36328-.043-.542-.07232-.04053-.00647-.08252-.01014-.12256-.01728a7.11027,7.11027,0,0,1-1.25342-.34643,6.53456,6.53456,0,0,1-2.46338-1.641c-3.67871-3.9043-2.98047-12.15259-2.51856-17.61127.08936-1.05652.16651-1.96887.19043-2.64044l.03516-1.05268c.18018-5.68432.40332-12.75933,9.959-12.75933,5.24609,0,5.94433,10.64575,6.00146,15.22271C143.215,64.30611,141.43379,74.484,136.21308,76.20962Z"/><path class="cls-1" d="M529.36787,18.9078c-.09375-5.2497-1.99219-8.826-4.51075-11.06311v.00006q-.36108-.3209-.73828-.60529c-.144-.109-.293-.20538-.43994-.30646-.12988-.08935-.2583-.18164-.39013-.26495-.145-.09161-.29248-.17425-.43946-.25861-.13965-.0802-.27881-.1604-.42041-.23413-.14209-.07428-.28515-.14331-.42871-.21118-.15185-.07171-.30322-.14032-.45557-.205-.13671-.05774-.27246-.11359-.40966-.16571-.166-.06324-.33155-.12061-.49756-.17579-.12549-.04138-.25-.08416-.375-.12109-.19092-.05652-.38086-.10431-.5708-.15039-.10108-.02441-.20215-.053-.30274-.07452-.291-.0625-.58105-.1153-.86718-.15412a47.66791,47.66791,0,0,0-6.08252-.37707c-2.07129-.01306-4.16748.058-6.22852.12787-1.81055.06146-3.68359.12463-5.49756.12909l-.01172.00006q-.51342.00127-1.01953.00671-.46728.00522-.92724.01636l-.084.00152c-4.85449.11823-9.13818.76764-12.4707,4.08918C482.43183,12.66579,482.548,17.987,482.67109,23.62c.021.975.042,1.94269.042,2.89527,0,2.56506.0166,5.11279.03369,7.65051.00147.20307.00244.40521.00391.60816.00146.19958.002.39856.00342.59808.01562,2.47363.02978,4.94128.02539,7.40747q-.00806,3.93888-.042,7.88123c-.04444,6.28326-.08936,12.78112.05566,19.1477.13623,6.01227,1.82764,9.87024,5.48389,12.50958,3.833,2.76734,9.0542,2.60474,14.10254,2.44886,1.14892-.03577,2.33642-.07264,3.48046-.07264,1.19922,0,2.44092.04023,3.64209.0799,5.38184.17267,10.94678.35644,14.8628-2.964,3.14892-2.66895,4.78369-6.50623,4.99853-11.73077.125-3.04834.08252-6.19336.04151-9.235-.021-1.5661-.04151-3.12988-.04151-4.68872.00049-4.13727.02539-8.27625.05078-12.41632.021-3.44342.03418-6.9422.03907-10.45178l.00048.0169v-.077c.00147-1.3924.00635-2.7818.00342-4.17725q-.00074-.29883-.00195-.59741C529.446,25.26388,529.424,22.07418,529.36787,18.9078ZM513.62666,51.79928c.26123,5.04077.53222,10.25354-.72071,14.797a8.32309,8.32309,0,0,1-4.63574,5.52381,7.13581,7.13581,0,0,1-1.01221.3432,6.56,6.56,0,0,1-1.07324.17883q-.24462.01932-.48535.019a5.72282,5.72282,0,0,1-1.0415-.09686c-.01416-.0025-.02735-.00751-.042-.01007a6.21461,6.21461,0,0,1-.96533-.2666,7.1812,7.1812,0,0,1-3.98535-3.96491c-1.46924-3.26342-1.21338-7.54541-.9873-11.32287.07373-1.23645.14355-2.40363.14306-3.41266l-.001-10.2334c0-.80456-.065-1.93652-.13965-3.2467-.12549-2.19422-.26465-4.67945-.22852-7.14014.00293-.20044.00684-.4.0127-.6.11279-4.17743.78418-8.20947,2.98144-10.53595a6.14074,6.14074,0,0,1,4.57666-1.94037,6.33887,6.33887,0,0,1,4.752,2.04877c1.76464,1.89282,2.6206,4.84027,2.97509,8.31561.02.19684.04346.3902.06055.59034A81.82234,81.82234,0,0,1,513.6125,42.947c-.09815,1.39844-.18311,2.60639-.18311,3.34C513.42939,48.00454,513.52461,49.84774,513.62666,51.79928Z"/><path class="cls-1" d="M473.22041,49.84493c.00244-3.58026.00537-6.87274.00537-9.59314V36.29287l-.001-29.327a2.84417,2.84417,0,0,0-.02783-.36877V6.597a1.986,1.986,0,0,0-.07324-.35492l-.00244-.00971a1.291,1.291,0,0,0-.11524-.26532l-.00488-.00836a.92972.92972,0,0,0-.14649-.1908l-.00634-.00592a.86192.86192,0,0,0-.16846-.129l-.00781-.00391a.9518.9518,0,0,0-.18018-.07922l-.00879-.00232a1.23794,1.23794,0,0,0-.18213-.04181l-.002-.00025a2.60053,2.60053,0,0,0-.34277-.02087q-1.72193-.01044-3.5293-.01489c-1.21484-.003-2.46045-.00415-3.74316-.00318-2.55665.0019-5.25684.01166-8.1377.02924a3.69423,3.69423,0,0,0-1.083.19672,11.24993,11.24993,0,0,0,.52735,1.927c.793,1.96051.99853,11.26141.90869,12.44421-.02881.38-.022.79785-.01416,1.23981.00488.28772.00976.576.00634.86322a5.18151,5.18151,0,0,1-.12353,1.09845,2.82924,2.82924,0,0,1-3.28809,2.27228,4.11015,4.11015,0,0,1-2.812-1.72144c-1.3667-1.82141-2.56933-5.28711-3.84277-8.95618-1.03174-2.97345-2.20166-6.34362-3.15186-7.6538a3.98506,3.98506,0,0,0-1.53369-1.3158l-.00635-.0025a3.795,3.795,0,0,0-.45019-.17847c-.01807-.00586-.03809-.009-.05615-.01465a4.34026,4.34026,0,0,0-.439-.11365c-.05664-.01123-.11865-.01611-.17724-.02551-.11817-.0191-.23536-.0401-.36036-.05157q-.27978-.026-.58349-.0271c-2.26856-.00922-4.55762-.012-6.83692-.01148-1.13964.00025-2.25976.0022-3.3916.00348-1.13135.00134-2.2749.002-3.39111.00354l-1.61768.00281a2.39963,2.39963,0,0,0-.46728.04132l.00732.06628.001.00751c.00293.02832.00635.05426.00928.08234a16.64277,16.64277,0,0,0,.33545,2.23181,58.27812,58.27812,0,0,1,1.94677,14.24109c.00049,6.05841.0083,13.41571.02051,21.1355.00049.19928.00049.40008.001.59991.0205,12.73364.05273,26.38275.08154,36.77985a15.794,15.794,0,0,0,.14258,2.19409c.166,1.1839.72265,1.47052,1.50781,1.53705,1.11035.09326,2.23779.08935,3.43457.08264.34912-.00165.69922-.0022,1.04492-.0022,3.61133.00891,7.34571.019,11.01612-.0039a1.48348,1.48348,0,0,0,.72412-.13355,2.033,2.033,0,0,0-.10987-.64307c-1.91992-6.12579-2.56494-23.75488-2.63183-25.745l-.02979-.88391c-.17431-5.14185-.17431-5.14185-.23681-10.05963l-.01563-1.227c-.00244-.1156-.00146-.22681.00488-.338a3.65025,3.65025,0,0,1,1.88086-3.03045,3.57688,3.57688,0,0,1,3.49707.07263,7.087,7.087,0,0,1,1.48389,1.1828c2.92822,2.96509,4.97266,8.13379,6.46484,11.90845l.34913.88055a41.86753,41.86753,0,0,1,2.80664,11.75983,26.501,26.501,0,0,1-.23975,7.81415c-.63867,3.0802-1.21875,5.59887-1.82568,7.92761a.89958.89958,0,0,0-.03955.37713c0-.0039.00341-.00561.01025-.00561.0249,0,.09766.0246.20605.03131,1.18213.07153,2.41309.1095,3.65772.1134l2.44287.01117c2.88379.01508,5.86719.03022,8.78516-.03631,1.72558-.03968,2.16894-.481,2.1582-2.1471C473.20136,74.08138,473.21211,60.64321,473.22041,49.84493Z"/><path class="cls-1" d="M609.18769,9.53481a6.45639,6.45639,0,0,0-.79248-2.47607l-.00049-.00037a3.40431,3.40431,0,0,0-.40332-.53534c-.00928-.01056-.01709-.02277-.02685-.03314a2.78886,2.78886,0,0,0-.46192-.38471c-.02978-.02038-.0542-.04644-.085-.06567a2.63889,2.63889,0,0,0-.52685-.23645c-.04932-.01721-.08985-.04468-.14161-.05933a3.09042,3.09042,0,0,0-.79785-.11438c-1.49023-.02264-2.99511-.03112-4.49511-.03253-1-.00091-1.98731.00342-2.977.00678-.49512.00165-.99854.00146-1.48877.00342h-.00831l-2.50341.00836a.835.835,0,0,0-.46778.08941,1.6687,1.6687,0,0,0-.19677.92719v.00293c-.001.04065-.00537.07043-.00537.11413a9.65581,9.65581,0,0,0,.28076,1.83759c.082.37939.16259.75934.227,1.13922.144.8526.30957,1.703.47558,2.55335a49.76116,49.76116,0,0,1,.9126,5.99835,73.10689,73.10689,0,0,1,.02588,9.73211c-.0127.198-.02148.39551-.03564.59375a82.87918,82.87918,0,0,1-3.26758,17.7082c-1.39014,4.69152-3.04981,9.32385-4.65576,13.80358-.65674,1.83313-1.31348,3.66571-1.95362,5.50556a4.50866,4.50866,0,0,1-2.123,2.78467,2.86346,2.86346,0,0,1-2.26172.04577,5.50278,5.50278,0,0,1-2.9253-3.11706,10.30729,10.30729,0,0,1-.32714-4.13611,17.14494,17.14494,0,0,1,.77929-3.52661c.27783-.92578.57715-1.83148.86719-2.707.45264-1.36719.87988-2.65839,1.22217-3.98871a122.89117,122.89117,0,0,0,3.69043-23.34717c.01172-.19757.02783-.39606.03808-.59351.00293-.05377.00782-.10791.01075-.16168.03222-.61487.05224-1.23486.07031-1.85565a91.59054,91.59054,0,0,0-1.14844-17.01495,5.08524,5.08524,0,0,0-.39941-1.425l-.0044-.00922a1.33148,1.33148,0,0,0-.75049-.73254c-.021-.00769-.0415-.01581-.0625-.02258a1.75575,1.75575,0,0,0-.186-.04755c-.04-.00806-.082-.01422-.124-.02026-.05274-.00721-.10547-.016-.16114-.02082-.09912-.009-.20166-.01526-.30957-.01947-1.04736-.04052-2.10888-.06146-3.16846-.07257s-2.11718-.01239-3.15722-.01349L572.92255,5.612c-.76269-.00336-1.53808-.00732-2.31347-.00226s-1.55029.01929-2.31348.05255v.00006c-.0039.056-.0039.1402-.00488.21857-.00049.03961-.00342.0647-.00244.11047a6.8194,6.8194,0,0,0,.20556,1.318,66.85437,66.85437,0,0,1,1.77832,14.28076q.03663,2.436-.0581,4.87884c-.00733.199-.02051.39838-.0293.59748a107.806,107.806,0,0,1-7.20752,33.41968,3.15757,3.15757,0,0,1-3.22558,2.49206c-1.55127,0-1.95362-2.55463-2.05274-2.94964-.27881-1.11573-.57422-2.22925-.86914-3.34278-.69531-2.62262-1.41357-5.33459-1.92724-8.09411a89.25,89.25,0,0,1-1.50147-21.27179c.01074-.19965.02393-.39875.03613-.598a76.72314,76.72314,0,0,1,2.15088-13.9309c.19141-.76209.40283-1.51862.61524-2.274.34082-1.21405.66259-2.36109.896-3.53052.01123-.056.00879-.1012.01465-.15332V6.83162a1.3781,1.3781,0,0,0,.0044-.322l-.00147-.00927a.85007.85007,0,0,0-.06738-.25232.58475.58475,0,0,0-.03516-.05341.6566.6566,0,0,0-.11084-.15271.73747.73747,0,0,0-.23291-.14831,3.30313,3.30313,0,0,0-1.17969-.2464l-.02441-.00019c-2.09814-.01782-4.23535-.03558-6.38184-.03558-1.72119,0-3.44921.01178-5.168.04358-.12891.00244-.24805.00531-.36377.00909l-.07862.003a3.754,3.754,0,0,0-.63574.06922l-.05273.01208a1.38178,1.38178,0,0,0-.49854.22577l-.03809.02863a1.71546,1.71546,0,0,0-.40673.49127c-.00977.01685-.02.03381-.02979.05139a8.2693,8.2693,0,0,0-.67529,2.01715,87.72163,87.72163,0,0,0-2.356,19.04914c-.00342.1994-.0039.39941-.00586.59918a102.6531,102.6531,0,0,0,1.523,18.19617,214.54548,214.54548,0,0,0,6.98731,27.99438,12.939,12.939,0,0,1-.146,9.08472c-.334.81128-.24365,1.24426-.18555,1.332a.77171.77171,0,0,0,.48975.11c5.36182.057,10.8335.05481,16.728-.00836.70654-.00726,1.74511-.22742,2.61181-2.04376a21.743,21.743,0,0,1,1.918-3.335,4.21111,4.21111,0,0,1,3.42481-2.07343h.02392a4.21586,4.21586,0,0,1,3.4292,2.13434,34.56854,34.56854,0,0,1,2.15234,3.70819c.74952,1.42133,1.542,1.61408,2.21973,1.61634,7.5835.0274,13.39258.03295,18.83545.01733a1.21673,1.21673,0,0,0,.13086-.57214,6.11069,6.11069,0,0,0-.13232-1.63929,20.10725,20.10725,0,0,1,.29785-10.644c1.38672-4.69488,2.86181-9.43164,4.2876-14.01312q.7954-2.55441,1.5874-5.11054a111.32162,111.32162,0,0,0,4.59375-22.37292c.01806-.19653.03125-.39191.04883-.5882A92.378,92.378,0,0,0,609.18769,9.53481Z"/><path class="cls-1" d="M401.635,34.44674a30.85588,30.85588,0,0,0,.37011-4.592c.03955-1.54267.043-6.35877.04444-8.41541l.00049-.61566c.00146-1.22138.00244-2.44275.019-3.663.01514-1.05652.0498-2.113.08545-3.16956.0542-1.627.10791-3.25452.08008-4.80829a2.56456,2.56456,0,0,0-.80762-1.9776l-.0166-.0166a3.3133,3.3133,0,0,0-.3003-.24292c-.01611-.0116-.02978-.02405-.04589-.03552a4.64345,4.64345,0,0,0-.395-.24683l-.0083-.00537c-.98487-.5498-4.49463-.85706-5.81592-.97272l-.66944-.05981c-.186-.01843-.36377-.02515-.54-.02515a10.26459,10.26459,0,0,0-3.89258.95545,13.34689,13.34689,0,0,1-4.83155,1.0393,11.686,11.686,0,0,1-1.18115-.03937A11.773,11.773,0,0,1,380.28,6.7228a4.937,4.937,0,0,0-.60254-.199,9.36275,9.36275,0,0,0-2.37549-.24517h-.17871c-1.96631.01623-3.94873.02014-5.93213.02014l-3.896-.00367-3.89648-.0036c-.02734-.00018-.05567.0019-.0835.00183-.05566-.00006-.11133-.00146-.167.00373a13.29891,13.29891,0,0,0,.26367,1.82586,41.74132,41.74132,0,0,1,1.0708,10.15522c-.123,6.05981-.17968,12.1839-.23535,18.10626l-.03418,3.49866h.00244l.01221,2.02478c-.00049.07452-.022,2.0047-.05518,4.938-.002.19611-.00439.39722-.00683.60206-.09912,8.83752-.28955,25.56237-.35352,29.811a20.71129,20.71129,0,0,0,.583,6.157c.40576,1.39618.67969,1.60627,2.09229,1.60681h6.83984q4.2671,0,8.53711-.00781a5.83477,5.83477,0,0,0,1.03564-.08325l-.0122-.281a11.41018,11.41018,0,0,0-.148-1.71191,74.03766,74.03766,0,0,1-1.355-16.55585c.05127-4.55963.09082-11.83386.125-18.83954.00146-.20043.002-.40118.00341-.601.0044-.99035.00928-1.97394.01417-2.94153.0205-4.20825.03906-8.09185.0581-10.9212l.06885-9.99988c0-.22009.00488-.45587.02734-.6911A5.39415,5.39415,0,0,1,386.924,17.587l.39844.01672c4.0039.33136,4.41211,8.93048,4.41211,9.01654l-.00049,2.20355c-.002,1.094-.00342,2.18854.00439,3.28137a6.35817,6.35817,0,0,0,.55225,2.77234c.80273,1.64991,1.51611,1.64991,1.82129,1.64991a2.707,2.707,0,0,0,.42138-.03577c.44727-.07208,1.12891-.14362,1.91846-.22632a33.0206,33.0206,0,0,0,4.04785-.57379A1.43467,1.43467,0,0,0,401.635,34.44674Z"/><path class="cls-1" d="M409.6208,72.92592l-.001-.001a6.03909,6.03909,0,0,0-.97852-.68164,7.27872,7.27872,0,0,0-2.36279-.81726,7.92715,7.92715,0,0,0-1.30224-.10743c-.23291,0-.46534.01215-.69727.03162-.06543.00555-.13037.01495-.1958.02209-.17041.0185-.34033.04114-.50928.07044-.06689.01172-.1333.02515-.20019.03863q-.263.05274-.52.12354c-.05078.014-.10157.02722-.15186.04224-.21631.06427-.42871.13708-.63672.22094l-.00879.00324a6.20593,6.20593,0,0,0-1.85839,1.15924l-.00977.0086a5.63821,5.63821,0,0,0-.5083.53l-.001.00135v-.00007a6.21838,6.21838,0,0,0-1.38281,4.117c0,4.39764,3.35693,6.366,6.68408,6.366a7.18351,7.18351,0,0,0,4.64112-1.60516,6.65739,6.65739,0,0,0-.00049-9.52222Z"/><path d="M396.86982,45.23226a29.41842,29.41842,0,0,0,4.83887-.7392,5.41889,5.41889,0,0,0,3.86621-4.34289v-.00159a34.28834,34.28834,0,0,0,.43408-5.20837c.04053-1.5918.04395-6.44257.0459-8.51374l.00049-.61566c.00049-1.204.002-2.40814.01855-3.61041.01416-1.02972.04883-2.06055.085-3.14618.0542-1.62415.10987-3.3042.0791-4.96185-.00439-.25452-.03027-.49939-.0581-.74329.04492-1.39935.084-2.82513.05859-4.2406A6.66766,6.66766,0,0,0,402.611,3.15987c-1.59863-.89172-4.54-1.2124-7.417-1.46387l-.63477-.05694c-.29931-.02905-.60156-.04358-.92382-.04358a13.89557,13.89557,0,0,0-5.40577,1.25262,8.2125,8.2125,0,0,1-6.44531.16315,11.54176,11.54176,0,0,0-4.48242-.73749h-.19483q-2.959.02427-5.91406.02008l-7.79248-.00726a6.396,6.396,0,0,0-.66211.02686,3.822,3.822,0,0,0-3.62646,3.659c.064,1.14875,1.21386,12.51557,1.32275,14.70166-.09228,5.26551-.144,10.54419-.19189,15.67231l-.0542,5.51953.01367,1.87506c-.00879.77942-.01953,1.77905-.03272,2.93377-.00244.19422-.00439.3949-.00683.598-.09912,8.79895-.2915,25.66143-.35547,29.92633-.0127.88263.00147,1.70843.03369,2.51422-.01318,1.02838-.02441,1.87494-.03369,2.46954a24.25725,24.25725,0,0,0,.74268,7.337c.9038,3.10479,2.73437,4.48987,5.93652,4.49151h6.84082q4.27221,0,8.54541-.00775a9.49506,9.49506,0,0,0,1.93164-.18493,3.57049,3.57049,0,0,0,3.10059-4.00385l-.01709-.36591c-.03223-.77716.0498-3.88067.0166-4.61785l-.01612-.366a14.11117,14.11117,0,0,0-.23144-2.35944,63.63677,63.63677,0,0,1-1.25147-12.23248c.04444-4.60394.07911-11.14832.11036-17.46338.00048-.20019.00195-.4.00244-.59967.00537-.94434.00976-1.88269.01367-2.806.021-4.20538.03955-8.08679.05811-10.91333l.06933-10.01324c0-.11-.00049-.22077.00879-.3274a1.43729,1.43729,0,0,1,.896-1.10467,14.93756,14.93756,0,0,1,1.16552,4.96087l-.00048,2.19574c-.00147,1.10511-.00342,2.21137.00439,3.31543a10.23814,10.23814,0,0,0,.95508,4.496c.86719,1.78063,2.51123,3.90264,5.42724,3.90264a6.624,6.624,0,0,0,1.05225-.0866C395.50654,45.37526,396.16865,45.30605,396.86982,45.23226ZM394.112,36.52743c-.30518,0-1.01856,0-1.82129-1.64991a6.35817,6.35817,0,0,1-.55225-2.77234c-.00781-1.09283-.00635-2.18737-.00439-3.28137l.00049-2.20355c0-.08606-.40821-8.68518-4.41211-9.01654L386.924,17.587a5.39415,5.39415,0,0,0-5.24219,4.80157c-.02246.23523-.02734.471-.02734.6911l-.06885,9.99988c-.019,2.82935-.0376,6.713-.0581,10.9212-.00489.96759-.00977,1.95118-.01417,2.94153-.00146.19983-.002.40058-.00341.601-.03418,7.00568-.07373,14.27991-.125,18.83954a74.03766,74.03766,0,0,0,1.355,16.55585,11.41018,11.41018,0,0,1,.148,1.71191l.0122.281a5.83477,5.83477,0,0,1-1.03564.08325q-4.26928.01008-8.53711.00781H366.4875c-1.4126-.00054-1.68653-.21063-2.09229-1.60681a20.71129,20.71129,0,0,1-.583-6.157c.064-4.2486.2544-20.97345.35352-29.811.00244-.20484.00488-.40595.00683-.60206.03321-2.93328.05469-4.86346.05518-4.938l-.01221-2.02478h-.00244l.03418-3.49866c.05567-5.92236.11231-12.04645.23535-18.10626a41.74132,41.74132,0,0,0-1.0708-10.15522,13.29891,13.29891,0,0,1-.26367-1.82586c.05566-.00519.11133-.00379.167-.00373.02783.00007.05616-.002.0835-.00183l3.89648.0036,3.896.00367c1.9834,0,3.96582-.00391,5.93213-.02014h.17871a9.36275,9.36275,0,0,1,2.37549.24517,4.937,4.937,0,0,1,.60254.199,11.773,11.773,0,0,0,3.45019.83288,11.686,11.686,0,0,0,1.18115.03937,13.34689,13.34689,0,0,0,4.83155-1.0393,10.26459,10.26459,0,0,1,3.89258-.95545c.17626,0,.354.00672.54.02515l.66944.05981c1.32129.11566,4.83105.42292,5.81592.97272l.0083.00537a4.64345,4.64345,0,0,1,.395.24683c.01611.01147.02978.02392.04589.03552a3.3133,3.3133,0,0,1,.3003.24292l.0166.0166a2.56456,2.56456,0,0,1,.80762,1.9776c.02783,1.55377-.02588,3.18128-.08008,4.80829-.03565,1.05652-.07031,2.113-.08545,3.16956-.0166,1.22021-.01758,2.44158-.019,3.663l-.00049.61566c-.00147,2.05664-.00489,6.87274-.04444,8.41541a30.85588,30.85588,0,0,1-.37011,4.592,1.43467,1.43467,0,0,1-1.13526,1.24481,33.0206,33.0206,0,0,1-4.04785.57379c-.78955.0827-1.47119.15424-1.91846.22632A2.707,2.707,0,0,1,394.112,36.52743Z"/><path d="M513.1457,93.84151c4.80176,0,9.78613-.58209,13.80957-3.99255,4.04932-3.43335,6.14648-8.21594,6.40918-14.62152.103-2.49707.09668-5.01923.06885-7.49695.03711-2.331.00683-4.66425-.02393-6.94037-.01367-1.02924-.01953-2.05536-.02734-3.08209q.01319-4.4795.03711-8.96033c.03027-4.96051.05566-10.02484.042-15.098l-.00293-.59882v-.02813c.00146-1.45215.00635-2.90107.00244-4.35694q-.00074-.29937-.00195-.59869c-.01074-3.082-.03223-6.16534-.0874-9.2309-.17237-9.711-5.79-16.73236-14.312-17.8872A77.85024,77.85024,0,0,0,506.0749.66579c-1.86133.06311-3.62061.12232-5.37207.12677-6.35547.01569-12.46338.43134-17.33008,5.28156-4.97705,4.96045-4.83545,11.68225-4.70654,17.61554-.06739,1.69146-.03467,3.37622.001,5.00134.02051.94531.04053,1.88452.04053,2.808,0,2.574.0166,5.13013.03418,7.67731.00342.40613.0044.81073.00732,1.21631q.00147.29947.00391.59827c.00733,1.22259.00733,2.44214.01123,3.66284q-.01172,2.98873-.03174,5.97894c-.02588,3.73108-.04736,7.53821-.03466,11.35407-.01563,4.283-.00586,8.61035.09179,12.89648.16553,7.289,2.43555,12.26654,7.14307,15.66577,4.938,3.56519,11.11523,3.373,16.5708,3.20429,2.39746-.07379,4.48-.071,6.86768.00726C510.60224,93.80074,511.86787,93.84151,513.1457,93.84151Zm-7.28565-9.14734c-1.144,0-2.33154.03687-3.48046.07264-5.04834.15588-10.26954.31848-14.10254-2.44886-3.65625-2.63934-5.34766-6.49731-5.48389-12.50958-.145-6.36658-.1001-12.86444-.05566-19.1477q.02783-3.94236.042-7.88123c.00439-2.46619-.00977-4.93384-.02539-7.40747-.00147-.19952-.002-.3985-.00342-.59808-.00147-.203-.00244-.40509-.00391-.60816-.01709-2.53772-.03369-5.08545-.03369-7.65051,0-.95258-.021-1.92029-.042-2.89527-.123-5.63293-.23926-10.95416,3.52881-14.70867,3.33252-3.32154,7.61621-3.97095,12.4707-4.08918l.084-.00152q.46068-.01062.92724-.01636.5061-.00577,1.01953-.00671l.01172-.00006c1.814-.00446,3.687-.06763,5.49756-.12909,2.061-.06983,4.15723-.14093,6.22852-.12787a47.66791,47.66791,0,0,1,6.08252.37707c.28613.03882.57617.09162.86718.15412.10059.02154.20166.05011.30274.07452.18994.04608.37988.09387.5708.15039.125.03693.24951.07971.375.12109.166.05518.33154.11255.49756.17579.1372.05212.273.108.40966.16571.15235.06463.30372.13324.45557.205.14356.06787.28662.1369.42871.21118.1416.07373.28076.15393.42041.23413.147.08436.29444.167.43946.25861.13183.08331.26025.1756.39013.26495.147.10108.2959.19751.43994.30646q.37647.28464.73828.60529V7.84469c2.51856,2.23712,4.417,5.81341,4.51075,11.06311.05615,3.16638.07812,6.35608.0874,9.54492q.00073.29874.00195.59741c.00293,1.39545-.00195,2.78485-.00342,4.17725v.077l-.00048-.0169c-.00489,3.50958-.01807,7.00836-.03907,10.45178-.02539,4.14007-.05029,8.279-.05078,12.41632,0,1.55884.02051,3.12262.04151,4.68872.041,3.04163.08349,6.18665-.04151,9.235-.21484,5.22454-1.84961,9.06182-4.99853,11.73077-3.916,3.32043-9.481,3.13666-14.8628,2.964C508.301,84.7344,507.05927,84.69417,505.86005,84.69417Z"/><path d="M512.906,66.59627c1.25293-4.54345.98194-9.75622.72071-14.797-.102-1.95154-.19727-3.79474-.19727-5.51227,0-.73358.085-1.94153.18311-3.34a81.82234,81.82234,0,0,0,.19775-12.10174c-.01709-.20014-.04053-.3935-.06055-.59034-.35449-3.47534-1.21045-6.42279-2.97509-8.31561a6.33887,6.33887,0,0,0-4.752-2.04877A6.14074,6.14074,0,0,0,501.446,21.831c-2.19726,2.32648-2.86865,6.35852-2.98144,10.536-.00586.20008-.00977.3996-.0127.6-.03613,2.46069.103,4.94592.22852,7.14014.0747,1.31018.13965,2.44214.13965,3.2467l.001,10.2334c.00049,1.009-.06933,2.17621-.14306,3.41266-.22608,3.77746-.48194,8.05945.9873,11.32287a7.1812,7.1812,0,0,0,3.98535,3.96491,6.21461,6.21461,0,0,0,.96533.2666c.01465.00256.02784.00757.042.01007a5.72282,5.72282,0,0,0,1.0415.09686q.241,0,.48535-.019a6.56,6.56,0,0,0,1.07324-.17883,7.13581,7.13581,0,0,0,1.01221-.3432A8.32309,8.32309,0,0,0,512.906,66.59627ZM509.50117,49.3854c-.04541.73681-.07666,1.37536-.07666,1.88543,0,1.82148.09863,3.71491.20263,5.71961.05811,1.1225.11573,2.25378.15674,3.37933a23.97328,23.97328,0,0,1-.73877,5.16162v.00055a3.953,3.953,0,0,1-3.168,3.11762,2.74867,2.74867,0,0,1-2.56-1.97058,9.89073,9.89073,0,0,1-.71778-3.113c.02393-.4527.0503-.90234.07666-1.34375.07764-1.29791.15088-2.52374.1499-3.653l-.00048-4.95984.00048-.02393-.001-10.2323c0-.91852-.06738-2.103-.14649-3.47467-.0542-.94629-.11718-2.069-.16113-3.26971.14453-2.99042.62158-5.75391,1.83984-7.04407a2.11775,2.11775,0,0,1,1.665-.68555,2.31009,2.31009,0,0,1,1.82373.7749c1.10889,1.19056,1.67188,3.476,1.92676,6.1048q.02784.29307.05225.59131c.03369.43066.05713.871.07666,1.31348-.06738,1.89483-.189,3.653-.28369,5.00226-.10791,1.53479-.19336,2.74664-.19336,3.621C509.42451,47.29329,509.45673,48.32851,509.50117,49.3854Z"/><path d="M131.90156,76.004a7.11027,7.11027,0,0,0,1.25342.34643c.04.00714.082.01081.12256.01728.17871.02929.35791.05572.542.07232.23193.02021.46728.032.707.032l.00146.00006c.07129,0,.14307-.0011.21485-.00281h0a4.92127,4.92127,0,0,0,.72119-.07373c.03027-.00494.05908-.0119.08887-.0174a5.2696,5.2696,0,0,0,.66015-.16857c5.22071-1.72565,7.002-11.90351,6.89258-20.68763-.05713-4.577-.75537-15.22271-6.00146-15.22271-9.55567,0-9.77881,7.075-9.959,12.75933l-.03516,1.05268c-.02392.67157-.10107,1.58392-.19043,2.64044-.46191,5.45868-1.16015,13.707,2.51856,17.61127A6.53456,6.53456,0,0,0,131.90156,76.004Zm-.9917-13.93042c.09375-1.10846.17529-2.06555.20312-2.83325l.03467-1.071c.19873-6.26037.49317-8.83435,5.8086-8.88074.97949.79084,1.8667,4.7461,2.10058,9.63666a39.16566,39.16566,0,0,1-1.2876,8.60028c-1.01611,3.61041-2.28125,4.91889-3.126,4.94013a2.82787,2.82787,0,0,1-2.29-.8487c-1.07715-1.143-1.55371-3.28064-1.7207-5.67138C130.70527,64.51357,130.81757,63.16854,130.90986,62.07357Z"/><path d="M110.68086,90.13106c2.75537,2.97126,6.78369,4.4776,11.97314,4.4776a66.66726,66.66726,0,0,0,8.55518-.69507,41.24071,41.24071,0,0,1,11.26806-.37823c12.14893,1.71082,18.28223.885,19.88037-2.67737.44678-.99695.19922-7.75781-.63379-10.84363-.18994-.704-.45068-1.66772-.47851-1.96331-.05127-.53193-.08252-1.07477-.10694-1.62091.00733-.27332.01368-.54841.02149-.82.03564-1.21576.0708-2.47229.07178-3.70374q.00145-2.42092-.002-4.84186c0-.04711.00147-.0949.00147-.142q.00219-3.333-.002-6.666l-.002-3.93445.001-16.07361c0-.453.00781-.9237.01953-1.40289.00488-.19787.01074-.39978.01758-.60168.03027-.96826.07471-1.9765.12256-3.02436.124-2.7066.25146-5.611.14209-8.49212.25341-8.27533-.31787-17.44379-7.97657-21.98975-8.43847-5.00891-30-6.75152-38.93408-1.7337-3.64062,2.04486-4.09179,2.769-4.39453,7.04089-.09228,1.30267-.35937,16.88172,2.97949,18.24884,1.689.69,3.917-.31512,9.84522-3.37182,2.271-1.1706,5.38037-2.77344,6.38574-2.92939,4.2373-.65741,6.01416-.27758,6.92334,1.78614-1.45459,2.53588-5.4751,4.05731-10.876,5.81231a39.82356,39.82356,0,0,0-6.93359,2.702,19.80479,19.80479,0,0,0-8.29395,8.95727c-.10205.21308-.2041.42633-.30078.64252-2.48144,5.58063-2.97509,12.17413-3.43164,18.2851l-.0625.83191a89.45735,89.45735,0,0,0-.31689,10.40057C105.88447,78.71871,106.54121,85.667,110.68086,90.13106Zm-.22706-28.81964.0625-.83526c.51856-6.94263,1.05323-14.05109,4.37061-19.314q.2124-.33792.44141-.6651a15.55844,15.55844,0,0,1,3.72216-3.77411c.41065-.2973.85157-.57416,1.30811-.84009.05664-.03277.10449-.07135.16162-.10363a26.86932,26.86932,0,0,1,4.42871-1.7984c.57569-.19269,1.16895-.38556,1.771-.58112.708-.23,1.44336-.4693,2.18945-.723l.02832-.00971a36.03377,36.03377,0,0,0,6.63623-2.86547c3.74268-2.21,6.35645-5.42518,5.09912-10.66254-1.28467-5.34912-4.98535-6.43915-8.20556-6.43915a23.559,23.559,0,0,0-3.646.35089c-1.5376.23853-3.89941,1.41632-7.60693,3.3277a57.27545,57.27545,0,0,1-6.46826,3.03546c-.51172-1.19617-.83741-4.69824-.52686-9.08636a12.97129,12.97129,0,0,1,.29346-2.40119.67085.67085,0,0,1,.05175-.11889l.00245-.00476a2.62241,2.62241,0,0,1,.71533-.55555c.36377-.22619.82422-.485,1.29834-.75128a16.77016,16.77016,0,0,1,4.39258-1.5896c.68066-.15716,1.39453-.29315,2.13525-.40863a45.55527,45.55527,0,0,1,5.96289-.49548q.627-.01374,1.2627-.01373c1.69336-.00019,3.42041.07183,5.13281.20953.856.06885,1.708.15417,2.55078.25506.84228.1009,1.6748.21747,2.49121.34882q.6123.0985,1.21191.20807c.79883.146,1.57911.3064,2.3335.48047.75488.174,1.48438.36169,2.18262.56219a23.02507,23.02507,0,0,1,5.272,2.129,9.37144,9.37144,0,0,1,1.01074.69623,10.07735,10.07735,0,0,1,.855.74371l.002.00189V9.62331c4.72216,4.53247,4.35351,12.92285,4.01074,20.42914-.061,1.33014-.11865,2.6051-.14649,3.82538-.00439.20282-.00634.4013-.00927.60089-.00342.26318-.0083.52844-.0083.786l-.00147,20.38074.00244,4.61389q.0022,3.33051.002,6.661c-.00049,1.17554-.03565,2.40356-.06983,3.59082a64.04053,64.04053,0,0,0,.102,7.92316,18.34437,18.34437,0,0,0,.59863,2.62372,26.25847,26.25847,0,0,1,.75,3.293c-.47119.45429-3.05224,1.99689-15.57177.23469a45.01582,45.01582,0,0,0-12.32715.371,63.67945,63.67945,0,0,1-8.0542.6632c-4.08643,0-7.04248-1.04534-9.03662-3.19586C109.55732,78.04659,109.82832,69.59377,110.4538,61.31142Z"/><path d="M9.7624,93.651l19.20654.00055q1.793,0,3.58545.00055,4.10157,0,8.20215-.0061a12.10845,12.10845,0,0,0,2.00537-.14753c2.8833-.4967,4.17041-3.94281,5.20508-6.71185.12646-.34137.24756-.6643.3623-.95654a16.97809,16.97809,0,0,0,1.00879-4.22278c.12891-1.09058.24024-1.92139.33789-2.651.22657-1.69574.39112-2.92047.53858-5.54083.11279-2.00489.12207-4.03528.0415-6.0644a63.888,63.888,0,0,0-.15967-7.71807,28.4109,28.4109,0,0,0-3.72949-11.62067V48.0118c-.07715-.13824-.1626-.26471-.24121-.40027-.11719-.20056-.23633-.39721-.35742-.59216A30.1755,30.1755,0,0,0,41.09,41.30221c4.19335-1.03589,6.98828-5.10028,7.63037-8.83826a53.22735,53.22735,0,0,0,.57031-7.60626l.00342-.11231c.04785-1.81677.05859-3.00726-.02344-4.20117.00635-.22308.01416-.44861.02-.67041l.00342-.1123a31.28194,31.28194,0,0,0-.54834-8.07789C47.79121,6.29427,44.81953.57076,39.33759.57076c-.04248,0-.08545,0-.12841.00055C34.15839.65236,29.01093.63949,24.03339.62612Q19.76484.61431,15.49629.6205a22.85811,22.85811,0,0,0-4.11817.33185C6.80537,1.79494,3.76728,7.56478,2.945,9.31356a14.55606,14.55606,0,0,0-1.66651,6.84759,61.48667,61.48667,0,0,0-.05176,6.29871,60.7661,60.7661,0,0,0,.32959,9.39288,25.88651,25.88651,0,0,0,2.52539,9.19757,40.5079,40.5079,0,0,0,3.15381,4.97754q1.51978,2.064,3.09717,3.98523c.18164.22229.36182.44763.54443.66687.01514.01782.03028.03467.04493.05249-.15137-.008-.293-.02954-.44873-.0321a8.43446,8.43446,0,0,0-6.88721,3.01422A15.40753,15.40753,0,0,0,.31709,61.631c-.57032,3.61585-.4209,17.478.856,22.46991C2.301,88.50582,5.22675,93.65041,9.7624,93.651ZM4.27265,62.25509a11.65234,11.65234,0,0,1,2.36328-5.94532,4.44,4.44,0,0,1,3.77-1.60516,7.92035,7.92035,0,0,1,.80616.05194,5.78386,5.78386,0,0,1,.71972.13013,4.38058,4.38058,0,0,1,1.23.50683,3.726,3.726,0,0,1,.64405.499,4.19043,4.19043,0,0,1,.51806.59045l.00147.002v-.00007a5.6778,5.6778,0,0,1,.97656,2.25977c.21875,1.0387.39307,2.07959.57715,3.18188.17627,1.05488.3584,2.14551.583,3.22718a10.7279,10.7279,0,0,0,2.93994,6.00671A7.75789,7.75789,0,0,0,21.59882,72.596a5.50515,5.50515,0,0,0,4.06592.16961,6.28947,6.28947,0,0,0,.78516-.32623,6.90412,6.90412,0,0,0,3.60937-5.85705,13.784,13.784,0,0,0-3.84814-11.10663c-1.22412-1.27057-2.51953-2.4422-3.77246-3.57526-.751-.67828-1.52686-1.38055-2.26367-2.08343-1.14063-1.08741-2.269-2.24237-3.38428-3.45118-.20166-.21875-.40332-.43829-.604-.66082-1.96142-2.173-3.877-4.52277-5.72509-7.03437a36.36953,36.36953,0,0,1-2.8418-4.48034,22.2014,22.2014,0,0,1-2.08545-7.78009,57.00868,57.00868,0,0,1-.25879-10.00263,10.91361,10.91361,0,0,1,1.293-5.39A15.40391,15.40391,0,0,1,10.176,5.95138l.00782-.00623a6.68677,6.68677,0,0,1,.64208-.48865c.05372-.03558.10547-.05816.1587-.09082a4.46035,4.46035,0,0,1,.48437-.26861,2.82363,2.82363,0,0,1,.62891-.2038l.00586-.00195a16.698,16.698,0,0,1,2.4331-.24744c.30811-.01129.63135-.01739.97217-.01849,2.8374-.00836,5.67627-.00171,8.51367.00555q1.87427.005,3.77539.00861,1.89918.00274,3.81543-.00037c2.55176-.00519,5.11573-.02222,7.66065-.063l.05322-.00055a3.13812,3.13812,0,0,1,.49853.04334c.05323.00854.10547.02142.15821.03259a3.18625,3.18625,0,0,1,.32031.08515c.05908.0191.11768.03863.17578.06109.09863.03851.19531.08344.291.13129.05371.02685.10937.05017.16211.08a3.98492,3.98492,0,0,1,.38037.24482c.07422.05328.145.1137.21679.17248.05616.04633.1128.09223.16749.14172q.11571.10392.22753.21705c.04248.04315.084.08807.126.13311.0791.08545.1582.171.23438.26294l.001.00092V6.182a14.0462,14.0462,0,0,1,2.51563,6.2,27.58055,27.58055,0,0,1,.48779,7.27283l-.00293.11224a50.38181,50.38181,0,0,1-.51367,7.03479c-.42969,2.50079-2.37451,5.35638-5.1333,5.72351a2.49168,2.49168,0,0,1-2.21387-.90851,12.311,12.311,0,0,1-3.41211-6.91852,12.40309,12.40309,0,0,0-1.9126-5.20221A5.50409,5.50409,0,0,0,27.238,17.08748a4.24041,4.24041,0,0,0-3.92138,3.19806,10.64784,10.64784,0,0,0-.30615,4.85132l.01318.13526a13.67734,13.67734,0,0,0,4.94385,9.53668c1.39062,1.14929,2.57959,2.2846,3.83789,3.48639,1.19531,1.142,2.43115,2.32257,3.85156,3.51263a36.02482,36.02482,0,0,1,5.22656,5.21393c.15625.19818.314.3941.46582.59924a21.679,21.679,0,0,1,1.51905,2.34015,24.50434,24.50434,0,0,1,3.23632,10.00208A59.69034,59.69034,0,0,1,46.216,68.2065c-.13965,2.46674-.28662,3.56793-.50928,5.23517-.09961.7453-.21386,1.59454-.34619,2.70862a13.00749,13.00749,0,0,1-.75488,3.22211c-.124.31457-.25391.66211-.39111,1.02917-.394,1.056-1.4419,3.86072-2.13037,4.16577a7.911,7.911,0,0,1-1.333.09q-5.89088.01089-11.78174.00555l-3.58691-.00055H9.76337c-1.90136-.00055-3.88818-3.32489-4.71044-6.53808A33.9849,33.9849,0,0,1,4.27265,62.25509Zm15.28467-2.58033c.06494.05854.13135.12195.1958.18018,1.25781,1.13757,2.44531,2.21143,3.57373,3.38245a9.70221,9.70221,0,0,1,2.44873,4.29217,2.40877,2.40877,0,0,1-1.13232,1.33515c-.3501.17877-1.17285.59167-2.53565-.657a7.23919,7.23919,0,0,1-1.72412-3.86914c-.20849-1.004-.37646-2.00854-.5542-3.07178C19.74189,60.74306,19.65205,60.21029,19.55732,59.67476ZM30.3166,31.53762a9.3883,9.3883,0,0,1-3.0791-5.26276c.08252-.15344.14111-.21.14013-.20093a1.54567,1.54567,0,0,1,1.46485.7331A8.68319,8.68319,0,0,1,30.072,30.385C30.14179,30.778,30.22675,31.15951,30.3166,31.53762Z"/><path d="M52.426,41.3575c-.0083.24469-.01562.48957-.02441.73426L52.36738,44.068l.03857.00183c-.00537.9032-.00976,1.83936-.0122,2.82013-.001.19873-.00147.39655-.002.598-.00293,1.46539-.00293,3.00518.001,4.57818-.00049.13477-.00049.269-.001.40564-.021,9.47962.08692,21.87818.57276,28.55792a29.86572,29.86572,0,0,0,.67724,4.99762,9.476,9.476,0,0,0,4.60352,6.22522,14.29672,14.29672,0,0,0,7.4331,1.61469q6.17871.016,12.35938.01452,7.72485,0,15.44678-.01837a7.89767,7.89767,0,0,0,2.27832-.29168,11.0265,11.0265,0,0,0,7.56347-8.089,43.90285,43.90285,0,0,0,1.313-13.54493,55.97758,55.97758,0,0,0-.03467-5.85876,36.19658,36.19658,0,0,0-1.09033-6.33417,6.21152,6.21152,0,0,0-3.772-4.42554,11.92461,11.92461,0,0,0-6.44727-.75091,11.09087,11.09087,0,0,0-3.70263,1.17773c-1.94434,1.08448-2.45166,3.16626-2.6919,5.0586-.17822,1.4013-.28808,2.82153-.395,4.19427-.07861,1.01019-.168,2.15442-.28808,3.27185a4.46257,4.46257,0,0,1-4.53028,4.21381,5.465,5.465,0,0,1-1.08545-.11176A3.92606,3.92606,0,0,1,77.8,68.77248c-.104-1.16943-.168-3.74432-.19434-6.33587.01123-.80549.02832-1.4516.05176-1.82624a7.65653,7.65653,0,0,1,3.81689-6.62079,33.4618,33.4618,0,0,1,3.95752-1.8153l.69483-.28272c1.34375-.55194,2.69726-1.08282,4.05175-1.61352l.16407-.06427c.86865-.34015,1.74756-.68708,2.62939-1.03876q1.05541-.42114,2.11084-.861c1.11133-.46235,2.21973-.938,3.30859-1.44416,4.793-2.2276,6.502-9.55676,6.73584-13.12085.16114-2.45105.14161-4.95184.12305-7.37109-.00244-.28174-.002-.56287-.0039-.84448.02148-1.39.01464-2.77765.0039-4.13935-.002-.26007-.00146-.51965-.00342-.7796.00147-.63373-.00048-1.26349-.0083-1.90277l.00684-1.58734c.01172-2.01135.02392-4.09143-.08643-6.13971a9.02157,9.02157,0,0,0-4.20508-7.4281,13.83492,13.83492,0,0,0-7.96923-2.04712Q80.1811,1.481,67.37666,1.51723a18.56657,18.56657,0,0,0-3.7378.34864C57.613,3.11519,53.66035,7.51339,53.32392,13.34414c-.34521,5.98327-.54053,12.07605-.73,17.9682l.16406.00525c-.001.02234-.002.04492-.00244.06726l-.16406.00073q-.093,2.86112-.18994,5.72235l-.03418,1.97614.06885.00335c0,.65094-.00049,1.25208-.002,1.3946C52.43134,40.76107,52.4289,41.06289,52.426,41.3575Zm3.97119,5.98792.00147-.59662c.00732-2.31268.022-4.43384.04-6.22327.0039-.343.00146-3.34777.00146-3.34777l-.01172-.62354q.08643-2.51925.16553-5.03961l.00244-.07373c.189-5.86707.38379-11.9336.72559-17.86658a7.84784,7.84784,0,0,1,4.32275-6.80292c.04639-.02441.10108-.04113.14844-.065a9.89146,9.89146,0,0,1,1.16943-.50653A11.54711,11.54711,0,0,1,64.426,5.79458c.01026-.00214.019-.00605.0293-.00818A11.78722,11.78722,0,0,1,65.80488,5.591q.36548-.03287.76123-.05.39624-.01721.82519-.01879,12.78956-.04359,25.58448-.00782h.00049a15.85309,15.85309,0,0,1,2.56005.19q.3816.06325.73536.14849a8.022,8.022,0,0,1,1.92236.718c.19336.10327.38037.2146.563.33417a6.39589,6.39589,0,0,1,.64843.49164c.01856.01623.03614.03314.0542.0495a5.12938,5.12938,0,0,1,.52.52685l.00049.00043V7.97329a5.16891,5.16891,0,0,1,1.1792,3.2276c.10449,1.92865.09277,3.94732.08106,5.90277l-.00733,1.62195c-.00146.89953.00537,1.79962.01221,2.70031.01074,1.34534.01758,2.71546-.00391,4.07544v.00611c-.01611,1.00952-.04541,2.01428-.10986,2.99511-.251,3.81659-2.01514,8.63044-4.42774,9.75177-2.53125,1.17615-5.22021,2.22821-7.82226,3.24616l-.16553.06482c-1.374.53918-2.74756,1.07776-4.105,1.63592l-.71631.29108c-1.11767.45551-2.26513.92621-3.41113,1.50537-.33154.16748-.66309.34088-.99365.52948-.11182.06372-.21826.13342-.32715.20026a11.75956,11.75956,0,0,0-5.502,9.64593c-.1333,2.09912-.09327,11.01673.1499,13.75446a8.06,8.06,0,0,0,4.772,6.79187v-.00006c.05664.02325.11524.04059.17236.0625a6.78216,6.78216,0,0,0,1.04444.31445l.00049.00012c.15722.032.31494.0481.47265.07215a9.41168,9.41168,0,0,0,1.41455.1206,9.10085,9.10085,0,0,0,.91407-.04779c.06347-.00629.125-.01794.188-.02551.24414-.02991.48584-.0658.72168-.115.04737-.00971.09375-.022.14112-.03247.25732-.058.51025-.12458.75732-.20441l.064-.02118A8.35793,8.35793,0,0,0,90.1999,68.6982c.12549-1.175.21728-2.35052.29834-3.38861.10254-1.32532.20947-2.6958.37451-4.00043a8.80508,8.80508,0,0,1,.23535-1.23181v-.0003c.03027-.10962.06152-.211.09473-.2995a2.06087,2.06087,0,0,1,.11035-.2555,1.009,1.009,0,0,1,.061-.09649.55624.55624,0,0,1,.16846-.18134l.001-.00061a7.21415,7.21415,0,0,1,2.34521-.7146,8.98635,8.98635,0,0,1,1.13135-.09942,7.90307,7.90307,0,0,1,2.15772.23938,7.11971,7.11971,0,0,1,1.00293.33831,2.92117,2.92117,0,0,1,.47656.25708c.063.04108.11719.08857.17383.13349a2.18162,2.18162,0,0,1,.19531.17364,1.94554,1.94554,0,0,1,.17676.2052c.03564.048.06738.09967.09912.15094a2.16808,2.16808,0,0,1,.15381.27735l.00048.00085-.00048-.00006a2.67058,2.67058,0,0,1,.16064.46088,33.014,33.014,0,0,1,.98926,5.63464,40.76136,40.76136,0,0,1-1.14307,13.13928,7.01915,7.01915,0,0,1-4.8706,5.31787,3.99943,3.99943,0,0,1-1.11231.11621q-13.89624.03186-27.79346.00391a10.675,10.675,0,0,1-5.46044-1.09064A5.472,5.472,0,0,1,57.53,80.08254a26.50271,26.50271,0,0,1-.5708-4.32727C56.47822,69.14626,56.37373,56.76961,56.39716,47.34542Z"/><path d="M77.19941,32.35012q.27393.06335.54395.10132a5.03749,5.03749,0,0,0,.584.04535l.001.00006a5.27893,5.27893,0,0,0,.79492-.06037A6.18438,6.18438,0,0,0,81.468,31.5364c.02491-.01557.04688-.03443.07178-.05011l-.001.00055a22.49739,22.49739,0,0,0,6.56543-6.30579,9.231,9.231,0,0,0,1.20751-2.56061v-.00055a7.09535,7.09535,0,0,0-3.55566-8.597,8.39253,8.39253,0,0,0-3.68018-.80567c-3.28613,0-7.1206,1.78174-8.27783,5.75928a64.37427,64.37427,0,0,0-.59619,8.90363A5.27759,5.27759,0,0,0,77.19941,32.35012Zm.44336-7.26843c.813-2.79139,4.521-3.37806,6.34912-2.47962a2.923,2.923,0,0,1,.68359.47858,18.50625,18.50625,0,0,1-5.331,5.05987c-1.09033.68164-1.8916.33435-2.17481-.88427A19.71812,19.71812,0,0,1,77.64277,25.08169Z"/><path d="M335.92695,44.2286c-.894-2.2782-2.25195-3.92932-4.31543-3.92932-3.09961,0-5.21289.74713-6.66553,1.94671a6.86609,6.86609,0,0,0-.53613.49109c-2.50977,2.56537-2.644,6.72174-2.75781,10.32269l-.03516,1.05152c-.02393.671-.10107,1.58392-.19043,2.64044-.46191,5.45807-1.15967,13.707,2.51856,17.61127a6.53964,6.53964,0,0,0,2.46337,1.64087,7.12886,7.12886,0,0,0,1.25245.34637c.043.00763.0874.01154.13086.01843.17626.02875.353.055.53466.07129.231.02014.46534.03186.70459.032l.0044.00019c.0708,0,.14306-.0011.21435-.00281a4.92113,4.92113,0,0,0,.72119-.07373c.03028-.00494.05909-.0119.08887-.01733a5.257,5.257,0,0,0,.66065-.16877v.00006c5.22021-1.72595,7.00146-11.90307,6.89209-20.687a37.84511,37.84511,0,0,0-1.45215-10.65741Q336.04976,44.53939,335.92695,44.2286Zm-3.65137,23.29852c-1.01562,3.60931-2.28076,4.91724-3.12549,4.93848a2.8285,2.8285,0,0,1-2.29-.8487c-1.07714-1.14319-1.55419-3.28161-1.7207-5.67309.07276-1.43158.18506-2.77613.27783-3.87079.09375-1.10846.17432-2.06555.20215-2.83319l.03565-1.06995c.19775-6.26044.4917-8.835,5.8081-8.88135.98.79071,1.8667,4.74543,2.10059,9.63532A39.19066,39.19066,0,0,1,332.27558,67.52712Z"/><path d="M355.75166,78.0516c-.05079-.5304-.082-1.07166-.10645-1.61615.00733-.27454.01367-.55085.02149-.82367.03417-1.21576.07128-2.47339.07177-3.70539v-.00055q0-2.425-.002-4.85009c.00049-.04419.002-.08905.002-.13318V66.922q.00074-3.26514-.00244-6.53021l-.00146-3.629V40.24849c0-1.537.07763-3.23327.16064-5.02893.12354-2.70556.251-5.6087.1416-8.48877.25391-8.27624-.31689-17.44653-7.97656-21.9931-8.43848-5.00891-29.999-6.75152-38.93506-1.7337-3.63965,2.04547-4.09131,2.76953-4.39355,7.04089-.09229,1.3031-.35987,16.882,2.97949,18.24884,1.68994.6911,3.916-.31451,9.84473-3.37182,2.271-1.1706,5.38134-2.77344,6.38623-2.92939,4.23779-.65747,6.01367-.27752,6.92334,1.78644-1.45459,2.53577-5.47559,4.05707-10.87647,5.812a39.839,39.839,0,0,0-6.93359,2.702,19.567,19.567,0,0,0-6.13037,5.3565c-.12207.16358-.2378.331-.3545.49756-4.35254,6.20111-4.97656,14.4809-5.5415,22.02692l-.0625.83582a89.46878,89.46878,0,0,0-.31641,10.40118c-.2583,7.30872.39844,14.257,4.53711,18.72015,2.75635,2.97126,6.78369,4.4776,11.97266,4.4776a66.69834,66.69834,0,0,0,8.55713-.69507,41.32165,41.32165,0,0,1,11.2666-.37823c12.15186,1.71136,18.28369.88391,19.88037-2.67737.44727-.99719.19971-7.75836-.63379-10.84582C356.04023,79.30874,355.77949,78.34548,355.75166,78.0516Zm-3.69092,6.8366c-1.62549.51947-5.48389.96943-14.519-.30242a45.03325,45.03325,0,0,0-12.32666.371,63.68746,63.68746,0,0,1-8.05469.6632c-4.08594,0-7.042-1.04534-9.03614-3.19586-4.05908-4.377-3.78857-12.82971-3.16406-21.11267l.0625-.83862c.58155-7.77,1.18262-15.74713,5.68311-21.11163.13574-.16224.27441-.323.41748-.48035a15.52711,15.52711,0,0,1,2.28711-2.0426c.07324-.054.14551-.1084.21972-.16144a16.05484,16.05484,0,0,1,1.39649-.89752,16.35521,16.35521,0,0,1,1.99365-.92365c1.24854-.49469,2.70117-.96667,4.20606-1.45587l.01269-.004c.70361-.22864,1.43408-.46637,2.17578-.7185l.03076-.0105a36.03913,36.03913,0,0,0,6.63623-2.86591v.00012c3.74219-2.21,6.35547-5.425,5.09815-10.66186-1.28467-5.34912-4.98535-6.43915-8.20557-6.43915a23.55889,23.55889,0,0,0-3.646.35089c-1.5376.23853-3.89991,1.41632-7.60743,3.3277a57.12153,57.12153,0,0,1-6.46777,3.03491c-.51172-1.19623-.8374-4.69824-.52685-9.08581a12.92844,12.92844,0,0,1,.29345-2.40094.61133.61133,0,0,1,.0542-.1239.59664.59664,0,0,1,.09668-.11225,2.20761,2.20761,0,0,1,.2168-.1745c.15332-.11218.35058-.23865.57715-.37506q.11865-.07169.24658-.14648c.167-.09742.34131-.19745.52441-.30066.11524-.06525.23291-.13135.35157-.19788a12.60132,12.60132,0,0,1,1.57177-.73614c3.69385-1.44739,9.168-1.9466,14.7417-1.71784.85742.03516,1.71729.08765,2.57373.1565,1.28369.10327,2.55957.24347,3.80615.418,4.98584.698,9.50538,1.94416,12.23584,3.56519a9.41106,9.41106,0,0,1,1.01075.69629c5.62939,4.30652,5.23,13.238,4.86718,21.17456-.08447,1.84265-.16406,3.58307-.16406,5.21228l-.00049,10.83875v.59991l-.00048,2.03229-.00049,6.90979.00049.70111.00048.42193v.22815l.00147,3.39789q.00292,3.26266.00244,6.52582c-.00049,1.17609-.03613,2.40466-.06982,3.59308-.05665,1.97131-.1128,3.993-.02686,6.006v.00379c.02734.63867.06738,1.27661.12842,1.91162a18.22584,18.22584,0,0,0,.59814,2.62146,26.31346,26.31346,0,0,1,.75049,3.29473A2.69628,2.69628,0,0,1,352.06074,84.8882Z"/><path d="M280.24384,14.02291a8.39159,8.39159,0,0,0-3.68066-.80567c-3.28613,0-7.12061,1.78174-8.27783,5.75928a28.98217,28.98217,0,0,0-.74121,3.58136c-.06983.438-.14063.87714-.22315,1.31128l-.0542.28436.0293.28778c.08594.86377.29639,2.92768.39258,3.43946.03564.18377.07861.35809.12451.52929.05811.21711.12256.42621.1958.62354a5.09716,5.09716,0,0,0,3.67871,3.3222c.19043.04407.37988.07874.5669.10285a4.973,4.973,0,0,0,.561.03821,5.26133,5.26133,0,0,0,.79395-.06037,6.1968,6.1968,0,0,0,2.34619-.90008c.53906-.33826,1.05664-.70148,1.56152-1.079q.3208-.24006.63233-.49024a22.43269,22.43269,0,0,0,4.44238-4.78723,9.25569,9.25569,0,0,0,1.20654-2.55835l.001-.00165A7.09719,7.09719,0,0,0,280.24384,14.02291Zm-6.41162,14.11761c-1.09375.68091-1.89355.33246-2.17578-.88482a19.46,19.46,0,0,1,.47412-2.174c.8125-2.79139,4.52-3.37806,6.34864-2.47962a2.91755,2.91755,0,0,1,.6831.47876A18.5029,18.5029,0,0,1,273.83222,28.14052Z"/><path d="M299.73652,26.21865c-.00195-.21887-.00147-.4372-.00293-.656.022-1.40234.01514-2.79858.00439-4.16754l-.00146-.16034c-.00195-.24109-.00147-.48163-.00293-.72253.001-.60034-.00049-1.196-.00781-1.80054l.00634-1.62311c.01172-2.003.02393-4.07415-.08593-6.104a9.02157,9.02157,0,0,0-4.20508-7.4281,13.83558,13.83558,0,0,0-7.96973-2.04712q-12.802-.02847-25.60693.00781a18.55237,18.55237,0,0,0-3.73779.34864c-6.02637,1.24932-9.9795,5.64752-10.31592,11.47827-.25488,4.43225-.42822,8.92492-.57813,13.35046-.00683.20014-.01318.39752-.02.59741-.04345,1.303-.08593,2.6026-.12744,3.88959l-.00488.16315q-.093,2.88217-.19141,5.76373l-.03369,1.97394.06787.00336c.00049.65142,0,1.25372-.00146,1.39624-.00293.27069-.00537.57257-.00781.85778-.00879.25074-.01661.50177-.02491.75244l-.03369,1.974.0376.00183c-.01416,2.45856-.02,5.24372-.01221,8.156-.02441,9.50561.08057,22.053.57129,28.80566a29.78147,29.78147,0,0,0,.67774,4.99823,9.48064,9.48064,0,0,0,4.602,6.22461,14.30374,14.30374,0,0,0,7.4331,1.61469q6.18018.016,12.36035.01452,7.72559,0,15.44678-.01837a7.90591,7.90591,0,0,0,2.27881-.29168,11.02508,11.02508,0,0,0,7.563-8.089,43.91638,43.91638,0,0,0,1.313-13.54407,55.86738,55.86738,0,0,0-.03516-5.85962,36.1684,36.1684,0,0,0-1.08984-6.33417,6.21156,6.21156,0,0,0-3.772-4.42554,11.92338,11.92338,0,0,0-6.44677-.75091,11.07992,11.07992,0,0,0-3.70264,1.17773c-1.94434,1.08393-2.45215,3.16571-2.69238,5.0586-.17823,1.4013-.28809,2.82153-.395,4.19372-.08448,1.07776-.17188,2.19239-.28809,3.2724a4.463,4.463,0,0,1-4.53076,4.21381,5.476,5.476,0,0,1-1.08545-.11176,3.92655,3.92655,0,0,1-2.80176-3.59979c-.104-1.17126-.168-3.747-.19433-6.33862.01123-.80475.02832-1.45008.05224-1.824a7.65591,7.65591,0,0,1,3.81739-6.62079,33.3948,33.3948,0,0,1,3.957-1.8153l.69531-.28272c1.32373-.54413,2.65869-1.06769,3.99267-1.59119l.22168-.0866c2.65674-1.03925,5.40284-2.11414,8.0503-3.34394,2.62109-1.21856,4.31543-3.96332,5.35547-6.7829.06689-.18255.13086-.36431.19238-.54718a23.84052,23.84052,0,0,0,1.188-5.79077c.16162-2.46673.1416-4.95965.123-7.36993Zm-4.11768,2.28393a18.94326,18.94326,0,0,1-1.06347,5.01069c-.0669.18536-.13672.36688-.2085.547-.78564,1.96772-1.87842,3.6001-3.15576,4.194-2.53418,1.17725-5.22168,2.22876-7.82324,3.24671l-.22315.08716c-1.35449.53137-2.709,1.06268-4.04638,1.613l-.708.28772a36.26144,36.26144,0,0,0-4.41309,2.03821,11.73117,11.73117,0,0,0-5.82959,9.84619c-.1333,2.09632-.09326,11.01282.1499,13.755a8.062,8.062,0,0,0,4.772,6.79114v-.00013c.05713.0235.1167.04108.17431.06324a6.77585,6.77585,0,0,0,1.04346.31408,9.5463,9.5463,0,0,0,1.416.16852c.15722.00806.31494.02423.4707.02423a9.08279,9.08279,0,0,0,.91406-.04779c.063-.00622.12451-.01788.187-.02539.24463-.03.48682-.066.72364-.11523.04687-.00959.09228-.02167.13867-.032.2583-.05816.51221-.125.75976-.20514l.062-.02032a8.35808,8.35808,0,0,0,5.728-7.3454c.12159-1.13647.21192-2.2807.29834-3.38861.10254-1.32532.20948-2.6958.375-4.00043a7.08684,7.08684,0,0,1,.32959-1.53161,2.13648,2.13648,0,0,1,.10987-.25574,1.01535,1.01535,0,0,1,.06152-.09613.55691.55691,0,0,1,.16894-.18176l.00049-.00031a5.36064,5.36064,0,0,1,1.03565-.42431,9.22886,9.22886,0,0,1,1.31006-.29029,9.01667,9.01667,0,0,1,1.13086-.09887,7.73681,7.73681,0,0,1,2.65966.40814c.167.05633.33936.10058.501.169l.00146.00074a2.92794,2.92794,0,0,1,.4751.25634c.063.04108.11719.08869.17383.13367a2.11439,2.11439,0,0,1,.19531.17365,2.01425,2.01425,0,0,1,.17725.20526c.03516.04779.06689.09942.09814.15051a2.177,2.177,0,0,1,.1543.27789l.00049.00055v-.00006a2.7124,2.7124,0,0,1,.16016.46082,32.96936,32.96936,0,0,1,.98876,5.63519,40.74814,40.74814,0,0,1-1.14257,13.13873,7.01916,7.01916,0,0,1-4.87061,5.31787,3.99625,3.99625,0,0,1-1.1123.11621q-13.897.03186-27.79395.00391a10.68433,10.68433,0,0,1-5.46045-1.09064,5.47309,5.47309,0,0,1-2.6958-3.70538,26.50271,26.50271,0,0,1-.5708-4.32727c-.61182-8.41028-.61523-26.10309-.52-35.22974.00391-.343.00049-3.34832.00049-3.34832l-.01172-.61683q.08716-2.54279.16748-5.086l.00537-.1637c.041-1.26312.08252-2.53882.125-3.8172.00684-.2016.01319-.40015.02-.60205.14942-4.42114.32178-8.90674.57569-13.31714A7.84821,7.84821,0,0,1,256.132,6.77163c.04931-.02606.10742-.044.15771-.06934A9.91892,9.91892,0,0,1,257.4499,6.2a11.55538,11.55538,0,0,1,1.49316-.41357,13.09342,13.09342,0,0,1,2.10987-.24549q.39624-.01721.82568-.01879,12.78882-.04359,25.584-.00782h.00049a10.12127,10.12127,0,0,1,5.78125,1.39063l.00147.00116a6.3764,6.3764,0,0,1,.647.49042c.01855.01617.03613.0332.0542.04949a5.10579,5.10579,0,0,1,.519.52582l.00147.00135L294.467,7.973a5.16761,5.16761,0,0,1,1.17969,3.2284c.104,1.90966.09228,3.91992.08056,5.90283l-.00683,1.62134c-.00147.84594.00537,1.69238.01123,2.53936l.00146.1615C295.75117,23.76467,295.7707,26.18337,295.61884,28.50258Z"/><path d="M242.51923,1.18484l-.00341-.00062a6.70866,6.70866,0,0,0-1.39063-.171l-3.14355-.01c-3.52637-.01343-7.17285-.02631-10.76612.01281a5.302,5.302,0,0,0-5.60986,4.98206,24.20812,24.20812,0,0,0-.229,3.22546c-.01416,1.40961-.01368,3.88251-.01368,6.49671.001,3.4635.002,7.04431-.02978,8.86456a4.49286,4.49286,0,0,1-.47608,2.19543,2.18377,2.18377,0,0,1-.53759.6247,3.75152,3.75152,0,0,1-1.74073.66016,13.95667,13.95667,0,0,1-5.231-.09443,4.10281,4.10281,0,0,1-.5166-.14331,2.23711,2.23711,0,0,1-.88916-.54126,2.12787,2.12787,0,0,1-.543-1.16253,10.52613,10.52613,0,0,1-.20362-1.68677c-.01611-1.68286-.02-4.83405-.02343-7.95386-.00342-3.00647-.00684-5.98443-.021-7.60522a24.41813,24.41813,0,0,0-.20508-2.96118A5.21641,5.21641,0,0,0,205.41523,1.001c-5.34961-.01789-9.46631-.01453-13.34717.01507a9.04327,9.04327,0,0,0-2.64111.46656,3.46549,3.46549,0,0,0-2.58057,3.56457l.02.40448c.042.8476,1.05078,16.75452,1.12061,20.74347-.00489,1.12866-.01221,2.25464-.01465,3.38464q0,.3-.001.59974-.00659,3.76977-.00146,7.49932c-.00147,2.89118,0,5.77332.00342,8.60492q.00585,3.30982.00683,6.61927l-.00049,1.90161c-.00048,3.37665-.001,7.01861-.00048,10.63842-.00049,7.054.001,14.53394.01123,20.23731a14.93543,14.93543,0,0,0,.28759,2.978,6.18071,6.18071,0,0,0,6.18311,5.34185c2.04932.0257,4.09277.03467,6.104.03467,2.30762,0,4.57373-.01227,6.76319-.02569a4.72146,4.72146,0,0,0,4.83838-4.3429c.12011-1.27612-.0337-4.62915,0-4.98383a14.0592,14.0592,0,0,0-.19971-3.93334c-.08887-.46149-.18994-.92133-.29053-1.38062a16.71188,16.71188,0,0,1-.51465-3.429c.00049-1.679.00049-3.46191.00049-5.27844v-.12231c.00049-1.557.00049-3.19367.00049-4.86151-.00049-.49091-.00049-.98517-.00049-1.47913.001-3.051.00293-5.93616.0083-8.26868a17.22631,17.22631,0,0,1,.16553-2.545c.30957-2.05713,1.209-2.57727,2.04639-2.81531a10.60248,10.60248,0,0,1,5.67627-.05475,2.34128,2.34128,0,0,1,1.85107,1.741,10.45946,10.45946,0,0,1,.42187,2.52429c.02149,3.4831.03223,7.98426.03516,12.54517-.002,3.312-.00732,6.46893-.01611,9.07641a12.55766,12.55766,0,0,1-.26856,2.10523l-.05566.30279c-.12793.71351-.272,1.4242-.41553,2.13544-.18457.91071-.37549,1.85266-.5332,2.80249-.16553.99964.126,4.22492.00049,4.98383a4.24452,4.24452,0,0,0,3.13623,4.90332,9.29586,9.29586,0,0,0,2.41162.35809c3.84131.028,7.81152.05921,11.81347.01123a6.40412,6.40412,0,0,0,6.63721-5.05646,13.11973,13.11973,0,0,0,.36084-3.31543c.01465-17.17645.01416-37.39306.01416-52.50042V18.6108a1.46667,1.46667,0,0,1,.01563-.21362c.2417-1.12079.50488-2.23761.7666-3.35456l.32031-1.36877c.30127-1.30066.5874-7.81317.15283-9.48761A3.98815,3.98815,0,0,0,242.51923,1.18484ZM241.653,7.78542l-.31787,1.35773c-.26758,1.14032-.53515,2.28064-.78222,3.42431a6.3053,6.3053,0,0,0-.10743,1.45215L240.447,26.4905v.6026c0,15.20929.00049,35.9787-.01465,53.55206a9.36188,9.36188,0,0,1-.23389,2.32147c-.3125,1.21351-.90869,2.02643-2.80517,2.04822-3.96436.04749-7.916.01789-11.73584-.01117a5.38541,5.38541,0,0,1-1.36963-.21118c-.2666-.07428-.29736-.15814-.25879-.39056.146-.8794.32129-1.74543.50684-2.66278.15039-.7403.30029-1.48059.43261-2.2226l.05323-.29162a15.86073,15.86073,0,0,0,.334-2.81092c.02441-7.432.02539-19.29522-.01953-26.644a14.28212,14.28212,0,0,0-.561-3.5473,6.31828,6.31828,0,0,0-4.69482-4.5647,14.5654,14.5654,0,0,0-7.7915.07434c-1.90528.54083-4.30469,2.03369-4.9126,6.07153a21.04449,21.04449,0,0,0-.21045,3.13276c-.00879,3.95288-.00879,9.47747-.00781,14.74109,0,3.76074,0,7.38787-.00293,10.21221a19.698,19.698,0,0,0,.60986,4.33838c.09326.42517.1875.851.27,1.28a10.01626,10.01626,0,0,1,.14453,2.79749c-.02344.2475-.06689.70953-.87646.7146-4.07813.02624-8.4253.04638-12.792-.009-.92675-.01117-1.92578-.27546-2.31054-2.14545a10.923,10.923,0,0,1-.20508-2.17731c-.01367-7.26214-.01172-17.40954-.01074-25.88354l.00048-6.31519q0-3.59784-.00634-7.19568c-.00537-3.8034-.00977-7.6897-.00147-11.57837q.00074-.3.001-.6c.00488-2.03253.01221-4.06446.02734-6.0849.02149-2.97071-.28369-12.14588-.94824-15.68592a10.78517,10.78517,0,0,1-.14062-1.23907c-.00245-.035-.00391-.072-.00635-.10706-.01514-.24493-.03125-.48791-.04346-.74347l-.00146-.02343a4.67063,4.67063,0,0,1,1.23193-.21118c3.8667-.03022,7.96973-.03357,13.30322-.01514l.01856.00085c.1206.00086.23242.00556.335.015.05273.00482.09814.01452.14648.02185.04981.00769.10205.01385.14746.02441a1.353,1.353,0,0,1,.15283.0484c.03028.01075.0625.02.09034.03266a.999.999,0,0,1,.1372.079c.02.01355.04151.02643.06055.04144a.88831.88831,0,0,1,.11719.11475c.01367.01568.02734.03143.04.04834a1.12937,1.12937,0,0,1,.09814.15716l.0249.05139a1.78566,1.78566,0,0,1,.08057.20893l.01221.04309c.0249.085.04785.17651.06689.277v.00134h0c.0166.08685.03321.17212.04639.27136a19.99449,19.99449,0,0,1,.17041,2.47009c.01465,1.61469.01807,4.58033.02148,7.57453.00391,3.13324.00733,6.29779.02344,7.989a14.05792,14.05792,0,0,0,.26709,2.35834,7.01657,7.01657,0,0,0,.19434.77008c.06006.20166.1333.39331.21.58288a5.92115,5.92115,0,0,0,3.67431,3.42054,7.89046,7.89046,0,0,0,.98194.28039l.00293.0008a17.95071,17.95071,0,0,0,6.72412.12463,9.28384,9.28384,0,0,0,1.70605-.45142,6.29467,6.29467,0,0,0,4.0293-4.34173c.05518-.19342.10059-.39917.144-.60742a10.47339,10.47339,0,0,0,.21241-1.95942c.03222-1.85491.03173-5.45416.03076-8.93438,0-2.598-.00049-5.05524.01318-6.45594a20.23955,20.23955,0,0,1,.18848-2.69525c.019-.13287.0415-.2511.06592-.36346l.00048-.00079c.01709-.07929.03858-.14856.05909-.21821.01074-.03613.0205-.07519.03222-.10888a1.75356,1.75356,0,0,1,.06983-.16333c.01611-.03467.03173-.07019.0498-.10175a1.14041,1.14041,0,0,1,.084-.12475.94216.94216,0,0,1,.16992-.1767,1.00654,1.00654,0,0,1,.09619-.06641,1.09629,1.09629,0,0,1,.11621-.064,1.32551,1.32551,0,0,1,.13086-.04871c.042-.01379.083-.02893.12891-.03979.0581-.01386.124-.02332.189-.03278.0415-.006.07959-.01428.124-.01861.11426-.0113.23731-.01795.37256-.01941L227.259,5.021c1.78223-.01984,3.58106-.02649,5.373-.02655,1.79248,0,3.57861.00665,5.335.01367l1.0498.00335,2.1001.00672a1.82617,1.82617,0,0,1,.27393.0274c.10058.01612.20459.03711.29638.0564.06885.01508.11133.03015.12451.0307l.00049.00006a.46047.46047,0,0,1,.01807.05811,2.50719,2.50719,0,0,1,.06982.45422A6.89674,6.89674,0,0,1,241.653,7.78542Z"/><path d="M452.15791,82.94375c-.3252,1.24682-.15479,7.68792.58007,8.70037a4.2582,4.2582,0,0,0,3.2295,1.69349c1.2583.07653,2.5664.11731,3.88769.12121l2.4336.01123c1.25634.00666,2.53125.01337,3.81347.01337,1.69092,0,3.394-.01178,5.08545-.0509,3.93994-.08991,6.09522-2.28339,6.0708-6.17652-.00879-1.40887-.01611-2.98071-.02148-4.65826.00293-.11188.02246-.2107.02148-.32556-.02832-4.42493-.03808-10.37439-.04-16.60755.001-3.709.00391-7.40393.00635-10.83252.00342-3.58142.00586-6.87561.00586-9.59649V35.65133l-.001-28.68665c-.001-3.26233-2.11084-5.467-5.24951-5.48486-4.62353-.02851-9.68066-.024-15.45849.01117a7.82383,7.82383,0,0,0-2.58985.4928,3.68916,3.68916,0,0,0-2.42627,4.35742c.13867.68048,1.14942,10.67187,1.27686,13.03222-.71875-1.63971-1.47705-3.81713-2.17383-5.82653-1.23193-3.55005-2.396-6.9029-3.69385-8.69245A8.0307,8.0307,0,0,0,440.0832,1.472c-4.54981-.01905-9.17334-.01117-13.64258-.00452l-1.61426.00281a6.19213,6.19213,0,0,0-1.53906.18493,3.92543,3.92543,0,0,0-2.936,4.015l.03613.33911c.08935.85077,2.269,17.089,2.26953,21.12005.001,6.1886.00879,13.73249.02148,21.63263q0,.29912.00049.59937c.021,12.59491.05274,26.029.08106,36.29278a19.87988,19.87988,0,0,0,.18164,2.74164,5.43844,5.43844,0,0,0,5.13672,4.97028c1.28613.109,2.55859.10284,3.79.09729.33886-.00171.67626-.00342,1.01611-.00226,3.61914.009,7.36328.019,11.05176-.00391a4.71411,4.71411,0,0,0,3.92529-1.7655c.81494-1.1181.94238-7.74145.48535-9.19824-1.43115-4.5647-2.21435-17.66266-2.45117-24.68176l-.03027-.88391c-.09327-2.76148-.13575-4.02833-.16553-5.38288,2.31982,2.4046,4.167,7.065,5.51855,10.48346l.353.89a37.87445,37.87445,0,0,1,2.53906,10.65026c.01026.11023.01953.22876.0293.3429-.05078.43457-.11279.86975-.20264,1.30182C453.31269,78.226,452.74726,80.682,452.15791,82.94375Zm-3.68018-39.28046a7.087,7.087,0,0,0-1.48389-1.1828,3.57688,3.57688,0,0,0-3.49707-.07263,3.65025,3.65025,0,0,0-1.88086,3.03045c-.00634.11121-.00732.22242-.00488.338l.01563,1.227c.0625,4.91778.0625,4.91778.23681,10.05963l.02979.88391c.06689,1.99011.71191,19.6192,2.63183,25.745a2.033,2.033,0,0,1,.10987.64307,1.48348,1.48348,0,0,1-.72412.13355c-3.67041.02288-7.40479.01281-11.01612.0039-.3457,0-.6958.00055-1.04492.0022-1.19678.00671-2.32422.01062-3.43457-.08264-.78516-.06653-1.3418-.35315-1.50781-1.53705a15.794,15.794,0,0,1-.14258-2.19409c-.02881-10.3971-.061-24.04621-.08154-36.77985-.00049-.19983-.00049-.40063-.001-.59991-.01221-7.71979-.02-15.07709-.02051-21.1355A58.27812,58.27812,0,0,0,424.715,7.90444a16.64277,16.64277,0,0,1-.33545-2.23181c-.00293-.02808-.00635-.054-.00928-.08234l-.001-.00751L424.362,5.5165a2.39963,2.39963,0,0,1,.46728-.04132l1.61768-.00281c1.11621-.00152,2.25976-.0022,3.39111-.00354,1.13184-.00128,2.252-.00323,3.3916-.00348,2.2793-.00049,4.56836.00226,6.83692.01148q.30394.00119.58349.0271c.125.01147.24219.03247.36036.05157.05859.0094.1206.01428.17724.02551a4.34026,4.34026,0,0,1,.439.11365c.01806.00562.03808.00879.05615.01465a3.795,3.795,0,0,1,.45019.17847l.00635.0025a3.98506,3.98506,0,0,1,1.53369,1.3158c.9502,1.31018,2.12012,4.68035,3.15186,7.6538,1.27344,3.66907,2.47607,7.13477,3.84277,8.95618a4.11015,4.11015,0,0,0,2.812,1.72144,2.82924,2.82924,0,0,0,3.28809-2.27228,5.18151,5.18151,0,0,0,.12353-1.09845c.00342-.28717-.00146-.5755-.00634-.86322-.00782-.442-.01465-.85986.01416-1.23981.08984-1.1828-.11573-10.4837-.90869-12.44421a11.24993,11.24993,0,0,1-.52735-1.927,3.69423,3.69423,0,0,1,1.083-.19672c2.88086-.01758,5.58105-.02734,8.1377-.02924,1.28271-.001,2.52832.00013,3.74316.00318q1.80908.00448,3.5293.01489a2.60053,2.60053,0,0,1,.34277.02087l.002.00025a1.23794,1.23794,0,0,1,.18213.04181l.00879.00232a.9518.9518,0,0,1,.18018.07922l.00781.00391a.86192.86192,0,0,1,.16846.129l.00634.00592a.92972.92972,0,0,1,.14649.1908l.00488.00836a1.291,1.291,0,0,1,.11524.26532l.00244.00971a1.986,1.986,0,0,1,.07324.35492v.00006a2.84417,2.84417,0,0,1,.02783.36877l.001,29.327v3.95892c0,2.7204-.00293,6.01288-.00537,9.59314-.0083,10.79828-.019,24.23645.0332,32.45294.01074,1.66608-.43262,2.10742-2.1582,2.1471-2.918.06653-5.90137.05139-8.78516.03631l-2.44287-.01117c-1.24463-.0039-2.47559-.04187-3.65772-.1134-.10839-.00671-.18115-.03131-.20605-.03131-.00684,0-.01025.00171-.01025.00561a.89958.89958,0,0,1,.03955-.37713c.60693-2.32874,1.187-4.84741,1.82568-7.92761a26.501,26.501,0,0,0,.23975-7.81415,41.86753,41.86753,0,0,0-2.80664-11.75983l-.34913-.88055C453.45039,51.79708,451.406,46.62838,448.47773,43.66329Z"/><path d="M579.93769,93.9153c7.59424.02735,13.4126.033,18.86475.01728,2.32666-.00617,4.01953-1.82636,4.11718-4.42615.03809-1.00958-.02392-4.347,0-4.98377a9.96121,9.96121,0,0,0-.2456-2.74945c-.10693-.4331-.18848-.86908-.2583-1.30627a17.67457,17.67457,0,0,1,.5083-2.25995c1.37891-4.66687,2.84912-9.38971,4.27148-13.95721q.79615-2.55863,1.58936-5.1178A115.54586,115.54586,0,0,0,613.507,36.30507c.019-.19549.03564-.39068.05371-.58587a98.17469,98.17469,0,0,0,.38769-11.67108,95.63275,95.63275,0,0,0-.79-15.04016c-.59668-4.49659-3.335-7.32587-7.14648-7.38343-3.01709-.04474-6.07666-.033-9.03613-.02234l-2.50586.00837a4.5014,4.5014,0,0,0-3.3003,1.27215A5.26062,5.26062,0,0,0,589.8039,6.768c.00489.95819-.0039,4.11779,0,4.98382a12.86184,12.86184,0,0,0,.37012,2.65949c.06982.32177.13965.64367.19385.96545.14941.88556.3208,1.76831.49316,2.65167a46.14552,46.14552,0,0,1,.84961,5.51563q.0769,1.088.1167,2.18347c-.022.6228-.04639,1.246-.084,1.87146-.01172.19775-.022.39526-.03565.59332a78.83437,78.83437,0,0,1-3.11963,16.98175c-.915,3.089-1.96191,6.17182-3.03076,9.21161a126.2535,126.2535,0,0,0,3.17578-21.47339c.01123-.19781.02783-.39642.03858-.59393.00439-.08435.0122-.16913.0166-.2533q.17944-3.45126.07666-7.01269a95.5666,95.5666,0,0,0-1.19971-17.67926c-.57812-3.63611-2.52881-5.54358-5.79736-5.66925-2.16992-.08441-4.35889-.08716-6.47608-.08942l-2.44873-.00726c-1.61426-.00726-3.28515-.01734-4.95068.05975-.89111.04029-3.792.47827-3.70752,4.41.0166.80566,1.81055,15.40954,1.94043,19.55035-.00879.27344-.01172.54645-.02246.82007q-.01171.29828-.02539.59656a101.29552,101.29552,0,0,1-5.58155,28.21942c-.64306-2.42762-1.29492-4.92786-1.75537-7.40351a89.77876,89.77876,0,0,1-1.50634-13.63c.02246-.69068.04785-1.38031.08886-2.06586.01221-.19964.023-.39966.03614-.59881a72.68616,72.68616,0,0,1,2.01318-12.81647c.18262-.72583.38476-1.446.58643-2.16559.34667-1.23309.855-8.24451.96875-8.81274a4.80981,4.80981,0,0,0-2.853-5.58826,7.29328,7.29328,0,0,0-2.64942-.53967c-3.81543-.03241-7.76074-.06482-11.6831.00891-4.33252.081-5.73779,2.35052-6.60059,5.98608a91.77026,91.77026,0,0,0-2.46924,20.31305c-.00195.19922-.00488.39838-.00586.5979-.0039.8772.02881,1.765.04834,2.64893-.0166.5783-.03613,1.15594-.042,1.737-.00293.19921-.00537.39831-.00586.5979a106.83828,106.83828,0,0,0,1.584,18.53259,218.44525,218.44525,0,0,0,7.11181,28.51233c.07862.2511.14307.49493.20508.73749-.06836.21716-.14306.43286-.231.64636-.74365,1.8056-.72216,8.69031.17774,10.05078a4.41492,4.41492,0,0,0,3.78711,1.90527c2.5708.02735,5.165.04077,7.81982.04077,2.91211,0,5.895-.01623,8.99268-.04919,2.67139-.028,4.86719-1.5639,6.18457-4.32446a17.85274,17.85274,0,0,1,1.55713-2.72486c.06152-.08545.11719-.15582.16553-.21344.05029.06092.10791.13581.17041.22742a31.404,31.404,0,0,1,1.9038,3.2981A6.292,6.292,0,0,0,579.93769,93.9153Zm-7.78711-16.44757h-.02392a4.21111,4.21111,0,0,0-3.42481,2.07343,21.743,21.743,0,0,0-1.918,3.335c-.8667,1.81634-1.90527,2.0365-2.61181,2.04376-5.89453.06317-11.36621.06537-16.728.00836a.77171.77171,0,0,1-.48975-.11c-.0581-.08771-.14843-.52069.18555-1.332a12.939,12.939,0,0,0,.146-9.08472,214.54548,214.54548,0,0,1-6.98731-27.99438,102.6531,102.6531,0,0,1-1.523-18.19617c.002-.19977.00244-.39978.00586-.59918a87.72163,87.72163,0,0,1,2.356-19.04914,8.2693,8.2693,0,0,1,.67529-2.01715c.00977-.01758.02-.03454.02979-.05139a1.71546,1.71546,0,0,1,.40673-.49127l.03809-.02863a1.38178,1.38178,0,0,1,.49854-.22577l.05273-.01208a3.754,3.754,0,0,1,.63574-.06922l.07862-.003c.11572-.00378.23486-.00665.36377-.00909,1.71875-.0318,3.44677-.04358,5.168-.04358,2.14649,0,4.2837.01776,6.38184.03558l.02441.00019a3.30313,3.30313,0,0,1,1.17969.2464.73747.73747,0,0,1,.23291.14831.6566.6566,0,0,1,.11084.15271.58475.58475,0,0,1,.03516.05341.85007.85007,0,0,1,.06738.25232l.00147.00927a1.3781,1.3781,0,0,1-.0044.322v.00153h0c-.00586.05212-.00342.09729-.01465.15332-.2334,1.16943-.55517,2.31647-.896,3.53052-.21241.75537-.42383,1.5119-.61524,2.274a76.72314,76.72314,0,0,0-2.15088,13.9309c-.0122.19928-.02539.39838-.03613.598a89.25,89.25,0,0,0,1.50147,21.27179c.51367,2.75952,1.23193,5.47149,1.92724,8.09411.29492,1.11353.59033,2.22705.86914,3.34278.09912.395.50147,2.94964,2.05274,2.94964a3.15757,3.15757,0,0,0,3.22558-2.49206,107.806,107.806,0,0,0,7.20752-33.41968c.00879-.1991.022-.39844.0293-.59748q.09228-2.44344.0581-4.87884a66.85437,66.85437,0,0,0-1.77832-14.28076,6.8194,6.8194,0,0,1-.20556-1.318c-.001-.04577.00195-.07086.00244-.11047.001-.07837.001-.16254.00488-.21857V5.66231c.76319-.03326,1.53809-.04742,2.31348-.05255s1.55078-.0011,2.31347.00226l2.46485.00726c1.04.0011,2.09765.00238,3.15722.01349s2.1211.032,3.16846.07257c.10791.00421.21045.01044.30957.01947.05567.00482.1084.01361.16114.02082.042.006.084.0122.124.02026a1.75575,1.75575,0,0,1,.186.04755c.021.00677.04151.01489.0625.02258a1.33148,1.33148,0,0,1,.75049.73254l.0044.00922a5.08524,5.08524,0,0,1,.39941,1.425,91.59054,91.59054,0,0,1,1.14844,17.015c-.01807.62079-.03809,1.24078-.07031,1.85565-.00293.05377-.00782.10791-.01075.16168-.01025.19745-.02636.39594-.03808.59351a122.89117,122.89117,0,0,1-3.69043,23.34717c-.34229,1.33032-.76953,2.62152-1.22217,3.98871-.29.87549-.58936,1.78119-.86719,2.707a17.14494,17.14494,0,0,0-.77929,3.52661,10.30729,10.30729,0,0,0,.32714,4.13611,5.50278,5.50278,0,0,0,2.9253,3.11706,2.86346,2.86346,0,0,0,2.26172-.04577,4.50866,4.50866,0,0,0,2.123-2.78467c.64014-1.83985,1.29688-3.67243,1.95362-5.50556,1.606-4.47973,3.26562-9.11206,4.65576-13.80358a82.87918,82.87918,0,0,0,3.26758-17.7082c.01416-.19824.02294-.39575.03564-.59375a73.10689,73.10689,0,0,0-.02588-9.73211,49.76116,49.76116,0,0,0-.9126-5.99835c-.166-.85035-.33154-1.70075-.47558-2.55335-.06446-.37988-.145-.75983-.227-1.13922a9.65581,9.65581,0,0,1-.28076-1.83759c0-.0437.00439-.07348.00537-.11413V6.632a1.6687,1.6687,0,0,1,.19677-.92719.835.835,0,0,1,.46778-.08941l2.50341-.00836h.00831c.49023-.002.99365-.00177,1.48877-.00342.98974-.00336,1.977-.00769,2.977-.00678,1.5.00141,3.00488.00989,4.49511.03253a3.09042,3.09042,0,0,1,.79785.11438c.05176.01465.09229.04212.14161.05933a2.63889,2.63889,0,0,1,.52685.23645c.03076.01923.05518.04529.085.06567a2.78886,2.78886,0,0,1,.46192.38471c.00976.01037.01757.02258.02685.03314a3.40431,3.40431,0,0,1,.40332.53534l.00049.00037a6.45639,6.45639,0,0,1,.79248,2.47607,92.378,92.378,0,0,1,.41358,20.46887c-.01758.19629-.03077.39167-.04883.5882a111.32162,111.32162,0,0,1-4.59375,22.37292q-.791,2.55689-1.5874,5.11054c-1.42579,4.58148-2.90088,9.31824-4.2876,14.01312a20.10725,20.10725,0,0,0-.29785,10.644,6.11069,6.11069,0,0,1,.13232,1.63929,1.21673,1.21673,0,0,1-.13086.57214c-5.44287.01562-11.25195.01007-18.83545-.01733-.67773-.00226-1.47021-.195-2.21973-1.61634a34.56854,34.56854,0,0,0-2.15234-3.70819A4.21586,4.21586,0,0,0,572.15058,77.46773Z"/><path d="M181.93916,69.88827a11.0877,11.0877,0,0,0-7.2544-2.57459c-5.30957,0-10.68457,3.56348-10.68457,10.37366,0,.8869.00049,4.09686.00049,4.98382,0,6.80847,5.377,10.37091,10.688,10.37091a11.08684,11.08684,0,0,0,7.25244-2.57348,9.93575,9.93575,0,0,0,3.39795-7.79743c0-.87072-.00049-4.11309-.00049-4.98382A9.9357,9.9357,0,0,0,181.93916,69.88827Zm-2.60938,12.55987a7.18251,7.18251,0,0,1-4.64111,1.60516c-3.32666,0-6.6836-1.96832-6.6836-6.366a6.04707,6.04707,0,0,1,1.89405-4.65015l.00537-.005a6.20752,6.20752,0,0,1,1.86133-1.1612l.00537-.002c.20849-.08429.42236-.15735.63916-.22186.05029-.015.10107-.02826.15185-.04224q.25708-.07068.52-.12354c.0669-.01348.1333-.02691.2002-.03863.16894-.0293.33887-.05194.50928-.07044.06542-.00714.13037-.01654.1958-.02209.23193-.01947.46435-.03162.69726-.03162a7.18862,7.18862,0,0,1,4.64356,1.60633l.001.001a6.65737,6.65737,0,0,1,.00049,9.52222Z"/><path d="M412.23066,69.88827a11.08766,11.08766,0,0,0-7.25439-2.57459c-5.31006,0-10.68506,3.56348-10.68506,10.37366,0,.8869.00049,4.09686.00049,4.98382,0,6.80847,5.377,10.37091,10.688,10.37091a11.08588,11.08588,0,0,0,7.25244-2.57348,9.93457,9.93457,0,0,0,3.39844-7.79743c0-.87085-.00049-4.11322-.00049-4.98382A9.9357,9.9357,0,0,0,412.23066,69.88827Zm-2.60937,12.55987a7.18351,7.18351,0,0,1-4.64112,1.60516c-3.32715,0-6.68408-1.96832-6.68408-6.366a6.21838,6.21838,0,0,1,1.38281-4.117v.00007l.001-.00135a5.63821,5.63821,0,0,1,.5083-.53l.00977-.0086a6.20593,6.20593,0,0,1,1.85839-1.15924l.00879-.00324c.208-.08386.42041-.15667.63672-.22094.05029-.015.10108-.02826.15186-.04224q.25707-.07068.52-.12354c.06689-.01348.1333-.02691.20019-.03863.16895-.0293.33887-.05194.50928-.07044.06543-.00714.13037-.01654.1958-.02209.23193-.01947.46436-.03162.69727-.03162a7.92715,7.92715,0,0,1,1.30224.10743,7.27872,7.27872,0,0,1,2.36279.81726,6.03909,6.03909,0,0,1,.97852.68164l.001.001a6.65739,6.65739,0,0,1,.00049,9.52222Z"/></g></g></svg>