<svg width="135px" height="50px" viewBox="0 0 135 50" version="1.1" xmlns="http://www.w3.org/2000/svg" xmlns:xlink="http://www.w3.org/1999/xlink">
            <g id="Page-1" stroke="none" stroke-width="1" fill="none" fill-rule="evenodd">
                <g id="hilton-logo" transform="translate(-77.000000, -38.000000)" fill-rule="nonzero" fill="#f3f3f3">
                    <g id="Menu-2" transform="translate(77.000000, 38.000000)">
                        <g id="white-framed-hilton">
                            <g id="XMLID_18615_" transform="translate(11.085766, 9.756098)">
                                <polygon id="XMLID_18625_" points="24.1716632 3.07692308 24.1716632 26.4915572 26.0016945 26.7166979 26.0016945 28.0675422 16.9277894 28.0675422 16.9277894 26.7166979 18.8340719 26.4915572 18.8340719 15.8348968 7.16762252 15.8348968 7.16762252 26.4915572 8.99765381 26.7166979 8.99765381 28.0675422 0 28.0675422 0 26.7166979 1.83003128 26.4915572 1.83003128 3.07692308 0 2.85178236 0 1.50093809 8.99765381 1.50093809 8.99765381 2.85178236 7.16762252 3.07692308 7.16762252 13.0581614 18.8340719 13.0581614 18.8340719 3.07692308 16.9277894 2.85178236 16.9277894 1.50093809 26.0016945 1.50093809 26.0016945 2.85178236"></polygon>
                                <path d="M37.2868874,3.22701689 C37.2868874,5.02814259 36.0668665,6.30393996 34.3893379,6.30393996 C32.6355579,6.30393996 31.4917883,5.10318949 31.4917883,3.30206379 C31.4917883,1.57598499 32.7118092,0.300187617 34.3893379,0.300187617 C36.0668665,0.300187617 37.2868874,1.65103189 37.2868874,3.22701689 L37.2868874,3.22701689 Z M36.676877,26.641651 L38.4306569,26.8667917 L38.4306569,28.0675422 L30.0430136,28.0675422 L30.0430136,26.8667917 L31.7967935,26.641651 L31.7967935,10.6566604 L30.0430136,10.4315197 L30.0430136,9.23076923 L36.7531283,9.23076923 L36.7531283,26.641651 L36.676877,26.641651 Z" id="XMLID_18622_"></path>
                                <polygon id="XMLID_18621_" points="42.0144682 26.8667917 43.6919969 26.641651 43.6919969 2.17636023 42.0144682 1.87617261 42.0144682 0.675422139 48.7245829 0.675422139 48.7245829 26.641651 50.4021116 26.8667917 50.4021116 28.0675422 42.0144682 28.0675422"></polygon>
                                <path d="M60.6197862,9.15572233 L65.1186131,9.15572233 L65.1186131,10.956848 L60.6197862,10.956848 L60.6197862,22.2138837 C60.6197862,25.1407129 61.2297967,26.0412758 63.8985923,26.0412758 C64.8898592,26.0412758 65.7286236,26.0412758 66.5673879,25.8161351 L66.5673879,27.0919325 C64.1273462,27.9174484 62.068561,28.2926829 60.3910323,28.2926829 C56.5022158,28.2926829 55.6634515,26.5666041 55.6634515,23.2645403 L55.6634515,10.956848 L52.1558916,10.956848 L52.1558916,9.15572233 L55.8159541,9.15572233 L55.8159541,5.2532833 L60.6960375,3.82739212 L60.6960375,9.15572233 L60.6197862,9.15572233 Z" id="XMLID_18620_"></path>
                                <path d="M82.1989051,18.6866792 C82.1989051,12.6829268 80.3688738,10.1313321 77.4713243,10.1313321 C74.6500261,10.1313321 72.8199948,12.6078799 72.8199948,18.6866792 C72.8199948,24.6904315 74.6500261,27.1669794 77.4713243,27.1669794 C80.5213764,27.1669794 82.1989051,24.8405253 82.1989051,18.6866792 L82.1989051,18.6866792 Z M87.688999,18.836773 C87.688999,24.6904315 83.6476799,28.6679174 77.395073,28.6679174 C71.2949687,28.6679174 67.4061522,26.1163227 67.4061522,18.836773 C67.4061522,12.7579737 71.4474713,8.7054409 77.7000782,8.7054409 C83.9526851,8.630394 87.688999,12.3076923 87.688999,18.836773 L87.688999,18.836773 Z" id="XMLID_18617_"></path>
                                <path d="M111.403154,26.8667917 L111.403154,28.0675422 L103.015511,28.0675422 L103.015511,26.8667917 L104.69304,26.641651 L104.69304,15.8348968 C104.69304,12.8330206 103.54927,11.4821764 101.261731,11.4821764 C100.194213,11.4821764 98.516684,12.2326454 97.2966632,13.0581614 L97.2966632,26.5666041 L99.0504432,26.7917448 L99.0504432,27.9924953 L90.5865485,27.9924953 L90.5865485,26.7917448 L92.3403285,26.5666041 L92.3403285,10.7317073 L90.5865485,10.5065666 L90.5865485,9.15572233 L97.2966632,9.15572233 L97.2966632,11.782364 C99.3554484,10.1313321 101.414234,8.7804878 104.235532,8.7804878 C107.971846,8.7804878 109.649374,10.956848 109.649374,15.2345216 L109.649374,26.641651 L111.403154,26.8667917 L111.403154,26.8667917 Z" id="XMLID_18616_"></path>
                            </g>
                        </g>
                    </g>
                </g>
            </g>
        </svg>