<?xml version="1.0" encoding="UTF-8"?>
<svg width="983px" height="389px" viewBox="0 0 983 389" version="1.1" xmlns="http://www.w3.org/2000/svg" xmlns:xlink="http://www.w3.org/1999/xlink">
    <!-- Generator: Sketch 63.1 (92452) - https://sketch.com -->
    <title>Artboard</title>
    <desc>Created with Sketch.</desc>
    <g id="Artboard" stroke="none" stroke-width="1" fill="none" fill-rule="evenodd">
        <g id="INF-logo" fill="#EE6056" fill-rule="nonzero">
            <g id="Group">
                <path d="M565.46,54.73 C568.65,57.08 572.69,57.94 577.49,57.32 C580.97,56.86 584.11,55.77 586.82,54.05 C589.46,52.38 591.69,50.43 593.45,48.24 C595.2,46.06 596.55,43.69 597.47,41.22 C598.4,38.72 598.87,36.38 598.87,34.24 C598.87,29.51 597.3,25.91 594.21,23.55 C591.2,21.25 587.23,20.41 582.43,21.04 C576.73,21.79 571.62,24.42 567.24,28.86 C562.78,33.39 560.519822,38.36 560.519822,43.65 C560.5,48.58 562.17,52.31 565.46,54.73 Z" id="Path"></path>
                <path d="M824.49,116.55 L824.49,116.55 C825.95,111.8 827.5,106.91 829.15,101.86 C830.78,96.83 832.42,91.86 834.07,87 C835.69,82.2 837.31,77.77 838.9,73.85 C843.54,65.6 846.77,59.51 848.66,55.48 C850.61,51.33 851.6,48.18 851.6,46.11 C851.6,43.33 850.71,41.23 848.87,39.72 C847.06,38.24 844.46,37.7 841.15,38.16 C837.75,38.6 834.32,40.38 830.93,43.46 C828.61,45.58 826.61,48.09 824.98,50.93 L823.45,53.62 L821.46,51.24 C816.22,44.96 808.56,42.41 798.74,43.72 C789.23,44.97 779.62,48.7 770.18,54.79 C760.77,60.86 752.19,68.44 744.69,77.28 C737.21,86.11 731.05,95.96 726.37,106.54 C724.28,111.3 722.62,116.16 721.45,120.98 L721.19,121.6 C718.5,125.96 716.06,129.78 713.73,133.24 C710.5,138.08 707.16,142.44 703.83,146.22 C700.49,149.98 697.23,153.09 694.1,155.47 C691.04,157.8 688.06,159.18 685.25,159.55 C683.12,159.82 681.36,159.2 679.97,157.63 C678.62,156.08 677.93,153.75 677.93,150.7 C677.93,145.32 679.25,139.6 681.84,133.72 C684.46,127.76 687.35,121.65 690.44,115.53 C693.51,109.42 696.42,103.28 699.07,97.27 C701.74,91.21 703.08,85.26 703.08,79.57 C703.08,72.64 700.74,67.28 696.12,63.63 C691.49,59.96 685.27,58.62 677.58,59.63 C673.89,60.12 670.01,61.42 666.04,63.51 C662.11,65.58 658.06,68.3 654.01,71.59 C650.01,74.85 645.94,78.57 641.9,82.67 L631.06,93.99 L636.2,82.56 C637.57,79.5 638.27,77.22 638.27,75.77 C638.27,72.98 637.34,70.86 635.41,69.27 C633.5,67.71 630.79,67.13 627.27,67.6 C620.11,68.54 614.76,73.35 611.37,81.87 C608.82,88.41 606.13,95.42 603.3,102.9 C600.46,110.39 597.6,118.07 594.68,125.92 C593.52,129.04 592.39,132.19 591.26,135.35 C588,140.84 584.82,145.84 581.64,150.6 C578.39,155.44 575.06,159.8 571.74,163.57 C568.42,167.31 565.15,170.43 562.02,172.81 C558.94,175.16 555.96,176.53 553.16,176.9 C550.67,177.2 548.51,176.47 546.66,174.6 C544.83,172.73 543.92,169.32 543.92,164.47 C543.92,157.81 545.3,150.18 548.01,141.8 C550.7,133.44 554.42,124 559.05,113.73 C564.43,104.46 568.13,97.55 570.13,93.01 C572.17,88.41 573.19,84.93 573.19,82.69 C573.19,79.9 572.26,77.82 570.33,76.32 C568.43,74.85 565.88,74.3 562.73,74.72 C558.94,75.22 555.17,77.43 551.51,81.29 C547.86,85.13 543.74,91.71 538.92,101.44 C536.41,106.42 533.87,111.92 531.37,117.8 C528.92,123.58 526.71,129.49 524.78,135.4 C523.69,138.77 522.68,142.24 521.59,146.33 L521.35,146.91 C518.49,151.58 515.84,155.73 513.26,159.58 C510.05,164.38 506.71,168.74 503.35,172.55 C500.02,176.31 496.75,179.42 493.62,181.8 C490.55,184.13 487.57,185.5 484.77,185.87 C482.63,186.16 480.9,185.53 479.5,183.95 C478.12,182.39 477.45,180.12 477.45,177.03 C477.45,171.65 478.77,165.94 481.36,160.04 C484.08,153.89 486.97,147.77 489.97,141.85 C493.04,135.75 495.94,129.6 498.59,123.59 C501.26,117.53 502.6,111.58 502.6,105.89 C502.6,98.96 500.26,93.6 495.64,89.95 C491.01,86.29 484.78,84.94 477.1,85.95 C473.41,86.44 469.53,87.74 465.56,89.83 C461.63,91.9 457.58,94.62 453.53,97.91 C449.53,101.17 445.45,104.9 441.43,109 C440.69,109.75 439.97,110.5 439.24,111.26 L430.52,120.48 L435.72,108.89 C437.09,105.82 437.79,103.54 437.79,102.1 C437.79,99.3 436.86,97.17 434.94,95.6 C433.02,94.04 430.29,93.45 426.79,93.93 C419.63,94.87 414.28,99.68 410.89,108.21 C408.34,114.74 405.65,121.75 402.82,129.23 C399.98,136.72 397.12,144.4 394.2,152.25 C392.79,156.03 391.42,159.83 390.06,163.66 C387.01,168.73 384.34,172.91 381.71,176.85 C378.45,181.7 375.11,186.07 371.79,189.82 C368.48,193.57 365.21,196.69 362.07,199.07 C359,201.4 356.02,202.77 353.21,203.14 C351.14,203.43 349.33,202.79 347.94,201.22 C346.59,199.67 345.9,197.34 345.9,194.3 C345.9,188.92 347.22,183.21 349.81,177.31 C352.43,171.34 355.33,165.22 358.41,159.13 C361.46,153.06 364.37,146.91 367.04,140.86 C369.71,134.8 371.05,128.85 371.05,123.16 C371.05,116.23 368.71,110.87 364.09,107.22 C359.46,103.55 353.23,102.21 345.55,103.22 C341.86,103.7 337.99,105 334.01,107.09 C330.07,109.17 326.03,111.89 321.99,115.18 C317.99,118.43 313.91,122.15 309.88,126.26 C309.14,127.01 308.42,127.76 307.69,128.52 L298.97,137.74 L304.17,126.15 C305.54,123.09 306.24,120.8 306.24,119.36 C306.24,116.56 305.31,114.44 303.38,112.86 C301.47,111.3 298.77,110.71 295.24,111.19 C288.08,112.13 282.73,116.94 279.34,125.47 C276.79,132 274.1,139.01 271.27,146.49 C268.43,153.98 265.57,161.66 262.65,169.51 C261.39,172.9 260.16,176.32 258.94,179.74 C255.22,185.76 251.35,190.97 247.23,195.64 C242.73,200.73 237.84,205.29 232.72,209.2 C227.6,213.11 222.28,216.32 216.88,218.73 C211.51,221.14 206.04,222.73 200.62,223.44 C192.58,224.51 185.34,223.33 179.19,219.93 L176.46,218.42 L178.85,216.4 C192.03,205.29 204.65,192.71 216.37,179.02 C228.9,164.4 240.01,149.29 249.4,134.1 C258.77,118.96 266.29,104.04 271.75,89.75 C277.22,75.46 280,62.57 280,51.43 C280,38.87 276.42,29.43 269.35,23.38 C262.27,17.33 252.29,15.08 239.73,16.75 C232.22,17.73 224.17,20.83 215.83,25.95 C207.5,31.08 199.21,37.73 191.21,45.7 C183.2,53.66 175.43,63 168.13,73.46 C160.83,83.9 154.32,95.09 148.78,106.74 C143.23,118.38 138.74,130.56 135.46,142.93 C132.19,155.29 130.53,167.56 130.53,179.39 C130.53,194.42 133.29,207.43 138.75,218.07 L139.64,219.81 L137.99,220.86 C130.97,225.37 123.89,229.12 116.93,232 C109.25,235.18 101.52,237.29 93.95,238.28 C85.99,239.32 78.2,239.07 70.78,237.51 C63.35,235.95 56.54,233.3 50.55,229.64 C44.56,225.98 39.44,221.26 35.36,215.61 C31.89,210.83 29.47,205.37 28.16,199.39 L27.22,195.11 L31.18,196.99 C38.89,200.63 47.33,203.72 56.25,206.14 C66.14,208.84 76.44,210.29 86.87,210.07 C87.4,210.05 87.99,209.99 88.57,209.92 C91.9,209.49 94.72,208.16 96.93,205.99 C99.51,203.45 101.01,200.52 101.39,197.27 C101.78,194.53 101.06,192.3 99.21,190.41 C97.41,188.58 95.11,187.57 91.6,187.74 C81.4,187.63 71.25,185.97 61.35,182.83 C51.43,179.67 43.28,175.63 37.13,170.81 C31.33,166.33 24.87,164.5 17.91,165.42 C12.86,166.08 8.67,168.17 5.46,171.61 C2.2,175.13 0.61,180.48 0.61,187.99 C0.61,201.27 3.01,212.99 7.74,222.81 C12.44,232.62 19.01,240.72 27.26,246.88 C35.51,253.05 45.31,257.37 56.39,259.74 C67.5,262.1 79.67,262.45 92.58,260.73 C102.42,259.43 112.6,256.57 122.81,252.23 C132.48,248.12 142.22,242.89 151.77,236.72 L153.01,235.92 L154.2,236.79 C159.53,240.63 165.68,243.4 172.48,245.03 C179.87,246.8 188.03,247.11 196.78,245.96 C204.64,244.93 212.56,242.5 220.34,238.74 C227.85,235.09 235.17,230.46 242.11,224.98 L244.98,222.71 L245.57,226.33 C245.97,228.74 246.98,230.38 248.66,231.34 C250.85,232.61 253.24,233.09 255.86,232.73 C260.22,232.16 263.38,230.5 265.25,227.81 C267.02,225.25 268.38,222.56 269.32,219.81 C270.96,214.68 272.89,209.34 275.05,203.96 C277.19,198.57 279.62,193.16 282.26,187.88 C284.84,182.72 287.59,177.73 290.43,173.05 C293.25,168.42 296.03,164.27 298.71,160.69 C301.81,156.66 305.2,152.39 308.82,148.03 C312.43,143.67 316.14,139.62 319.84,135.98 C323.49,132.38 327.13,129.3 330.65,126.83 C334.12,124.43 337.29,123.04 340.09,122.67 C341.51,122.48 343.07,122.44 344.2,123.42 C345.23,124.32 345.23,125.53 345.23,126.05 C345.23,130.33 343.96,135.39 341.45,141.1 C338.85,147.01 335.96,153.07 332.85,159.15 C329.65,165.41 326.75,171.8 324.2,178.12 C321.63,184.51 320.34,190.63 320.34,196.33 C320.34,205.07 322.96,211.65 328.12,215.87 C333.28,220.09 340.44,221.65 349.39,220.46 C355.26,219.69 361.14,217.57 366.86,214.15 C369.21,212.74 371.63,211.1 374.05,209.24 L376.53,207.36 L377.41,210.36 C377.92,212.08 378.83,213.3 380.19,214.08 C382.38,215.35 384.75,215.82 387.39,215.47 C391.76,214.9 394.92,213.24 396.78,210.56 C398.55,207.99 399.92,205.29 400.86,202.54 C402.44,197.56 404.38,192.22 406.57,186.7 C408.72,181.31 411.15,175.9 413.79,170.62 C416.45,165.34 419.19,160.36 421.96,155.79 C424.78,151.16 427.56,147.01 430.24,143.43 C433.34,139.4 436.74,135.13 440.35,130.78 C443.96,126.41 447.67,122.36 451.37,118.72 C455.05,115.09 458.69,112.01 462.19,109.57 C465.65,107.17 468.82,105.78 471.62,105.41 C473.04,105.22 474.6,105.18 475.73,106.16 C476.76,107.06 476.76,108.27 476.76,108.79 C476.76,113.07 475.49,118.13 472.98,123.84 C470.44,129.62 467.54,135.69 464.38,141.89 C461.17,148.18 458.26,154.57 455.73,160.86 C453.16,167.25 451.87,173.37 451.87,179.07 C451.87,187.81 454.49,194.39 459.65,198.61 C464.82,202.83 471.99,204.41 480.92,203.2 C483.84,202.82 486.75,202.09 489.65,201.05 C490.71,200.67 491.77,200.19 492.82,199.72 C494.69,198.89 496.54,197.98 498.38,196.88 C504.06,193.48 509.63,189.12 514.94,183.94 C515.7,183.2 516.45,182.44 517.19,181.67 L519.39,179.37 L520.71,182.26 C522.11,185.33 524.06,187.83 526.51,189.68 C532.14,193.93 539.81,195.48 549.29,194.21 C555.15,193.44 561.03,191.32 566.75,187.9 C569.23,186.42 571.81,184.65 574.41,182.66 L576.97,180.7 L577.8,183.81 C578.29,185.64 579.22,186.93 580.66,187.76 C582.83,189.03 585.22,189.5 587.85,189.15 C592.21,188.58 595.37,186.92 597.24,184.23 C599,181.67 600.37,178.98 601.32,176.22 C602.92,171.18 604.85,165.84 607.04,160.37 C609.17,155 611.6,149.6 614.25,144.3 C616.83,139.14 619.58,134.15 622.42,129.47 C625.24,124.84 628.02,120.69 630.7,117.11 C633.8,113.07 637.19,108.81 640.81,104.45 C644.47,100.03 648.18,95.98 651.83,92.39 C655.48,88.79 659.12,85.71 662.65,83.25 C666.11,80.85 669.28,79.46 672.08,79.09 C673.47,78.9 675.06,78.84 676.18,79.83 C677.21,80.73 677.21,81.95 677.21,82.47 C677.21,86.75 675.94,91.81 673.43,97.52 C670.91,103.24 668.01,109.31 664.83,115.57 C661.62,121.85 658.71,128.23 656.18,134.53 C653.61,140.92 652.32,147.06 652.32,152.75 C652.32,161.5 654.94,168.07 660.1,172.28 C665.27,176.5 672.38,178.08 681.37,176.87 C687.23,176.1 693.12,173.97 698.84,170.55 C704.52,167.15 710.09,162.79 715.4,157.61 C716.66,156.38 717.94,155.07 719.3,153.62 L721.38,151.41 L722.79,154.1 C724.41,157.2 726.6,159.8 729.3,161.82 C735.92,166.76 744.54,168.56 754.95,167.2 C761.39,166.35 767.78,163.83 773.95,159.71 C777.54,157.31 781.08,154.46 784.48,151.25 L790.58,145.48 L786.1,159.36 C784.29,164.84 782.09,171.1 779.55,177.98 C777,184.85 774.07,191.12 770.86,196.65 C767.6,202.2 764.23,207.07 760.83,211.11 C757.41,215.14 753.93,218.4 750.46,220.83 C747,223.22 743.65,224.64 740.49,225.07 C730.47,226.26 724.47,217.73 719.2,210.09 C714.67,203.49 710.37,197.26 703.94,197.26 C703.5,197.26 703.05,197.29 702.58,197.35 L77.28,281.18 C72.17,281.85 68.01,286.56 68,291.65 C67.99,293.98 68.88,296.06 70.5,297.48 C72.14,298.93 74.34,299.56 76.72,299.25 L693.69,219.86 L694.35,221.27 C699.35,231.85 712.43,240.68 721.51,242.27 C727.11,243.26 733.31,243.32 739.93,242.46 C747.46,241.48 754.76,238.7 761.65,234.21 C768.52,229.73 774.98,223.86 780.86,216.77 C786.7,209.7 792.12,201.5 796.95,192.37 C801.77,183.27 805.98,173.34 809.44,162.86 L820.66,128.82 C821.77,125.39 823.04,121.3 824.49,116.55 Z M165.8,199.94 L163.39,202.08 L162.35,199.02 C160.04,192.25 158.87,184.21 158.87,175.15 C158.87,165.4 160.25,155.18 162.97,144.78 C165.68,134.39 169.3,124.15 173.73,114.35 C178.19,104.49 183.23,95.07 188.71,86.35 C194.24,77.57 199.97,69.72 205.73,63.01 C211.51,56.3 217.21,50.8 222.68,46.68 C228.12,42.57 232.94,40.23 237.01,39.69 C241.37,39.13 244.88,40.14 247.61,42.68 C250.34,45.24 251.72,49.73 251.72,56.04 C251.72,65.77 249.34,77.02 244.64,89.48 C239.94,101.94 233.52,114.97 225.55,128.25 C217.61,141.48 208.12,154.7 197.33,167.54 C187.38,179.35 176.77,190.25 165.8,199.94 Z M490.49,198.51 C490.08,198.13 489.67,197.76 489.26,197.38 C489.67,197.01 490.08,196.64 490.49,196.28 L490.49,198.51 Z M814.87,73 C811.88,80.93 808.71,88.43 805.44,95.31 C802.1,102.33 798.03,109.78 793.33,117.45 C788.08,125.75 782.73,132.86 777.41,138.6 C772.19,144.24 766.77,147.46 761.29,148.19 C760.59,148.27 759.91,148.32 759.26,148.32 C756.4,148.32 753.98,147.44 752.06,145.7 C749.7,143.55 748.49,139.82 748.49,134.59 C748.49,126.84 750.09,118.73 753.24,110.49 C756.39,102.26 760.45,94.5 765.33,87.45 C770.19,80.41 775.57,74.47 781.3,69.78 C786.99,65.12 792.49,62.41 797.65,61.73 C802.83,61.05 806.96,61.65 809.87,63.53 C812.63,65.34 814.35,68.14 814.99,71.87 L815.09,72.44 L814.87,73 Z" id="Shape"></path>
                <path d="M979.33,76.88 C977.33,75.51 974.88,74.95 972.14,75.37 C969.44,75.71 967.08,77.01 965.14,79.21 C963.29,81.3 961.42,83.97 959.58,87.14 C955.95,93.24 951.85,98.94 947.36,104.12 C945.16,106.64 942.91,109.07 940.62,111.38 L935.16,116.88 L937,109.35 C937.67,106.57 938.02,103.74 938.02,100.94 C938.02,94.74 937,88.82 935,83.36 C932.99,77.87 930.59,72.52 927.89,67.47 C925.23,62.5 922.43,57.53 919.54,52.7 C916.97,48.39 914.84,43.98 913.22,39.6 L912.88,38.68 L913.34,37.83 C920.45,24.63 924.06,15.65 924.06,11.15 C924.06,7.62 922.91,4.98 920.52,3.1 C918.74,1.69 916.26,0.99 913.12,0.99 C912.08,0.99 910.97,1.07 909.78,1.23 C907.15,1.57 904.47,2.69 901.84,4.54 C899.22,6.39 896.79,8.89 894.65,11.96 C892.51,15.04 890.73,18.6 889.36,22.54 C887.97,26.5 887.27,30.84 887.27,35.42 C887.27,36.71 887.31,37.81 887.4,38.7 C887.47,39.37 887.55,40.01 887.67,40.65 L887.79,41.31 L887.51,41.92 C878.53,61.51 869.33,79.28 860.15,94.75 C850.81,110.48 840.88,125.7 830.64,140 C828.27,142.89 827.11,145.66 827.11,148.34 C827.11,151.46 828.2,153.68 830.37,154.92 C832.55,156.18 834.73,156.68 837.03,156.38 C841.58,155.78 845.61,152.86 848.99,147.71 L852.69,142.29 L854.47,143.54 C857.87,145.92 862.27,147.74 867.56,148.92 C873.95,150.38 881.69,150.51 890.62,149.32 C899.01,148.22 907.61,145.93 916.18,142.52 C924.77,139.1 933.14,134.72 941.07,129.5 C949.04,124.23 956.48,118.12 963.21,111.31 C969.98,104.48 975.82,96.91 980.55,88.83 C981.73,86.89 982.320074,84.87 982.320074,82.79 C982.33,80.25 981.32,78.25 979.33,76.88 Z M905.89,123.01 C902.07,128.03 896.9,130.91 890.09,131.81 C888.94,131.96 887.83,132.04 886.78,132.04 C884.87,132.04 883.13,131.8 881.57,131.3 C879.14,130.55 877.14,129.47 875.67,128.1 C874.21,126.75 873.1,125.22 872.36,123.58 C871.64,121.97 871.28,120.62 871.28,119.56 C871.28,118.15 871.41,116.67 871.68,115.2 C871.99,113.48 872.86,111.51 873.53,110.17 C878.39,102.4 882.9,94.76 887.05,87.26 C890.31,81.4 893.48,75.41 896.49,69.47 L898.43,65.63 L900.33,69.49 C902.8,74.48 905.15,79.43 907.37,84.27 C910.18,90.42 911.600159,97.76 911.600159,106.08 C911.62,112.39 909.75,117.92 905.89,123.01 Z" id="Shape"></path>
                <path d="M953.6,164.35 L822.97,183.19 C817.88,183.93 813.84,188.5 813.779249,193.57 C813.75,195.92 814.62,198 816.22,199.44 C817.84,200.9 819.98,201.53 822.4,201.27 L953.22,185.76 C956.25,185.32 958.99,183.78 961.04,181.4 C963.1,179.03 964.2,176.12 964.161054,173.22 C964.13,170.49 963.05,168.09 961.14,166.43 C959.17,164.71 956.53,163.99 953.6,164.35 Z" id="Path"></path>
            </g>
            <g id="Group" transform="translate(317.000000, 297.000000)">
                <polygon id="Path" points="0.53 0.52 36.8 0.52 36.8 17.52 17.53 17.52 17.53 37.51 36.8 37.51 36.8 54.51 17.53 54.51 17.53 91.5 0.53 91.5"></polygon>
                <polygon id="Path" points="44.57 0.52 80.84 0.52 80.84 17.52 61.57 17.52 61.57 37.51 80.84 37.51 80.84 54.51 61.57 54.51 61.57 74.5 80.84 74.5 80.84 91.5 44.57 91.5"></polygon>
                <path d="M123.69,23.74 C120.94,20.51 117.95,18.95 114.71,18.95 C111.24,18.95 108.49,22.3 108.49,26.25 C108.49,28.76 109.45,31.04 111.37,32.95 L129.08,50.67 C133.99,55.58 136.5,61.08 136.5,66.94 C136.5,73.41 134.35,79.15 129.91,84.06 C125.48,88.97 119.14,91.48 110.88,91.61 C103.93,91.61 97.95,88.61 92.92,82.63 L101.66,69.22 C104.17,73.18 107.05,75.09 110.52,75.09 C114.83,74.98 117.23,72.58 117.7,68.15 C117.82,65.52 116.63,62.88 114.35,60.13 L96.63,42.41 C91.97,37.74 89.45,33.19 89.21,28.88 C88.85,19.42 91.01,12.48 95.67,8.29 C100.1,3.26 105.61,0.74 112.19,0.74 C119.25,0.74 125.47,3.62 130.86,9.36 L123.69,23.74 Z" id="Path"></path>
                <polygon id="Path" points="189.04 0.52 189.04 17.52 174.31 17.52 174.31 91.5 157.2 91.5 157.2 17.52 142.48 17.52 142.48 0.52"></polygon>
                <polygon id="Path" points="196.82 0.52 213.82 0.52 213.82 91.5 196.82 91.5"></polygon>
                <polygon id="Path" points="240.38 91.49 221.59 0.51 238.71 0.51 249.84 55.58 263.73 0.51 280.85 0.51 257.5 91.49"></polygon>
                <path d="M295.92,0.04 L313.16,0.04 L336.5,91.49 L319.38,91.49 L317.94,84.43 L295.67,84.43 L294,91.49 L276.88,91.49 L295.92,0.04 Z M313.52,67.31 L305.62,36.06 L299.16,67.31 L313.52,67.31 Z" id="Shape"></path>
                <polygon id="Path" points="344.27 91.49 344.27 0.51 361.27 0.51 361.27 74.49 380.66 74.49 380.66 91.49"></polygon>
            </g>
        </g>
    </g>
</svg>