<?xml version="1.0" encoding="utf-8"?>
<!-- Generator: Adobe Illustrator 24.1.3, SVG Export Plug-In . SVG Version: 6.00 Build 0)  -->
<svg version="1.1" id="Layer_1" xmlns="http://www.w3.org/2000/svg" xmlns:xlink="http://www.w3.org/1999/xlink" x="0px" y="0px"
	 viewBox="0 0 860.8 151.7" style="enable-background:new 0 0 860.8 151.7;" xml:space="preserve">
<style type="text/css">
	.st0{fill-rule:evenodd;clip-rule:evenodd;fill:#215853;}
	.st1{fill:#215853;}
</style>
<g>
	<path class="st0" d="M60.6,30.4c-8.4,0-15.1-6.8-15.1-15.1c0-8.4,6.8-15.1,15.1-15.1H182h0c25.5,0,46.1,20.6,46.1,46.1
		c0,20.6-13.6,38.1-32.2,44c1.4-4.5,2.2-9.3,2.2-14.3c0-18.8-11.1-35-27.1-42.5c-0.3-0.1-0.6-0.2-0.9-0.4c-1-0.4-2-0.8-3-1.2
		c-3-0.9-6.6-1.3-9.4-1.4h-5.2H60.6L60.6,30.4z"/>
	<path class="st0" d="M15.2,91C6.9,91,0.1,84.2,0.1,75.9c0-8.4,6.8-15.1,15.1-15.1h137.3c8.4,0,15.1,6.8,15.1,15.1
		c0,8.4-6.8,15.1-15.1,15.1H15.2L15.2,91z"/>
	<path class="st0" d="M60.6,151.6c-8.4,0-15.1-6.8-15.1-15.1c0-8.4,6.8-15.1,15.1-15.1H141l21.2,30.3H60.6L60.6,151.6z"/>
	<path class="st0" d="M196.3,63c18.5,6,31.8,23.4,31.8,43.8c0,19.6-12.3,36.4-29.6,43l-23.8-33.4c14-8.1,23.4-23.2,23.4-40.6
		C198.1,71.4,197.5,67.1,196.3,63L196.3,63z"/>
	<path class="st1" d="M366.5,109.6l-20.7-27.5c2.6-0.4,5.1-1.2,7.3-2.3c2.2-1.1,4.2-2.5,5.8-4.1c1.6-1.6,2.9-3.6,3.8-5.8
		c0.9-2.2,1.3-4.7,1.3-7.6c0-3-0.6-5.8-1.7-8.3c-1.2-2.5-2.8-4.6-4.9-6.4c-2.1-1.8-4.7-3.1-7.7-4.1c-3-1-6.3-1.4-10.1-1.4h-29v67.4
		h7.6V83.4h19.3l19.6,26.2H366.5L366.5,109.6z M356.4,62.6c0,2.2-0.4,4.2-1.3,5.9c-0.9,1.7-2.1,3.2-3.6,4.4
		c-1.5,1.2-3.4,2.1-5.5,2.8c-2.1,0.6-4.4,1-7,1h-20.8V49.2h20.9c5.5,0,9.7,1.2,12.7,3.5C354.9,55.1,356.4,58.4,356.4,62.6
		L356.4,62.6z M444.8,42.2h-48.7v67.4h49.2v-6.9h-41.6V79.1h36.8v-6.9h-36.8v-23h41.1V42.2L444.8,42.2z M482.2,58.9
		c0-1.5,0.3-3,1-4.3c0.7-1.3,1.6-2.5,2.9-3.5c1.3-1,2.8-1.7,4.5-2.3c1.8-0.6,3.7-0.9,5.9-0.9c3.5,0,6.8,0.6,10,1.7
		c3.2,1.2,6.3,3,9.5,5.6l4.4-5.9c-3.5-2.7-7-4.8-10.7-6.1c-3.7-1.4-8-2-13-2c-3.2,0-6.2,0.5-8.9,1.4c-2.7,0.9-5,2.2-7,3.9
		c-2,1.6-3.5,3.6-4.6,5.8c-1.1,2.2-1.6,4.7-1.6,7.4c0,2.8,0.4,5.3,1.3,7.3c0.9,2.1,2.3,3.9,4.2,5.4c1.9,1.5,4.2,2.9,7.1,3.9
		c2.9,1.1,6.2,2.1,10.1,2.9c3.5,0.8,6.5,1.6,8.8,2.4c2.3,0.8,4.1,1.8,5.3,2.8c1.3,1,2.2,2.2,2.7,3.4c0.5,1.3,0.8,2.7,0.8,4.3
		c0,3.5-1.4,6.3-4.1,8.4c-2.7,2.1-6.4,3.2-10.9,3.2c-4.7,0-8.8-0.8-12.4-2.4c-3.6-1.6-7.2-4-10.7-7.2l-4.7,5.6
		c4,3.6,8.3,6.3,12.8,8.1c4.5,1.7,9.4,2.6,14.8,2.6c3.3,0,6.4-0.4,9.2-1.3c2.8-0.9,5.2-2.2,7.2-3.9c2-1.7,3.6-3.7,4.7-6.1
		c1.1-2.4,1.7-5,1.7-7.9c0-5.2-1.8-9.3-5.3-12.3c-3.6-3-9.1-5.3-16.6-7c-3.7-0.8-6.8-1.6-9.2-2.5c-2.4-0.9-4.2-1.8-5.6-2.9
		s-2.3-2.2-2.8-3.5C482.5,62,482.2,60.5,482.2,58.9L482.2,58.9z M609.5,91.1v-0.2c0-4.5-1.1-8-3.4-10.5c-2.2-2.5-5.3-4.5-9.2-6
		c1.2-0.6,2.3-1.4,3.4-2.3c1.1-0.9,2-1.9,2.8-3.1c0.8-1.2,1.4-2.5,1.9-4c0.5-1.5,0.7-3.2,0.7-5.1v-0.2c0-5.3-2-9.6-5.9-12.7
		c-3.9-3.1-9.4-4.7-16.3-4.7h-31.3v67.4h32c3.8,0,7.2-0.4,10.3-1.2c3.1-0.8,5.8-1.9,8-3.5c2.2-1.5,3.9-3.5,5.1-5.8
		C608.9,96.9,609.5,94.2,609.5,91.1L609.5,91.1z M591.1,62.3c0,2.5-1,4.3-2.9,5.4c-1.9,1.1-4.5,1.7-7.8,1.7h-13.7V55.2h14.6
		c3.1,0,5.6,0.6,7.2,1.8c1.7,1.2,2.5,2.9,2.5,5.2V62.3L591.1,62.3z M594.8,89.3c0,2.5-0.9,4.4-2.8,5.5c-1.9,1.2-4.4,1.8-7.7,1.8
		h-17.6V81.7h17.1c3.9,0,6.6,0.7,8.4,2c1.7,1.3,2.6,3.1,2.6,5.3V89.3L594.8,89.3z M688.8,109.6V96.4h-36.6V82.2H684V69h-31.8V55.4
		h36.1V42.2h-50.8v67.4H688.8L688.8,109.6z M783.5,109.6l-28.9-67.9h-13.7L712,109.6h15.1l6.2-15.1h28.5l6.2,15.1H783.5L783.5,109.6
		z M756.5,81.4h-17.9l9-21.9L756.5,81.4L756.5,81.4z M860.7,55.8V42.2h-55.9v13.7h20.5v53.8h14.8V55.8H860.7L860.7,55.8z"/>
</g>
</svg>
