<svg id="Layer_1" data-name="Layer 1" xmlns="http://www.w3.org/2000/svg" width="116.53044" height="44.50129" viewBox="0 0 116.53044 44.50129">
  <title>navlogo-2018</title>
  <g>
    <path d="M236.72253,255.58694c-0.31893.32542-.63846,0.65325-0.958,0.97949v8.1718q0.92377-.02232,1.84725-0.04374c0.31923-.32518.63876-0.65214,0.95828-0.97762q-0.92377.021-1.84754,0.04076v-8.17069h0Z" transform="translate(-199.93928 -230.24935)" fill="#fff"/>
    <path d="M253.42747,263.52171v-6.50032q-0.94741.00625-1.89484,0.01249v-1.67252q-0.47929.48336-.958,0.96454v1.67163q0.947-.00848,1.89455-0.0131v6.49944q0.92154-.004,1.84248-0.00833,0.47929-.48108.95829-0.96215-0.92154.00267-1.84249,0.00833h0Z" transform="translate(-199.93928 -230.24935)" fill="#fff"/>
    <path d="M257.15469,257.00979q-0.94206,0-1.88473.00447v0.95649q0.46322-.00132.92585-0.00177,0.47929-.47976.95888-0.95918h0Z" transform="translate(-199.93928 -230.24935)" fill="#fff"/>
    <path d="M278.03311,256.50649q-0.45117,1.0785-.90385,2.15628-0.7082-1.68735-1.41674-3.37611,0.85014,2.02334,1.69908,4.04877,0.789-1.88368,1.5795-3.7651-0.478.46747-.958,0.93615h0Z" transform="translate(-199.93928 -230.24935)" fill="#fff"/>
    <path d="M273.7442,258.603q-0.65735-1.57665-1.31411-3.15686,0.7948,1.91033,1.5902,3.8203,0.84657-1.99033,1.69224-3.97974-0.47884.46958-.95739,0.94153-0.50562,1.18756-1.01094,2.37477h0Z" transform="translate(-199.93928 -230.24935)" fill="#fff"/>
    <path d="M276.45691,264.737q0.47794-.46859.95738-0.93806-0.84924-2.03139-1.6973-4.061-0.33424.81446-.66909,1.63036,0.36368,0.872.72831,1.74342,0.34137,0.81264.6807,1.62531h0Z" transform="translate(-199.93928 -230.24935)" fill="#fff"/>
    <path d="M270.94194,256.383c-0.13121-.32063-0.2633-0.64307-0.3951-0.96371q-0.47973.47135-.95858,0.94532,1.73775,4.21878,3.47492,8.4444,0.47975-.47171.9577-0.94073-1.53873-3.746-3.07894-7.48529h0Z" transform="translate(-199.93928 -230.24935)" fill="#fff"/>
    <path d="M246.4324,263.37236a1.40326,1.40326,0,0,1-.3942.08866,3.69,3.69,0,0,1-.4912.058c-0.34422.033-.73813,0.05236-1.16,0.05892q-1.1402.01784-2.28072,0.03659v-8.13448q-0.4784.48666-.958,0.97488v8.13485q1.14066-.021,2.281-0.03868c0.42187-.00745.81577-0.02767,1.1597-0.06011a3.7867,3.7867,0,0,0,.49179-0.05772,1.54293,1.54293,0,0,0,.39361-0.08955,3.74751,3.74751,0,0,0,.63608-0.23889,3.48069,3.48069,0,0,0,.847-0.60692v0.0006l0.05148-.05147c0.017-.01846.03481-0.03511,0.05176-0.05237q0.45564-.46054.911-0.919v-0.00178l0.00208-.00179a3.48074,3.48074,0,0,1-.90563.66344,3.69013,3.69013,0,0,1-.63577.23682h0Z" transform="translate(-199.93928 -230.24935)" fill="#fff"/>
    <path d="M246.45679,261.38022a1.95366,1.95366,0,0,0,.42752-0.54087,1.8237,1.8237,0,0,0,.13507-0.30792,3.46572,3.46572,0,0,0,.16363-1.0633,3.39363,3.39363,0,0,0-.16363-1.05588,1.87883,1.87883,0,0,0-.57539-0.8485,1.36969,1.36969,0,0,0-.5144-0.27311,3.1222,3.1222,0,0,0-.62418-0.09759c-0.20766-.01547-0.44508-0.02113-0.70629-0.01934-0.22551.00179-.43942,0.00476-0.64114,0.00744v0.9675c0.13894,0.00269.26925,0.00744,0.38914,0.01547a3.19949,3.19949,0,0,1,.62389.09788,1.3786,1.3786,0,0,1,.51529.27193,1.92313,1.92313,0,0,1,.45341.56646,1.783,1.783,0,0,1,.12169.28115,3.41309,3.41309,0,0,1,.16333,1.05586,3.47775,3.47775,0,0,1-.16333,1.06361c-0.01726.05445-.03779,0.10591-0.05951,0.15738a1.66236,1.66236,0,0,1-.16154.05623,1.586,1.586,0,0,0,.59413-0.31059l0.02232-.02381h0Z" transform="translate(-199.93928 -230.24935)" fill="#fff"/>
    <path d="M264.05754,263.52825a4.46893,4.46893,0,0,1-.82857-0.08835,4.06221,4.06221,0,0,1-1.49321-.61288,3.97811,3.97811,0,0,1-.62566-0.50428,3.91939,3.91939,0,0,1-.90354-1.31559,3.96569,3.96569,0,0,1-.29722-1.17308c-0.01189-.12644-0.01844-0.25437-0.01844-0.3823,0-.13834.00655-0.27757,0.02023-0.415a3.93574,3.93574,0,0,1,.67476-1.871,4.09283,4.09283,0,0,1,.49565-0.59267h-0.00089q-0.4784.478-.95769,0.95562h0a4.127,4.127,0,0,0-.49476.59324,4.14359,4.14359,0,0,0-.69648,2.28608,3.98092,3.98092,0,0,0,.31685,1.55568,3.89654,3.89654,0,0,0,.808,1.21713c0.03183,0.033.06277,0.06544,0.09491,0.09669a4.19647,4.19647,0,0,0,2.11917,1.11566,4.25131,4.25131,0,0,0,.82916.08688,4.15679,4.15679,0,0,0,1.56461-.30108,4.099,4.099,0,0,0,1.33464-.85356l0.00119,0.0012q0.5074-.50071,1.01391-1.00172l0.00119-.00655,0.00595-.00625a4.09275,4.09275,0,0,1-1.3986.91663,4.191,4.191,0,0,1-1.5652.29959h0Z" transform="translate(-199.93928 -230.24935)" fill="#fff"/>
    <path d="M265.28715,261.38767a2.3048,2.3048,0,0,0,.65125-0.64144,2.25025,2.25025,0,0,0,.35821-1.28078,2.32547,2.32547,0,0,0-.17018-0.89133,2.27717,2.27717,0,0,0-1.21533-1.26383,2.16442,2.16442,0,0,0-1.7336-.01576c-0.04254.01992-.11127,0.05533-0.20052,0.10323a1.86527,1.86527,0,0,0-.18029.10829,2.06113,2.06113,0,0,0-.3109.2529c-0.0119.01189-.0241,0.02588-0.0354,0.03867a2.259,2.259,0,0,0-.28413.34452c-0.039.0592-.07586,0.12168-0.11127,0.18891,0.07141-.03749.12823-0.06634,0.16482-0.083a2.15555,2.15555,0,0,1,1.733.014,2.26618,2.26618,0,0,1,1.21533,1.26144c0.00476,0.011.00744,0.022,0.0119,0.03332a2.496,2.496,0,0,1-.08449,1.9487c0.06426-.0369.12882-0.07349,0.1916-0.11781h0Z" transform="translate(-199.93928 -230.24935)" fill="#fff"/>
    <path d="M288.14581,259.11528q-1.87921-1.79713-3.75726-3.58828,2.07559,1.97806,4.15,3.96522c0.18772,0.18059.37665,0.36029,0.56467,0.54177v-4.18714q-0.47884.46416-.9574,0.92714v2.34129h0Z" transform="translate(-199.93928 -230.24935)" fill="#fff"/>
    <path d="M283.43026,264.80994q0.92377,0.025,1.847.05266c0.31981-.31149.63875-0.62032,0.958-0.93q-0.92288-.02767-1.84664-0.05445V255.527q-0.47884.46446-.95829,0.93077v8.35217h0Z" transform="translate(-199.93928 -230.24935)" fill="#fff"/>
    <path d="M286.78649,262.168q1.60076,1.5066,3.20121,3.01618,0.47886-.46324.9574-0.92557-2.35452-2.22463-4.7099-4.43737v1.8279c0.18416,0.17345.36773,0.34719,0.5513,0.51886h0Z" transform="translate(-199.93928 -230.24935)" fill="#fff"/>
    <path d="M227.58368,264.01469c-0.61561.01934-1.23128,0.04136-1.8471,0.06278q0.187-3.59514.37326-7.19115,0.0303-.58593.06075-1.17114-0.47916.49476-.95781,0.9905-0.21729,4.18249-.43371,8.364,0.92324-.03436,1.8473-0.06516c0.31914-.33023.63828-0.659,0.9573-0.98981h0Z" transform="translate(-199.93928 -230.24935)" fill="#fff"/>
    <path d="M231.59106,263.89122q-0.10711-2.06487-.21391-4.13183-0.89522.90369-1.78923,1.80946-0.89477-.851-1.789-1.7-0.04691.90457-.09431,1.80975c0.249,0.235.49705,0.47216,0.74607,0.70689,0.05962,0.05712.11913,0.11424,0.17982,0.17166q0.893-.90681,1.78833-1.81273,0.06381,1.22053.12734,2.442,0.04328,0.84434.08777,1.68986,0.92333-.02767,1.84725-0.05325,0.47839-.49269.958-0.98327-0.92422.02453-1.84814,0.05146h0Z" transform="translate(-199.93928 -230.24935)" fill="#fff"/>
    <path d="M245.93972,259.1004c-0.18446-.01189-0.39272-0.01755-0.62626-0.01279q-0.3356.004-.67119,0.00922v2.73591c0.2749-.00476.51768-0.01754,0.72295-0.04046a2.90284,2.90284,0,0,0,.47513-0.07766,1.66236,1.66236,0,0,0,.16154-0.05623c0.02172-.05147.04225-0.10293,0.05951-0.15738a3.47775,3.47775,0,0,0,.16333-1.06361,3.41309,3.41309,0,0,0-.16333-1.05586,1.783,1.783,0,0,0-.12169-0.28115h0Z" transform="translate(-199.93928 -230.24935)" fill="#fff"/>
    <path d="M264.63738,259.223a2.171,2.171,0,0,0-1.7333-.01488c-0.03659.01785-.094,0.04641-0.16512,0.086-0.03392.06455-.066,0.13536-0.09669,0.20826a2.40554,2.40554,0,0,0-.16958.88985c0,0.07557.003,0.15411,0.00922,0.22878a2.361,2.361,0,0,0,.14965.63578,2.25363,2.25363,0,0,0,.54652.33531,2.617,2.617,0,0,0,.2633.09579c0.03124,0.01041.06158,0.01667,0.09312,0.02529,0.055,0.01427.111,0.02915,0.16572,0.03956,0.03809,0.00715.07468,0.01071,0.11246,0.01637,0.0479,0.00626.0958,0.0119,0.144,0.01457,0.04046,0.003.08,0.00209,0.1196,0.00209,0.044,0,.08836,0,0.13209-0.00357,0.04165-.00268.08271-0.00684,0.12406-0.01189,0.04136-.00566.08271-0.0134,0.12436-0.02173,0.04225-.00922.08479-0.01845,0.12674-0.02916,0.03958-.01129.07973-0.02409,0.11871-0.036,0.04255-.01576.08539-0.03064,0.12793-0.047,0.03748-.01665.07587-0.0351,0.11395-0.05265,0.04255-.02113.08539-0.04017,0.12823-0.06426a0.24026,0.24026,0,0,1,.02321-0.014,1.33235,1.33235,0,0,0-.45817-2.2825h0Z" transform="translate(-199.93928 -230.24935)" fill="#fff"/>
    <path d="M238.57007,263.71688c-0.31952.32548-.63905,0.65244-0.95828,0.97762q-0.92333.02141-1.84725,0.04374,0.82158,0.45876,1.64226.91961,0.92289-.01964,1.847-0.03957v-8.17174q-0.34229-.3356-0.68368-0.671v6.94129h0Z" transform="translate(-199.93928 -230.24935)" fill="#fff"/>
    <path d="M257.15469,257.00979q-0.47929.47929-.95888,0.95918-0.46278,0-.92585.00177v5.54264q-0.47884.48108-.95829,0.96215-0.92153.004-1.84248,0.00833c0.54385,0.31685,1.088.6319,1.63244,0.94964q0.92154-.004,1.84278-0.00536v-6.5018q0.94743-.00135,1.89455-0.00268v-1.67142q-0.34228-.34005-0.68428-0.68305v0.44058h0Z" transform="translate(-199.93928 -230.24935)" fill="#fff"/>
    <path d="M250.57464,257.99754q0.82068,0.47259,1.642.94548c0.0842-.00119.16869-0.00178,0.25259-0.00178v-0.95681q-0.94742.004-1.89455,0.0131h0Z" transform="translate(-199.93928 -230.24935)" fill="#fff"/>
    <path d="M274.02088,263.86831q-0.47884.46992-.9577,0.94073,0.81578,0.42574,1.63036.85238,0.54133-1.27589,1.08265-2.54968-0.36371-.872-0.72831-1.74342-0.51366,1.24954-1.027,2.5h0Z" transform="translate(-199.93928 -230.24935)" fill="#fff"/>
    <path d="M280.476,256.56284q-1.5307,3.61578-3.0617,7.23615-0.47884.46857-.95738,0.93806,0.81441,0.56139,1.62916,1.12339,1.73912-4.15919,3.47493-8.31364c-0.31863-.32815-0.639-0.65424-0.95828-0.98218-0.04225,0-.0842-0.00178-0.12674-0.00178h0Z" transform="translate(-199.93928 -230.24935)" fill="#fff"/>
    <path d="M245.31346,259.08761c0.23354-.00476.4418,0.0009,0.62626,0.01279a1.92313,1.92313,0,0,0-.45341-0.56646,1.3786,1.3786,0,0,0-.51529-0.27193,3.19949,3.19949,0,0,0-.62389-0.09788c-0.1199-.008-0.25021-0.01278-0.38914-0.01547v3.69509q0.33559-.00535.67148-0.01011l0.01279-.0009v-2.73591q0.33559-.00535.67119-0.00922h0Z" transform="translate(-199.93928 -230.24935)" fill="#fff"/>
    <path d="M249.41107,259.46187a3.93762,3.93762,0,0,0-.35642-0.62864,5.80531,5.80531,0,0,1,.03273.60366c0,0.16125-.00565.32607-0.01606,0.48643a4.57746,4.57746,0,0,1-.34451,1.43637,3.83036,3.83036,0,0,1-.4555.77145c-0.04611.0598-.09282,0.11722-0.14161,0.17255l-0.019.02113c-0.044.05057-.09044,0.09936-0.13686,0.14727l-0.00208.00179v0.00178q-0.45652.45787-.911,0.919c-0.017.01726-.03481,0.03391-0.05176,0.05237l-0.05148.05147v-0.0006a3.48069,3.48069,0,0,1-.847.60692,3.74751,3.74751,0,0,1-.63608.23889,1.54293,1.54293,0,0,1-.39361.08955,3.7867,3.7867,0,0,1-.49179.05772c-0.34392.03243-.73783,0.05266-1.1597,0.06011q-1.14066.01651-2.281,0.03868,0.82113,0.46412,1.64256.92852,0.97732-.01606,1.95405-0.03123c0.50786-.00626.97287-0.02738,1.38015-0.0607a6.61283,6.61283,0,0,0,.84731-0.11812,3.47657,3.47657,0,0,0,.76788-0.26983,3.24932,3.24932,0,0,0,1.296-1.10763,4.19372,4.19372,0,0,0,.64917-1.57206,5.41408,5.41408,0,0,0,.08658-0.98149c0-.16125-0.00536-0.32488-0.01607-0.48642a4.52315,4.52315,0,0,0-.34482-1.42895h0Z" transform="translate(-199.93928 -230.24935)" fill="#fff"/>
    <path d="M262.47269,260.3922a2.40554,2.40554,0,0,1,.16958-0.88985c0.03064-.0729.06277-0.14371,0.09669-0.20826,0.0711-.03957.12853-0.06813,0.16512-0.086a2.171,2.171,0,0,1,1.7333.01488,2.34881,2.34881,0,0,1,.54266.3338c-0.00446-.0113-0.00714-0.02231-0.0119-0.03332a2.26618,2.26618,0,0,0-1.21533-1.26144,2.15555,2.15555,0,0,0-1.733-.014c-0.03659.01666-.09341,0.04551-0.16482,0.083-0.03481.06723-.06694,0.13716-0.09669,0.21123a2.37759,2.37759,0,0,0-.16958.88926c0,0.07706.00267,0.15351,0.00922,0.23027a2.30756,2.30756,0,0,0,.36891,1.06866,2.37387,2.37387,0,0,0,.46472.52629,2.361,2.361,0,0,1-.14965-0.63578c-0.00625-.07467-0.00922-0.15321-0.00922-0.22878h0Z" transform="translate(-199.93928 -230.24935)" fill="#fff"/>
    <path d="M267.752,257.64855a3.9729,3.9729,0,0,1,.4421,1.835,4.0581,4.0581,0,0,1-.3109,1.56669,3.93885,3.93885,0,0,1-.38468.692c-0.06961.10145-.1437,0.19636-0.22075,0.28859-0.01071.0119-.02053,0.02469-0.03183,0.03659-0.0714.08479-.14638,0.166-0.22462,0.24456l-0.00595.00625-0.00119.00655q-0.50652.50027-1.01391,1.00172l-0.00119-.0012a4.099,4.099,0,0,1-1.33464.85356,4.15679,4.15679,0,0,1-1.56461.30108,4.25131,4.25131,0,0,1-.82916-0.08688,4.19647,4.19647,0,0,1-2.11917-1.11566c-0.03213-.03124-0.06307-0.06367-0.09491-0.09669a3.94846,3.94846,0,0,0,.78037,1.05675,4.028,4.028,0,0,0,.62448.50338,4.07793,4.07793,0,0,0,1.4944.61348,4.35517,4.35517,0,0,0,.82738.08686,4.17141,4.17141,0,0,0,1.56551-.29959,4.10881,4.10881,0,0,0,1.33493-.85237l0.00119,0.00089q0.50562-.5016,1.01362-1.00171l0.0009-.00537a4.23729,4.23729,0,0,0,.48375-0.576,4.01067,4.01067,0,0,0,.38439-0.69231,4.05717,4.05717,0,0,0,.3106-1.56609,4.00214,4.00214,0,0,0-.695-2.26971,4.20447,4.20447,0,0,0-.43109-0.53047h0Z" transform="translate(-199.93928 -230.24935)" fill="#fff"/>
    <path d="M290.94509,264.25864q-0.47974.46324-.9574,0.92557,0.47886,0.49445.9574,0.9913c0.22819,0.00715.457,0.01666,0.68367,0.0241V257.675c-0.22669-.23682-0.45548-0.47275-0.68367-0.70868v7.29229h0Z" transform="translate(-199.93928 -230.24935)" fill="#fff"/>
    <path d="M286.23519,263.93257c-0.31923.3097-.63817,0.61853-0.958,0.93q-0.92333-.02767-1.847-0.05266,0.82156,0.58773,1.64256,1.17665,0.85282-.752,1.70593-1.50183,0.004-1.15806.00774-2.31672c-0.18357-.17167-0.36714-0.34541-0.5513-0.51886v2.2834h0Z" transform="translate(-199.93928 -230.24935)" fill="#fff"/>
    <path d="M227.58368,264.01469c-0.319.33083-.63816,0.65958-0.9573,0.98981q-0.92341.03169-1.8473,0.06516,0.82015,0.44939,1.64193.89938,0.9231-.03168,1.84671-0.06188,0.09216-1.76051.183-3.52164c-0.249-.23473-0.49705-0.47184-0.74607-0.70689q-0.05994,1.16968-.121,2.33606h0Z" transform="translate(-199.93928 -230.24935)" fill="#fff"/>
    <path d="M228.63053,262.55718q0.82024,0.4534,1.64136.90652c0.091-.09282.183-0.18535,0.27431-0.27727q-0.06338-1.22055-.12734-2.442-0.89476.90547-1.78833,1.81273h0Z" transform="translate(-199.93928 -230.24935)" fill="#fff"/>
    <path d="M233.07266,256.80156q0.183,3.51877.36654,7.03819-0.47929.49178-.958,0.98327-0.92377.02589-1.84725,0.05325,0.82113,0.45474,1.642.91038,0.92332-.02633,1.84724-0.04968-0.21688-4.16724-.43347-8.33566-0.30837-.30167-0.617-0.59975h0Z" transform="translate(-199.93928 -230.24935)" fill="#fff"/>
    <path d="M316.46972,262.61967q-3.509-.21957-7.01968-0.41473v-7.17538q-4.5707-.25444-9.14284-0.46069-5.08214-.22952-10.16688-0.40654-4.2525-.14775-8.50553-0.25254-3.4336-.08687-6.86532-0.14822-3.05573-.05516-6.10968-0.08851-4.13021-.04824-8.25953-0.05612-2.74411-.00692-5.48993.00179-5.21464.01922-10.42873,0.09671-3.12964.04582-6.25991,0.11328-3.3988.07337-6.7976,0.1716-4.0512.11624-8.10168,0.26911-3.46142.12941-6.921,0.28546-4.72255.21279-9.44375,0.47466v7.17538q-3.50939.19451-7.01842,0.41473,1.17016,3.23587,2.33915,6.4759-1.16921,2.82669-2.33915,5.65508,7.01757-.44089,14.03945-0.77679,3.23231-.15487,6.46542-0.28591-6.74506-3.03464-13.48644-5.97252,1.639-.09151,3.27665-0.17523,0.60859-.03171,1.21719-0.06069,1.03927-.054,2.07872-0.10414c0.43484-.02141.86987-0.04045,1.30391-0.061q1.001-.04683,2.00159-0.09191c0.4438-.02051.88787-0.0387,1.33141-0.058q0.49021-.0217.98059-0.0421,0.49048-.0209.98059-0.0421c0.10553-.00358.21052-0.008,0.31579-0.01277v0.00116q37.744-1.53875,75.51937,0v-0.00116c0.1024,0.00475.20524,0.00918,0.30826,0.01277q0.996,0.04193,1.99057.08569,0.65428,0.02674,1.30794.05532,1.00353,0.04555,2.00759.09312c0.43377,0.02056.86718,0.0396,1.30041,0.061q1.03215,0.04952,2.06349.10325,0.61719,0.0303,1.23349.06159,1.63779,0.08432,3.27477.17523-6.74089,2.93688-13.48653,5.97252,3.23365,0.13344,6.46667.28591,7.0212,0.33561,14.03954.77679-1.17042-2.828-2.34049-5.65508Q315.29938,265.857,316.46972,262.61967Zm-84.19385,3.167q-0.82051-.45655-1.64191-0.9104-0.04381-.8461-0.08779-1.68984c-0.09129.09191-.18329,0.18445-0.27431,0.27726q-0.82024-.4552-1.64137-0.90651c-0.06065-.05742-0.12013-0.11458-0.17971-0.17169q-0.09151,1.761-.18311,3.52166-0.9229.03077-1.8467,0.06186-0.82118-.4503-1.64191-0.89939,0.21688-4.18282.43377-8.364,0.47865-.49478.95775-0.99049,1.70807,1.63618,3.41739,3.27486,1.7078-1.74448,3.41685-3.485c0.02267,0.43005.04524,0.86422,0.06782,1.29651v0q0.3088,0.298.61706,0.59972,0.21688,4.16723.4335,8.33563Q233.20029,265.76154,232.27586,265.78667Zm6.97793-.16842q-0.9229.01922-1.84706,0.0396-0.82145-.46058-1.64218-0.91963v-8.17178c0.31955-.32627.639-0.65406,0.95793-0.97952q0.92384-.02331,1.84759-0.04152v1.23018q0.34186,0.33614.68371,0.67094v8.17174Zm10.4316-3.25954a4.19485,4.19485,0,0,1-.64913,1.57208,3.24961,3.24961,0,0,1-1.296,1.10763,3.47879,3.47879,0,0,1-.76783.26983,6.61468,6.61468,0,0,1-.84729.11812c-0.40734.03333-.87238,0.05447-1.38023,0.06069q-0.97732.01518-1.954,0.03122-0.82118-.46541-1.64254-0.9285v-8.13483q0.47879-.48819.958-0.97486v0q0.48859-.00826.97728-0.01559,0.48873-.00773.97728-0.01554c0.25388-.00381.49711-0.00385,0.72779-0.00013s0.44873,0.01111.65236,0.02208c0.07866,0.00439.14961,0.01241,0.22432,0.01863a6.18309,6.18309,0,0,1,.62279.078,3.32307,3.32307,0,0,1,.76756.25173,3.1262,3.1262,0,0,1,1.29593,1.07869,4.12964,4.12964,0,0,1,.64976,1.56043c0.02258,0.12139.03924,0.24779,0.05321,0.37487a3.93861,3.93861,0,0,1,.35646.62862,4.5261,4.5261,0,0,1,.34481,1.429c0.01066,0.16152.016,0.32515,0.016,0.4864A5.41667,5.41667,0,0,1,249.6854,262.35871Zm8.15355-3.435q-0.947,0-1.89454.00269v6.50179q-0.922.00181-1.84285,0.00533c-0.54432-.31771-1.08854-0.63278-1.63241-0.94964v-5.54261c-0.08385,0-.16842.00058-0.25254,0.00179q-0.82118-.47307-1.642-0.94548V256.3259q0.47892-.48248.958-0.96456,2.811-.01975,5.62207-0.02316v1.231q0.34172,0.3428.68425,0.683v1.67143Zm10.72857,3.09112a4.003,4.003,0,0,1-.38441.69231,4.23837,4.23837,0,0,1-.48376.576l-0.0009.00538q-0.50741.50069-1.01365,1.00169l-0.00116-.0009a4.10759,4.10759,0,0,1-1.3349.8524,4.17135,4.17135,0,0,1-1.56549.29957,4.355,4.355,0,0,1-.8274-0.08685,4.07816,4.07816,0,0,1-1.49436-.61348,4.0279,4.0279,0,0,1-.62449-0.50338,3.94829,3.94829,0,0,1-.78037-1.05679,3.89573,3.89573,0,0,1-.80805-1.2171,3.982,3.982,0,0,1-.31686-1.55568,4.144,4.144,0,0,1,.69652-2.28607,4.12984,4.12984,0,0,1,.49469-0.59327q0.47838-.47879.95775-0.9556h0.00081a4.2292,4.2292,0,0,1,.599-0.49227c0.01962-.01559.04076-0.03037,0.06163-0.04591a4.10816,4.10816,0,0,1,.5281-0.28887,4.3004,4.3004,0,0,1,4.07136.31744,4.14761,4.14761,0,0,1,1.41051,1.58511,4.20317,4.20317,0,0,1,.43108.53048,4.00236,4.00236,0,0,1,.695,2.26972A4.05845,4.05845,0,0,1,268.56752,262.01479Zm9.51855,3.84565q-0.81406-.561-1.62919-1.12339-0.34-.81265-0.68066-1.62534-0.54046,1.27322-1.08272,2.54971-0.81567-.42577-1.63026-0.8524-1.73736-4.22434-3.475-8.44439,0.47838-.47254.95856-0.94534,0.94118,0.01256,1.88325.02679,0.165,0.39628.32985,0.79242,0.49236,1.18245.98436,2.36445,0.50418-1.18756,1.01087-2.37476,0.47784-.47139.95739-0.94154,0.70884,1.68717,1.41678,3.37609,0.45245-1.07817.90382-2.1563,0.47879-.46716.95793-0.93612,0.47153,0.01035.9427,0.02208,0.47126,0.01109.9427,0.02208c-0.13366.31623-.26714,0.63327-0.40044,0.94834,0.04246,0,.08448.00175,0.12667,0.00175,0.31928,0.328.63963,0.65406,0.95829,0.98221Q279.82415,261.70066,278.08608,265.86044Zm13.5427,0.33917c-0.22665-.00744-0.45545-0.017-0.68371-0.0241q-0.47973-.49625-0.9573-0.9913-1.60043-1.51107-3.20122-3.01618-0.004,1.15988-.00779,2.31671-0.85289.75016-1.706,1.50184-0.821-.58864-1.64254-1.17665v-8.35216q0.47879-.466.95829-0.93078,1.87926,1.79017,3.75727,3.58827V256.774q0.47838-.46353.95739-0.92716c0.614,0.02114,1.22812.04152,1.84186,0.06432v1.05522c0.22826,0.23592.45706,0.4718,0.68371,0.70861v8.52461Z" transform="translate(-199.93928 -230.24935)" fill="#fff"/>
    <path d="M271.82108,243.30829a4.58629,4.58629,0,0,0-1.51765-2.2944c-0.373-.30127-0.76425-0.59435-1.16827-0.881a27.15843,27.15843,0,0,0-2.65556-1.653,18.83579,18.83579,0,0,1-1.7916-1.11775,1.55622,1.55622,0,0,1-.82651-1.1758,1.24471,1.24471,0,0,1,.446-1.02651,1.81588,1.81588,0,0,1,1.09428-.42651c0.02526,0.00081.05115,0.00081,0.077,0.00081a1.8619,1.8619,0,0,1,1.28258.47363,5.95273,5.95273,0,0,1,1.04393,1.24953c0.07409,0.11691.14764,0.23489,0.22136,0.35108q1.5315-1.34088,3.0629-2.67778c0.06486-.05527.13-0.11238,0.194-0.16963-0.05142-.0839-0.10231-0.16851-0.15355-0.2524a6.579,6.579,0,0,0-2.43366-2.46774,7.53851,7.53851,0,0,0-3.34545-.78508c-0.05178,0-.10356-0.00081-0.155-0.00081a6.03927,6.03927,0,0,0-4.19821,1.59958c-0.047.04237-.09218,0.0856-0.13769,0.129-0.02777.02589-.056,0.05165-0.08278,0.07843l-0.01129.011a5.58206,5.58206,0,0,0-1.71125,3.8959v0.23135a5.56123,5.56123,0,0,0,.251,1.70654,4.36617,4.36617,0,0,0,1.14185,1.84025,13.76031,13.76031,0,0,0,3.17811,2.29529c0.62028,0.33912,1.41822.76295,2.37471,1.26238a1.85372,1.85372,0,0,1,1.24953,1.55635,1.62758,1.62758,0,0,1-.5427,1.36756,2.24188,2.24188,0,0,1-1.45987.45057,4.2924,4.2924,0,0,1-.64859-0.05075c-0.06862-.01017-0.13438-0.02213-0.19959-0.03686-0.03987-.00918-0.0783-0.01935-0.11718-0.02943-0.036-.01008-0.072-0.01926-0.10714-0.03127-0.03512-.01017-0.06988-0.02137-0.1032-0.03238-0.04228-.01559-0.08394-0.03315-0.12434-0.04887-0.02293-.01008-0.04712-0.01935-0.0697-0.02943a1.72283,1.72283,0,0,1-.17218-0.09218,0.61505,0.61505,0,0,1-.05214-0.0331c-0.04049-.02576-0.08089-0.05433-0.1187-0.0839-0.01487-.012-0.03037-0.02307-0.04488-0.03507a1.698,1.698,0,0,1-.14136-0.13075c-0.04246-.04614-0.08331-0.09308-0.12291-0.14293a4.56853,4.56853,0,0,1-.82973-1.70838c-0.04909-.17868-0.09872-0.35838-0.14746-0.53719q-0.92478.79625-1.85,1.59792-0.87278.75318-1.7452,1.50659c0.031,0.07834.06217,0.15476,0.09317,0.23305a6.59518,6.59518,0,0,0,1.56128,2.33037,6.41231,6.41231,0,0,0,1.185.89468,6.98714,6.98714,0,0,0,3.54953,1.00729c0.14441,0.00085.28479-.00376,0.42015-0.01111a7.6653,7.6653,0,0,0,4.67919-1.75994c0.10329-.08757.2-0.17971,0.29491-0.27287a5.2909,5.2909,0,0,0,1.39976-2.33856l0.00242-.00838c0.0232-.08116.04551-0.16493,0.06576-0.24784l0.01272-.05621c0.01666-.07006.03216-0.14275,0.04614-0.21554,0.00654-.03319.01165-0.06737,0.01819-0.10051,0.01039-.06083.02114-0.12157,0.02974-0.18432,0.00681-.04882.01254-0.09765,0.01845-0.14741,0.00654-.04972.01308-0.09953,0.01845-0.15113,0.00654-.06544.01129-0.13357,0.01577-0.19991,0.00206-.03785.00645-0.07377,0.00833-0.11055,0.00529-.106.00923-0.21294,0.01012-0.32071v-0.07834A6.62556,6.62556,0,0,0,271.82108,243.30829Zm-3.25183,5.28653a5.00542,5.00542,0,0,1-3.13923,1.02082H265.3811c-0.20945-.00175-0.41854-0.01375-0.64143-0.034a6.18217,6.18217,0,0,1-1.37118-.27458,5.56055,5.56055,0,0,1-1.65947-1.00523,7.022,7.022,0,0,1-.5728-0.54924l-0.44085-.47722,0.71139-.65719,0.44147,0.4765a5.5541,5.5541,0,0,0,.60541.565,4.5726,4.5726,0,0,0,1.22068.72967,5.26269,5.26269,0,0,0,1.15313.22763c0.07059,0.00649.139,0.01106,0.20622,0.01568,0.12076,0.00739.23883,0.01286,0.35673,0.01375,0.09693,0.00094.19189-.00273,0.28649-0.00739a3.98489,3.98489,0,0,0,2.29856-.80985,3.231,3.231,0,0,0,1.20017-2.687,3.45482,3.45482,0,0,0-2.22717-3.09435c-0.96124-.49388-2.86779-1.54529-3.1197-1.70659-0.28327-.17872-0.54987-0.35471-0.81217-0.53442a5.3468,5.3468,0,0,1-1.20742-1.12335,3.66543,3.66543,0,0,1-.81-2.27962c0-.05156.00269-0.10231,0.00385-0.152a3.85249,3.85249,0,0,1,1.43219-2.94967,4.61294,4.61294,0,0,1,2.73386-1.04021l0.18383-.002a4.86844,4.86844,0,0,1,1.95949.41482l0.01541,0.00641c0.07319,0.037.30047,0.15194,0.54862,0.30226a3.12576,3.12576,0,0,1,.6468.49106l-0.714.65433a4.153,4.153,0,0,0-.90149-0.57325,3.857,3.857,0,0,0-1.5551-.32622l-0.14943.001c-0.11861.00564-.23588,0.01841-0.35189,0.035a3.64379,3.64379,0,0,0-1.80352.78611,2.89827,2.89827,0,0,0-.72886.88913,3.09339,3.09339,0,0,0-.35108,1.46332,2.72217,2.72217,0,0,0,.60873,1.689,4.37647,4.37647,0,0,0,.98919.91511c0.25137,0.17321.50812,0.3419,0.78306,0.515,0.18293,0.11794,2.04029,1.14816,3.04292,1.66332,2.27447,1.17114,2.75312,2.79751,2.75312,3.95588A4.16439,4.16439,0,0,1,268.56924,248.59482Z" transform="translate(-199.93928 -230.24935)" fill="#fff"/>
    <path d="M275.13625,230.57544v20.979q2.37108,0.04421,4.74109.09859V230.67224Q277.50693,230.61835,275.13625,230.57544Zm2.85551,2.51666v16.21035h-0.96805v-16.3854h0.96805v0.175Z" transform="translate(-199.93928 -230.24935)" fill="#fff"/>
    <path d="M287.81669,240.95773c0.00511-.08658.01165-0.1733,0.01935-0.25908,0.00358-.04045.00779-0.081,0.01227-0.12157,0.00976-.08573.02051-0.17052,0.03306-0.25532,0.00466-.03315.00914-0.06714,0.01451-0.10128a6.36,6.36,0,0,1,.14728-0.681c0.00681-.02764.01523-0.05339,0.02293-0.07919,0.0241-.084.04936-0.16681,0.077-0.24609,0.00985-.03216.02114-0.06262,0.03207-0.093,0.028-.08022.05805-0.15749,0.08958-0.23408,0.01012-.02661.02114-0.05339,0.03153-0.07924a5.16839,5.16839,0,0,1,1.1276-1.66413,5.47671,5.47671,0,0,1,4.23709-1.50561,7.88619,7.88619,0,0,1,5.04469,2.14242q0.67995,0.604,1.36258,1.21069,0.05832-1.125.11861-2.24934,0.08089-1.49972.15982-3.00122-0.20264-.14788-0.40609-0.29666a11.82633,11.82633,0,0,0-4.69469-2.10824,10.7009,10.7009,0,0,0-5.82677.41088c-0.15534.05451-.30737,0.11516-0.458,0.177-0.035.01465-.069,0.02947-0.1041,0.04417-0.141.05989-.28112,0.12264-0.41711,0.18889l-0.01872.00838a9.31232,9.31232,0,0,0-2.63119,1.89825,10.01608,10.01608,0,0,0-2.70134,5.32236,11.39885,11.39885,0,0,0-.15713,1.89539,10.70745,10.70745,0,0,0,1.74278,5.97843,10.2074,10.2074,0,0,0,6.75648,4.54929,13.83565,13.83565,0,0,0,2.19124.26548,11.59651,11.59651,0,0,0,3.27289-.33464,9.11477,9.11477,0,0,0,2.87011-1.27613c0.12192-.08112.24457-0.1613,0.36712-0.24233v-5.73244q-0.29052.2363-.58051,0.47166c-0.36712.30145-.71963,0.58436-1.05611,0.85244a9.47581,9.47581,0,0,1-1.08621.73437,7.39634,7.39634,0,0,1-4.05711,1.00716,5.41858,5.41858,0,0,1-3.78621-1.59779q-0.08963-.0899-0.17639-0.18248a6.17029,6.17029,0,0,1-1.58843-4.32533c0-.12717.00358-0.25249,0.00923-0.37684C287.8123,241.03419,287.815,240.99629,287.81669,240.95773Zm1.97525,7.262a7.33636,7.33636,0,0,0,3.773,1.06059,8.5899,8.5899,0,0,0,4.53191-1.27067c0.01344-.01017.03574-0.02764,0.04676-0.0378v1.149a10.13334,10.13334,0,0,1-4.57867,1.1289,8.93092,8.93092,0,0,1-8.671-8.94844,8.33261,8.33261,0,0,1,8.68945-8.39731,8.86182,8.86182,0,0,1,4.15566,1.22731l0.01183,0.00842c0.04793,0.02956.31005,0.19538,0.58553,0.38517-0.01129.20918-.022,0.41733-0.03243,0.62759-0.00985.16582-.01845,0.33254-0.02679,0.4984l-0.01836.02123a11.97589,11.97589,0,0,0-1.01929-.71054,7.88564,7.88564,0,0,0-3.69214-1.08917,7.36929,7.36929,0,0,0-7.68529,7.4289A8.12556,8.12556,0,0,0,289.79195,248.21973Z" transform="translate(-199.93928 -230.24935)" fill="#fff"/>
    <path d="M251.58022,230.4455v12.44726a5.21182,5.21182,0,0,1-.66042,2.794,2.83839,2.83839,0,0,1-.17827.25608,3.25174,3.25174,0,0,1-2.53148,1.04765l-0.00538.001c-0.08985.00457-.1806,0.00739-0.27467,0.0082a4.81556,4.81556,0,0,1-1.86677-.29567,2.34655,2.34655,0,0,1-.96465-0.69392,4.77133,4.77133,0,0,1-.84371-3.03526V230.52671q-2.34461.03447-4.68958,0.08112v12.73084c0,5.47631,2.81386,8.18267,8.3647,8.11812q4.2017-.04421,6.30909-2.14515a7.77687,7.77687,0,0,0,2.05077-5.1685c0.00269-.04233.00448-0.08658,0.00681-0.129,0.00654-.11794.01362-0.23691,0.0172-0.35749,0.006-.1651.00869-0.33182,0.00869-0.50226V230.42252Q253.95148,230.42823,251.58022,230.4455Zm2.84485,2.44477v10.18032c-0.00063,2.45019-.60255,4.154-1.84168,5.20339a4.28619,4.28619,0,0,1-.42445.318,6.10461,6.10461,0,0,1-2.15792.84308,11.16793,11.16793,0,0,1-2.0772.20918c-0.05563.001-.11216,0.001-0.16779,0.001-2.16831,0-3.72305-.49384-4.74889-1.50843-1.05647-1.045-1.57024-2.65838-1.57024-4.93352V232.85981h0.96895V243.2033c0,2.00325.41979,3.3919,1.28232,4.24421a4.34586,4.34586,0,0,0,2.4066,1.103,10.00657,10.00657,0,0,0,1.81839.12537,10.35354,10.35354,0,0,0,1.8957-.18979c0.0895-.01841.17729-0.03879,0.26356-0.05895a4.94846,4.94846,0,0,0,1.55125-.64138,3.89135,3.89135,0,0,0,.33406-0.24972c1.00765-.85522,1.49857-2.31666,1.49857-4.46544V232.72727h0.96877v0.163Z" transform="translate(-199.93928 -230.24935)" fill="#fff"/>
    <path d="M235.58935,233.58038q-0.08573-1.66688-.17254-3.331-4.38634,4.45487-8.7716,8.95287-4.3858-4.20056-8.76945-8.35767-0.07848,1.50254-.156,3.00772-0.47811,9.23432-.9573,18.47075,2.37028-.10508,4.7402-0.19816,0.27547-5.32409.55184-10.64651,2.29462,2.16428,4.59068,4.3419,2.29543-2.33326,4.59122-4.65343,0.27668,5.30474.55157,10.60781,2.37108-.06618,4.74181-0.12157Q236.05976,242.61634,235.58935,233.58038Zm-2.06027,15.8612-0.65424-12.58172-0.06334.06455q-2.08419,2.10529-4.1682,4.21841l-2.00177,2.03-1.17831-1.11676q-2.08473-1.9738-4.16963-3.93931l-0.90624-.85325-0.6589,12.67937-0.96689-.0507,0.74517-14.34345,0.0215-.42481,2.43025,2.28889q2.08473,1.96406,4.17071,3.9402l0.071,0.06808,0.41836,0.39538,1.33427-1.35277q2.0854-2.11745,4.17053-4.22114l1.60536-1.61906,0.76756,14.76844Z" transform="translate(-199.93928 -230.24935)" fill="#fff"/>
  </g>
</svg>
