<svg xmlns="http://www.w3.org/2000/svg" viewBox="0 0 1920 178.1"><style>.st0{fill:#15151e}.st1{fill:#ff1800}.st2{fill:#fff}.st3{fill:#e10600}</style><g id="Layer_1"><path class="st2" d="M594 7.3h116.4V38h-80.1v24.2h80.1v29.7h-80.1V116h80.1v30.7H594V7.3zM730.3 62.1v-27h26.2c22.3 0 36.3 6.9 43.9 19.5C808 42 822 35.1 844.3 35.1h54.1v27h-53c-14.7 0-21.2 6.5-21.2 19.9v19.1c0 14.9 6.5 18.6 21.2 18.6h19.5v27h-20.6c-22.3 0-36.2-6.9-43.9-19.3-7.6 12.5-21.6 19.3-43.9 19.3h-26.2v-27h25.1c14.7 0 21.2-3.7 21.2-18.6V82c0-13.4-6.5-19.9-21.2-19.9h-25.1z"/><path class="st2" d="M890.6 35.2h79.2c27.7 0 44.1 19.9 44.1 50.2v11.2c0 30.3-16.4 50.2-44.1 50.2h-43.9v27.9h-35.3V35.2zm35.3 27.5v56.5h31.8c15.2 0 19.9-6.7 19.9-21.4V83.1c0-14.7-4.7-20.4-19.9-20.4h-31.8zM1063.5 101.3v.7c0 14.1 5.4 17.7 20.6 17.7h56.5v27h-54.5c-43.7 0-58.6-20.3-58.6-50.2V82.4c0-29.6 15.6-48.7 54.8-48.7h7.4c42 0 53.3 20.8 53.3 51.5v16.2h-79.5zm16-42.7c-11.9 0-16 4.8-16 16.9v2.4h46.3v-2.4c0-12.1-4.5-16.9-15.8-16.9h-14.5zM1204.8 35.2h32.7v27h-24.7c-12.6 0-16 3.9-16 14.9v69.7h-35.3V76.6c0-21.2 12.2-41.4 43.3-41.4zM1253.3 25.5V3.6h35.3v21.9h-35.3zm0 9.7h35.3v111.5h-35.3V35.2zM1344.4 101.3v.7c0 14.1 5.4 17.7 20.6 17.7h56.5v27H1367c-43.7 0-58.6-20.3-58.6-50.2V82.4c0-29.6 15.6-48.7 54.8-48.7h7.4c42 0 53.3 20.8 53.3 51.5v16.2h-79.5zm16-42.7c-11.9 0-16 4.8-16 16.9v2.4h46.3v-2.4c0-12.1-4.5-16.9-15.8-16.9h-14.5zM1442.4 35.2h69.2c32.7 0 46.3 17.5 46.3 45.5v66h-35.3V79.8c0-11.5-3-15.8-13.9-15.8h-30.9v82.7h-35.3V35.2zM1611.7 82v19.1c0 14.9 6.5 18.6 21.2 18.6h41.8v27h-42.9c-40.2 0-56.3-18.2-56.3-48.9V84.2c0-30.7 16.2-49.1 56.3-49.1h42.9v27h-41.8c-14.6 0-21.2 6.5-21.2 19.9zM1723.1 101.3v.7c0 14.1 5.4 17.7 20.6 17.7h56.5v27h-54.5c-43.7 0-58.6-20.3-58.6-50.2V82.4c0-29.6 15.6-48.7 54.8-48.7h7.4c42 0 53.3 20.8 53.3 51.5v16.2h-79.5zm16-42.7c-11.9 0-16 4.8-16 16.9v2.4h46.3v-2.4c0-12.1-4.5-16.9-15.8-16.9h-14.5z"/><path class="st2" d="M1848.4 101.7c-22.5-4.5-34.4-15.4-34.4-34 0-17.5 13-32.5 43.5-32.5h55.4v27h-58.2c-7.4 0-9.3 2.4-9.3 5.6 0 3.4 1.9 5 7.4 6.1l27.5 5.4c27.5 5.4 38.1 15.6 38.1 33.6 0 20.1-14.9 33.8-46.1 33.8h-91.8v-27h96.8c8 0 10.4-2.6 10.4-6.1 0-3.7-3.7-4.8-9.1-5.9l-30.2-6z"/><g><path class="st2" d="M455.2 131.9h5.5v14.8h3v-14.8h5.5v-2.6h-14.1v2.6zm16.1 14.8h2.9v-13.4l4.8 13.4h2.5l4.8-13.4v13.4h2.9v-17.4H485l-4.7 13.6-4.8-13.6h-4.3v17.4zM142.2 86.7l-61.8 60H1.5l98.1-97.4c36.5-36.1 54.1-42 116.3-42h245.7l-53.3 52.2H222.9c-46.4 0-56.3 3.6-80.7 27.2zm258.1-18.9H224c-46.8 0-54.1 3.6-75.4 24.8l-54.1 54.1h73.1l17.4-17.4c11.5-11.5 16.6-12.6 39.8-12.6h126.5l49-48.9zm19.1 78.9L559.2 7.3h-86.8L332.9 146.7h86.5z"/></g></g></svg>