<?xml version="1.0" encoding="UTF-8"?>
<svg width="1360px" height="452px" viewBox="0 0 1360 452" version="1.1" xmlns="http://www.w3.org/2000/svg" xmlns:xlink="http://www.w3.org/1999/xlink">
    <!-- Generator: Sketch 55 (78076) - https://sketchapp.com -->
    <title>Logo blue</title>
    <desc>Created with Sketch.</desc>
    <g id="Logo-blue" stroke="none" stroke-width="1" fill="none" fill-rule="evenodd">
        <path d="M1331.38106,273.667784 C1224.38362,271.289643 1166.71358,271.289643 1158.37094,273.667784 C1145.85697,277.234994 1107.85774,336.201812 1098.60208,336.022706 C1089.34642,335.8436 1054.26035,277.303821 1040.86945,273.667784 C1031.94219,271.243759 975.256285,271.243759 870.811738,273.667784 C857.767358,273.667784 847.192799,263.094053 847.192799,250.050696 L847.192799,42.617088 C847.192799,29.5737305 857.767358,19 870.811738,19 L1331.38106,19 C1344.42544,19 1355,29.5737305 1355,42.617088 L1355,250.060142 C1354.99478,263.099811 1344.42175,273.667785 1331.38106,273.667784 Z M1073.99603,94.9997893 C1085.59765,94.9997893 1095.03578,102.821769 1095.03578,112.433924 C1095.03578,120.544032 1088.74369,130.628528 1076.33903,142.399285 L1024.47184,191.522828 L1024.47184,213.193868 L1126.50565,213.193868 L1126.50565,185.325704 L1069.34782,185.325704 L1094.22329,161.746403 C1114.81428,142.852733 1125.25385,125.886217 1125.25385,111.366431 C1125.24995,99.2389991 1119.78258,87.7585846 1110.3692,80.111577 C1100.2695,71.436363 1087.306,66.8237408 1073.99603,67.1694127 C1050.91018,66.948534 1029.98749,80.722257 1021.06598,102.014064 L1048.05771,114.975122 C1053.32473,102.094362 1062.53612,94.9997893 1074.01965,94.9997893 L1073.99603,94.9997893 Z M955.169143,94.9997893 C966.770766,94.9997893 976.213618,102.821769 976.213618,112.433924 C976.213618,120.534585 969.921533,130.619081 957.516866,142.399285 L905.649674,191.522828 L905.649674,213.193868 L1007.68349,213.193868 L1007.68349,185.325704 L950.52566,185.325704 L975.401127,161.746403 C995.992118,142.852733 1006.43169,125.886217 1006.43169,111.366431 C1006.42779,99.2389991 1000.96042,87.7585846 991.547034,80.111577 C981.447108,71.4367602 968.483771,66.8241943 955.173867,67.1694127 C932.09582,66.9555887 911.183614,80.7285576 902.267442,102.014064 L929.259166,114.975122 C934.521466,102.094362 943.732852,94.9997893 955.192762,94.9997893 L955.169143,94.9997893 Z M611.208766,433 L611.170992,433 C607.666059,432.827659 604.380186,431.239011 602.062846,428.59641 C599.701999,425.603862 598.715165,413.723639 598.469637,410.129741 C598.068293,404.329313 597.709444,394.115824 599.853093,390.848645 C603.110561,387.405528 607.767871,385.658902 612.478901,386.113601 C613.154103,386.113601 613.635716,386.113601 613.829306,386.146747 C635.31301,386.146747 647.466649,375.767532 658.657062,347.958623 L670.579338,318.09944 C664.223939,302.118668 593.214392,123.48916 591.821493,118.754117 C591.517126,117.700956 591.738709,116.565219 592.416426,115.704749 C595.301381,111.831484 608.531566,110.088988 617.002284,110.088988 C624.708087,110.088988 634.368672,111.329569 636.611476,117.234168 C639.860001,125.785656 684.258084,233.266404 694.792181,258.759877 C705.000482,233.058062 747.146317,127.125674 752.571543,116.964271 C755.905058,110.709278 765.046257,109.388201 772.133519,109.388201 C781.307769,109.388201 792.908969,111.755723 795.704212,115.543758 C796.423372,116.46208 796.650708,117.674431 796.31331,118.791997 C794.774038,123.692767 703.744512,354.597153 699.868002,364.412898 L699.868002,364.446043 C689.763578,389.020918 678.903683,405.427843 665.697107,416.09116 C651.532027,427.540495 634.217577,432.910034 611.255983,432.99053 L611.208766,433 Z M188.201702,155.706395 C184.854021,155.356002 187.573717,117.882869 192.923395,117.826049 C198.273074,117.769228 220.309217,117.826049 220.309217,117.826049 C220.309217,117.826049 220.280887,80.1682492 220.309217,78.4920439 C220.337547,76.8158386 263.276626,68.2454102 263.276626,75.2106589 C263.276626,82.1759076 263.276626,117.826049 263.276626,117.826049 C263.276626,117.826049 312.287803,117.546681 318.048269,117.826049 C323.808735,118.105416 320.58854,155.706395 318.048269,155.706395 L263.276626,155.706395 L263.276626,260.350852 C262.998792,267.973398 265.798312,275.386156 271.041701,280.911737 C276.28509,286.437317 283.529132,289.608652 291.134617,289.70812 C297.042446,289.90298 302.956604,289.744865 308.845689,289.234616 C314.270914,288.434393 320.413837,285.356615 320.442168,291.460086 C320.470498,297.563557 321.221247,319.647799 320.442168,325.149919 C319.663088,330.652039 288.301601,330.902997 288.301601,330.902997 C270.301132,331.391637 252.831688,324.758291 239.668159,312.436328 C227.048115,300.154404 220.043478,283.192947 220.309217,265.559399 L220.309217,155.706395 C220.309217,155.706395 191.549383,156.056788 188.201702,155.706395 Z M558.822378,334.525575 C556.789591,335.5123 554.429419,336.005791 552.055499,335.910508 C542.097685,335.13216 532.30139,332.949049 522.955688,329.427513 L522.955688,304.062096 L515.490302,310.595431 C497.519869,326.322261 474.379235,334.816646 450.53307,334.440487 C436.689858,334.573618 423.081147,331.868548 410.441067,326.493582 C398.023361,320.964602 386.777402,312.945414 377.440423,302.942245 C357.88351,281.638228 347.397844,253.469996 348.251085,224.486115 L348.251094,224.221459 C347.400138,195.247265 357.880416,167.088549 377.452181,145.760684 C386.763237,135.785525 398.009196,127.766336 410.496165,122.207215 C423.071896,116.851784 436.685472,114.138952 450.420079,114.267141 C474.379235,113.890618 497.519869,122.385003 515.490302,138.111833 L522.955688,144.645168 L522.955688,119.61817 C530.875147,118.420212 538.87932,117.742024 546.902642,117.590535 C550.710522,117.480978 554.471286,117.876679 558.13011,118.76611 C560.831148,119.551246 561.448218,120.315124 561.458453,121.28605 C561.53223,128.929863 561.728193,183.283193 561.779281,222.87974 C561.857536,283.531407 561.679151,323.622709 561.176725,330.711098 C561.101452,332.399092 560.205121,333.807018 558.822378,334.525575 Z M410.606269,271.973962 C422.053447,284.452065 438.278946,291.420094 455.183776,291.117742 C471.961656,291.534067 488.075291,284.539944 499.256062,271.988167 C511.452259,259.19955 518.027315,242.041743 517.510128,224.353632 C518.025978,206.680946 511.461981,189.537311 499.284392,176.752242 C488.10328,164.180514 471.97673,157.173161 455.183776,157.589521 C438.284755,157.293827 422.067088,164.263169 410.625156,176.738037 C398.753557,189.689021 392.380308,206.768638 392.857424,224.353632 C392.380308,241.938625 398.753557,259.018243 410.625156,271.969227 L410.606269,271.973962 Z M168.37059,166.596994 C170.348979,175.460995 129.326908,175.929765 128.708366,173.699559 C127.609367,170.447539 126.054511,167.368892 124.09055,164.556191 C116.073114,154.541574 104.15556,150.024343 87.1574643,150.024343 C66.8541829,150.024343 51.7447642,159.020925 51.7447642,172.752551 C51.7447642,181.749133 58.8273042,188.851698 72.5202149,194.060245 L120.209318,210.632897 C154.677679,222.94401 172.147945,243.304696 172.147945,271.714955 C172.147945,313.856841 137.679583,336.585049 90.4626496,336.585049 C41.8292081,336.585049 10.666032,313.383336 5,276.923503 C5,276.923503 43.878423,265.436288 45.6065628,270.767947 C46.5900801,274.83984 48.3035845,278.698505 50.6634964,282.155726 C59.2994735,292.814308 73.3890065,298.704702 91.4069883,298.704702 C114.071116,298.704702 131.541382,288.761111 131.541382,273.135468 C131.541382,262.718373 123.042334,254.6688 105.572068,248.513243 L58.3551349,232.8876 C25.7754507,221.523497 10.666032,204.003836 10.666032,176.067081 C10.666032,133.925196 43.7178855,112.143997 90.4626496,112.143997 C128.212588,112.143997 155.263169,127.878545 164.593235,152.690172 C166.333497,157.18067 167.599534,161.841751 168.37059,166.596994 Z" id="Stay22-logo" fill="#293BFF" fill-rule="nonzero"></path>
    </g>
</svg>